<svg width="70" height="70" viewBox="0 0 70 70" fill="none" xmlns="http://www.w3.org/2000/svg">
<rect width="70" height="70" rx="35" fill="black" fill-opacity="0.8"/>
<path d="M35.0003 4.67529C18.2508 4.67529 4.67578 18.2503 4.67578 34.9999C4.67578 51.7494 18.2508 65.3244 35.0003 65.3244C51.7499 65.3244 65.3249 51.7494 65.3249 34.9999C65.3249 18.2503 51.7499 4.67529 35.0003 4.67529ZM53.9295 53.9172C51.4656 56.3811 48.6109 58.3119 45.4244 59.6504C42.1314 61.0482 38.6251 61.7471 35.0003 61.7471C31.3875 61.7471 27.8812 61.0363 24.5763 59.6504C21.3898 58.3 18.5232 56.3692 16.0712 53.9172C13.6073 51.4533 11.6765 48.5985 10.3379 45.4121C8.94017 42.119 8.22944 38.6127 8.22944 34.9999C8.22944 31.387 8.94017 27.8807 10.3261 24.5758C11.6765 21.3893 13.6073 18.5227 16.0593 16.0707C18.5351 13.6068 21.3898 11.676 24.5763 10.3256C27.8812 8.93969 31.3875 8.22895 35.0003 8.22895C38.6132 8.22895 42.1195 8.93969 45.4244 10.3256C48.6109 11.676 51.4775 13.6068 53.9295 16.0589C56.3934 18.5227 58.3242 21.3775 59.6628 24.5639C61.0605 27.857 61.7594 31.3633 61.7594 34.988C61.7594 38.6009 61.0487 42.1072 59.6628 45.4121C58.3124 48.5985 56.3815 51.4652 53.9295 53.9172Z" fill="white"/>
<path d="M47.249 26.2695H39.2178V28.6031H47.249V26.2695Z" fill="white"/>
<path d="M48.9309 32.6069C48.3031 31.6711 47.5094 30.984 46.5381 30.5576C45.5786 30.1193 44.4888 29.9061 43.2687 29.9179C41.2431 29.9179 39.5966 30.5576 38.3173 31.8369C37.0498 33.1162 36.4102 34.9523 36.4102 37.3569C36.4102 39.9156 37.1209 41.7635 38.5305 42.9007C39.9401 44.0378 41.563 44.6064 43.4109 44.6064C45.6497 44.6064 47.3791 43.9312 48.6229 42.5808C49.4166 41.7279 49.8667 40.8869 49.9614 40.0696H46.2656C46.0524 40.4842 45.8037 40.804 45.5194 41.0291C44.9982 41.4555 44.323 41.6687 43.5056 41.6687C42.7238 41.6687 42.0605 41.491 41.5037 41.1475C40.5916 40.5908 40.1178 39.6076 40.0586 38.2217H50.151C50.1747 37.0253 50.1273 36.1132 50.0325 35.4735C49.8667 34.3837 49.4995 33.4242 48.9309 32.6069ZM40.1533 35.8289C40.2955 34.9286 40.6153 34.2179 41.1247 33.6848C41.634 33.1636 42.3566 32.8912 43.2806 32.8912C44.1334 32.8912 44.856 33.1399 45.4365 33.6374C46.005 34.135 46.3249 34.8694 46.3959 35.8289H40.1533Z" fill="white"/>
<path d="M32.3112 34.0877C32.9391 33.7679 33.4247 33.4125 33.7445 33.0216C34.325 32.3227 34.6093 31.3988 34.6093 30.2616C34.6093 29.1481 34.325 28.1886 33.7564 27.395C32.7969 26.092 31.1741 25.4286 28.8997 25.3931H19.8379V44.1446H28.2719C29.2314 44.1446 30.108 44.0616 30.9253 43.8958C31.7427 43.7181 32.4534 43.4101 33.0457 42.9482C33.5787 42.5572 34.017 42.0597 34.3724 41.4793C34.9409 40.6027 35.2134 39.6077 35.2134 38.4942C35.2134 37.4163 34.9646 36.5042 34.479 35.7461C33.9933 34.9879 33.2707 34.4431 32.3112 34.0877ZM23.5692 28.6506H27.6441C28.5444 28.6506 29.2788 28.7572 29.8592 28.9467C30.5344 29.231 30.8661 29.7996 30.8661 30.6762C30.8661 31.458 30.6173 32.0147 30.108 32.3227C29.5986 32.6307 28.9471 32.7847 28.1298 32.7847H23.5692V28.6506ZM30.0251 40.5435C29.5749 40.7686 28.9471 40.8752 28.1298 40.8752H23.5692V35.8764H28.189C28.9945 35.8882 29.6105 35.9948 30.0606 36.1962C30.8661 36.5634 31.257 37.2386 31.257 38.2099C31.257 39.359 30.8542 40.1289 30.0251 40.5435Z" fill="white"/>
</svg>
