<svg width="545" height="605" viewBox="0 0 545 605" fill="none" xmlns="http://www.w3.org/2000/svg">
<path fill-rule="evenodd" clip-rule="evenodd" d="M85.0683 163.312C85.8861 162.494 86.4859 162.658 87.7944 164.075C88.7213 165.111 89.212 166.365 88.8849 167.02C88.4487 167.783 88.1761 167.728 87.8489 166.747C87.5218 165.984 87.1947 165.766 87.0311 166.256C86.9221 166.693 86.1587 166.474 85.3954 165.711C84.414 164.73 84.305 164.075 85.0683 163.312ZM67.4028 186.648C67.948 186.43 69.2566 186.975 70.4016 187.902C72.2554 189.429 72.2554 189.647 70.8378 190.301C69.9654 190.737 69.5292 191.282 69.8564 191.61C70.1835 191.937 69.8018 192.536 69.0385 192.973C68.2752 193.409 67.8935 194.009 68.2207 194.336C68.5478 194.663 68.3297 195.317 67.839 195.808C67.1847 196.462 66.9303 196.426 67.0757 195.699C67.2392 195.099 66.694 194.227 65.8762 193.627C64.9493 193.027 64.3495 193.082 64.1314 193.736C63.9497 194.499 63.7679 194.499 63.5862 193.736C63.4772 193.191 63.6952 192.536 64.1314 192.427C64.6221 192.264 65.1674 191.391 65.44 190.356C65.8762 188.72 65.9852 188.72 66.1488 190.301C66.3669 191.719 66.4759 191.828 67.2938 190.901C67.7845 190.41 67.839 189.374 67.3483 188.556C66.8576 187.738 66.9121 186.921 67.4028 186.648ZM60.86 198.425C61.2962 197.989 62.4957 198.098 63.4772 198.752C64.5131 199.461 65.2764 200.224 65.2764 200.551C65.2764 200.878 64.6767 201.369 63.9679 201.533C63.3136 201.751 62.1686 201.369 61.4053 200.606C60.5329 199.733 60.3693 198.916 60.86 198.425ZM50.6097 225.359C51.9183 225.686 53.0087 226.232 53.0633 226.613C53.1723 227.05 52.8997 226.995 52.518 226.613C52.1909 226.286 51.4275 226.395 50.9368 226.886C50.3371 227.377 49.9009 228.576 49.9554 229.503C50.01 230.975 50.119 231.084 51.1004 230.103C51.8637 229.23 51.9728 229.558 51.3185 231.411C50.9368 232.774 50.2826 234.083 49.9554 234.41C49.6828 234.683 49.5192 234.301 49.6828 233.592C49.8646 232.684 49.7373 232.447 49.3012 232.884C48.9195 233.265 48.2107 233.211 47.72 232.72C47.1748 232.175 46.8476 232.284 46.684 232.993C46.5387 233.72 46.3024 233.701 45.9752 232.938C45.7026 232.338 45.8662 231.52 46.466 231.03C47.0657 230.648 47.2293 230.048 46.9567 229.776C46.6295 229.449 46.7931 228.631 47.2293 227.867C47.6655 227.104 48.3743 226.613 48.865 226.777C49.3012 226.886 49.9554 226.777 50.228 226.504C50.5552 226.177 50.1735 225.686 49.4647 225.305C48.8104 224.978 49.3012 224.923 50.5552 225.305L50.6097 225.359ZM44.2305 238.063C44.8848 237.409 45.8662 237.191 46.466 237.463C47.0657 237.736 47.9381 238.39 48.3743 238.827C48.8104 239.263 48.8104 240.026 48.3743 240.462C47.9381 240.898 47.2838 241.007 47.0112 240.735C46.7386 240.462 46.9567 240.026 47.5564 239.862C48.1016 239.644 48.1016 239.535 47.6109 239.481C47.0657 239.481 46.3569 239.753 46.0298 240.081C45.6481 240.462 44.8848 240.353 44.2305 239.917C43.4127 239.426 43.4672 238.827 44.2305 238.063ZM37.8513 266.252C38.233 265.87 39.4325 265.87 40.5775 266.252C42.3222 266.797 42.5948 267.069 42.3222 267.996C42.1041 268.651 41.9405 269.905 41.9951 270.832C41.9405 272.304 41.7224 272.522 40.2503 272.576C38.7237 272.685 38.6146 272.794 39.487 273.558C40.0322 274.103 40.741 274.267 41.1227 273.885C41.5589 273.449 41.8133 273.594 41.886 274.321C41.886 274.975 41.4498 275.63 40.9591 275.793C40.3049 276.011 39.6506 275.575 39.0508 274.539C38.3965 273.231 38.1239 273.176 37.6877 274.267C37.4151 275.084 36.9789 275.412 36.6518 275.084C36.3792 274.812 36.4882 274.157 36.9244 273.721C37.3606 273.285 37.4696 272.413 37.197 271.813C36.9244 271.213 37.0335 270.341 37.4696 269.905C37.9058 269.469 38.0149 268.596 37.7423 267.996C37.4151 267.451 37.4696 266.633 37.8513 266.252ZM36.5428 279.555C37.3061 278.792 37.4697 278.846 37.1425 279.937C36.8699 280.973 37.088 281.082 38.3965 280.319C39.2144 279.828 40.3048 279.828 40.741 280.264C41.1772 280.7 41.1772 281.464 40.741 281.9C40.3048 282.336 38.9963 282.554 37.8513 282.281C36.7608 282.063 35.834 281.573 35.7249 281.136C35.6704 280.755 36.052 280.046 36.5428 279.555ZM23.7844 305.181C25.6381 304.963 27.2738 304.963 27.4919 305.181C27.7645 305.454 27.7645 306.108 27.601 306.599C27.4374 307.198 25.8017 307.635 24.1115 307.689C22.3122 307.635 20.8946 307.198 20.6765 306.653C20.4039 305.835 21.3308 305.454 23.7844 305.181ZM21.2763 311.179C21.4944 310.961 23.1846 310.688 24.9839 310.524C27.2011 310.27 28.3098 310.506 28.3098 311.233C28.3098 311.96 27.1466 312.469 24.8203 312.76C22.912 313.032 21.2218 312.869 21.1127 312.433C21.0582 311.942 21.0582 311.397 21.2763 311.179ZM22.4213 316.14C23.021 315.977 24.4932 315.813 25.8562 315.759C27.1648 315.759 28.3643 315.868 28.5824 316.086C28.855 316.358 28.6914 316.849 28.3643 317.176C27.9281 317.503 26.3469 317.994 24.7112 318.212C22.8575 318.43 21.7125 318.158 21.6034 317.503C21.5489 316.904 21.9306 316.304 22.4213 316.14ZM22.6939 321.756C23.021 321.429 24.7112 321.047 26.3469 320.938C28.3643 320.775 29.4002 321.047 29.3457 321.756C29.3457 322.41 28.0917 323.01 25.8017 323.337C23.7844 323.61 22.2032 323.555 22.1487 323.065C22.0941 322.683 22.3668 322.083 22.6939 321.756ZM36.3792 309.161C36.8699 308.671 37.7423 308.889 38.5601 309.707C39.3234 310.47 40.0868 310.688 40.1958 310.252C40.3594 309.761 40.6865 310.415 41.0136 311.615C41.3408 312.814 41.3408 314.014 41.0136 314.341C40.741 314.614 40.1958 314.396 39.9232 313.796C39.6506 313.196 39.1599 312.923 38.8327 313.251C38.5601 313.523 38.6146 314.559 39.0508 315.431C39.8141 317.067 39.7596 317.122 36.8154 315.813L37.5242 317.285C37.9058 318.103 37.7968 318.648 37.3606 318.539C36.8699 318.485 36.4337 317.067 36.2701 315.486C36.1611 313.959 36.3792 312.978 36.6518 313.251C36.9244 313.523 37.6877 313.305 38.2875 312.705C39.0508 311.942 38.9963 311.233 38.1239 310.361C37.197 309.434 36.9789 309.434 37.197 310.524C37.3606 311.233 37.2516 311.778 36.8154 311.669C36.4337 311.615 35.943 311.233 35.834 310.797C35.7794 310.306 35.9975 309.543 36.3792 309.161ZM22.7484 327.154C22.912 326.99 24.3296 326.663 25.8562 326.445C27.4919 326.227 29.0731 326.391 29.4002 326.718C29.7819 327.099 30 327.536 29.8364 327.699C29.6729 327.863 28.2007 328.244 26.6196 328.517C24.9839 328.844 23.5117 329.117 23.3482 329.062C23.1301 329.062 22.8575 328.681 22.7484 328.244C22.6939 327.754 22.6394 327.263 22.7484 327.154ZM23.8389 332.606C24.0025 332.443 25.4746 332.061 27.1648 331.679C29.0731 331.298 30.4362 331.461 30.5997 332.061C30.8178 332.824 30 333.315 27.5464 333.806C25.6381 334.187 23.9479 334.133 23.8389 333.697C23.7844 333.206 23.7298 332.715 23.8389 332.606ZM37.088 322.628C37.3061 322.41 38.5056 322.083 39.7596 321.92C40.9591 321.702 42.1041 321.974 42.2677 322.574C42.4858 323.119 42.4312 323.828 42.1041 324.155C41.8315 324.428 41.3953 324.319 41.2863 323.883C41.1772 323.446 40.8501 323.555 40.6865 324.046C40.4684 324.591 39.5415 324.973 38.7782 324.864C37.9058 324.755 37.0335 324.319 36.9244 323.883C36.8699 323.392 36.8699 322.847 37.088 322.628ZM24.8203 338.168C25.1474 337.84 26.8922 337.295 28.5279 336.968C30.527 336.568 31.5266 336.732 31.5266 337.459C31.5266 338.186 30.4725 338.767 28.3643 339.204C26.6196 339.64 24.9293 339.694 24.6567 339.422C24.3841 339.149 24.4386 338.549 24.8203 338.168ZM26.2379 342.857C26.8377 342.693 28.5279 342.42 29.9455 342.202C31.7266 341.948 32.6171 342.184 32.6171 342.911C32.6171 343.638 31.5812 344.165 29.5093 344.492C27.7645 344.71 26.2379 344.928 26.0743 344.874C25.8562 344.874 25.6381 344.438 25.5291 344.002C25.3655 343.511 25.7472 343.02 26.2379 342.857ZM26.565 348.418C26.7286 348.254 28.2007 347.764 29.8364 347.327C31.4721 346.891 33.1078 346.782 33.3804 347.055C33.653 347.327 33.8711 347.873 33.7621 348.2C33.653 348.636 32.29 349.236 30.7633 349.563C29.2367 349.999 27.5465 349.945 27.1103 349.508C26.6741 349.072 26.4015 348.581 26.565 348.418ZM38.7237 339.531C38.9418 339.313 40.4139 338.822 41.9951 338.44C44.7212 337.786 44.8303 337.895 45.3755 339.967C45.7026 341.166 45.5936 342.475 45.2665 342.802C44.8848 343.184 43.5762 343.729 42.2677 343.947C41.0136 344.22 39.8141 344.438 39.596 344.547C39.3234 344.601 38.9418 343.565 38.7237 342.257C38.4511 341.003 38.5056 339.749 38.7237 339.531ZM31.254 352.671C32.9988 352.235 34.5254 351.907 34.7435 351.907C34.9071 351.962 35.1252 352.289 35.2887 352.78C35.4523 353.27 34.1437 354.034 32.1264 354.524C30.2726 355.07 28.5279 355.397 28.3098 355.288C28.0917 355.179 27.9281 354.688 28.0372 354.252C28.0372 353.816 29.5093 353.107 31.254 352.671ZM30.109 359.05C30.4362 358.723 31.7993 358.123 33.1078 357.687C34.4709 357.196 35.943 357.251 36.3792 357.687C37.0335 358.341 36.6518 358.723 33.9257 359.595C32.1264 360.195 30.4362 360.468 30.109 360.14C29.7819 359.813 29.8364 359.323 30.109 359.05ZM31.3631 364.339C31.4176 364.284 32.7807 363.575 34.4709 362.867C36.2701 362.049 37.7423 361.885 38.1239 362.485C38.5056 362.976 38.7237 363.521 38.5601 363.684C38.3966 363.848 36.8154 364.448 35.0161 365.047C33.2169 365.647 31.6357 365.811 31.4721 365.32C31.3631 364.775 31.3086 364.393 31.3631 364.339ZM33.1078 369.137C33.2714 368.973 34.689 368.428 36.2156 367.883C37.8513 367.337 39.4325 367.283 39.7596 367.61C40.1413 367.992 40.3594 368.428 40.1958 368.591C40.0322 368.755 38.4511 369.355 36.6518 369.955C34.8525 370.554 33.2714 370.718 33.1078 370.227C32.9988 369.682 32.9988 369.246 33.1078 369.137ZM37.5242 373.226C39.1599 372.463 40.8501 372.19 41.3408 372.572C41.7225 372.953 41.886 373.444 41.5589 373.771C41.2863 374.044 39.7596 374.698 38.1785 375.189C36.6518 375.734 35.1797 375.788 34.9616 375.352C34.6345 374.698 35.3978 374.153 37.5242 373.226ZM37.088 379.332C37.3061 379.114 38.7237 378.351 40.3594 377.697C41.886 377.043 43.4127 376.715 43.7398 377.043C44.0669 377.37 43.9579 377.915 43.6308 378.242C43.2491 378.624 41.886 379.551 40.632 380.15C39.378 380.859 37.9058 381.023 37.4697 380.587C37.0335 380.15 36.8154 379.605 37.088 379.332ZM41.777 382.931C43.3581 382.222 44.6122 381.622 44.7212 381.513C44.7757 381.459 45.2119 381.786 45.6481 382.222C46.0843 382.658 46.3569 383.149 46.1933 383.313C46.0298 383.476 44.5577 384.185 42.922 384.948C41.2863 385.712 39.6506 386.148 39.378 385.984C39.0508 385.766 38.8873 385.276 38.8873 384.839C38.9418 384.458 40.1958 383.531 41.777 382.931ZM41.5589 389.038C41.886 388.71 43.3581 388.002 44.8303 387.402C46.3024 386.802 47.7745 386.53 48.1017 386.857C48.4288 387.184 48.3197 387.729 47.9926 388.056C47.6109 388.438 46.1388 389.256 44.7757 389.855C43.4672 390.51 42.0496 390.619 41.6679 390.237C41.3408 389.91 41.2863 389.31 41.5589 389.038ZM44.4486 393.781C44.8303 393.399 46.1388 392.527 47.4474 391.873C49.0285 391.055 49.9009 391.055 50.2826 391.764C50.7733 392.691 50.4461 393.018 47.5564 394.49C45.7572 395.417 44.176 395.798 44.0124 395.308C43.9034 394.763 44.0669 394.163 44.4486 393.781ZM48.5924 397.489C50.0645 396.671 51.5911 395.798 52.0273 395.689C52.5726 395.508 52.8452 395.78 52.8452 396.507C52.8452 397.162 51.6456 398.143 49.7373 399.179C48.1016 400.051 46.5205 400.651 46.3024 400.542C46.0843 400.433 45.9753 399.997 45.9753 399.67C46.0298 399.288 47.2293 398.307 48.5924 397.489ZM50.5007 402.559C51.5366 401.96 52.9542 401.196 53.6085 400.869C54.3173 400.487 54.9716 400.706 55.1351 401.305C55.4077 402.123 54.8625 402.668 52.6816 403.759C51.2095 404.468 49.6828 404.795 49.3012 404.413C48.865 403.977 49.2466 403.377 50.5007 402.559ZM60.0967 398.088L62.9864 396.398C65.6581 394.817 65.9852 394.817 67.3483 396.507C68.7114 398.197 68.7114 398.416 66.4759 400.324C65.2219 401.469 63.8043 402.341 63.4226 402.287C63.041 402.232 62.1141 401.305 61.4053 400.16L60.0967 398.088ZM52.0273 408.012C52.409 407.63 53.7175 406.758 55.0261 406.103C56.3346 405.449 57.6432 405.122 57.9158 405.395C58.2429 405.722 57.9703 406.43 57.3706 407.03C56.7708 407.63 55.4623 408.502 54.3718 408.939C53.3359 409.429 52.2454 409.538 51.9183 409.211C51.6457 408.939 51.6457 408.393 52.0273 408.012ZM54.7535 412.919C55.1351 412.537 56.4437 411.556 57.6977 410.847C58.8972 410.083 60.1512 409.811 60.5329 410.193C60.9146 410.574 60.9691 411.065 60.751 411.283C60.5329 411.501 59.2244 412.373 57.7522 413.191C56.3892 414.009 54.9716 414.445 54.6444 414.118C54.3718 413.846 54.3718 413.3 54.7535 412.919ZM59.9877 415.754C61.3508 414.718 62.7684 413.846 63.0955 413.846C63.4226 413.846 63.6407 414.391 63.6407 414.936C63.5862 415.645 62.6593 416.572 61.0236 417.553C59.6605 418.371 58.2429 418.698 57.9158 418.371C57.5887 417.898 58.2793 417.026 59.9877 415.754ZM61.2962 420.988C61.896 420.606 63.3136 419.734 64.3495 419.025C65.44 418.371 66.5304 418.153 66.8576 418.589C67.2938 419.134 66.6395 419.898 64.4586 421.533C62.8229 422.733 61.2962 423.605 61.0236 423.551C60.86 423.496 60.5329 422.951 60.4239 422.515C60.2603 422.024 60.642 421.315 61.2962 420.988ZM65.4945 424.641C66.585 423.878 67.948 423.06 68.4388 422.787C68.9295 422.515 69.6383 422.569 69.9109 422.842C70.238 423.169 69.7473 424.096 68.9295 424.914C68.1116 425.732 66.8031 426.822 65.9307 427.367C65.0038 427.967 64.295 427.913 63.9679 427.258C63.5862 426.44 64.0769 425.732 65.4945 424.641ZM74.2182 416.354C74.9815 415.59 76.2901 414.609 77.0534 414.173C78.3074 413.464 78.6346 413.682 80.9791 417.008C82.4512 419.025 90.5751 427.585 99.1352 436.146C112.93 449.94 115.547 452.339 122.744 457.246C127.16 460.354 134.194 464.879 138.337 467.278C142.481 469.786 149.187 473.33 153.277 475.239C157.366 477.147 160.801 478.837 160.964 479.001C161.128 479.164 160.637 480.527 159.874 482.054C159.22 483.581 158.238 484.78 157.748 484.726C157.257 484.78 153.549 483.144 149.46 481.236C145.425 479.273 139.755 476.329 136.92 474.693C134.085 473.058 128.196 469.35 123.889 466.46C119.581 463.571 113.366 458.991 110.04 456.319C106.768 453.593 101.534 449.231 98.5355 446.559C95.4822 443.942 89.5937 437.836 85.3954 432.983C81.2517 428.185 76.7263 422.787 75.3087 421.043C72.9642 418.044 72.8551 417.717 74.2182 416.354ZM68.1661 429.385C68.984 428.894 70.1835 428.022 70.8378 427.367C71.6011 426.604 72.4189 426.44 72.9096 426.931C73.3458 427.367 73.2913 428.185 72.7461 428.73C72.2554 429.221 70.8923 430.366 69.7473 431.184C68.1661 432.329 67.5664 432.383 67.2392 431.402C66.9121 430.639 67.2938 429.93 68.1661 429.385ZM71.9828 433.201C73.1277 432.492 74.2727 431.566 74.6544 431.184C75.036 430.802 75.7449 430.857 76.181 431.293C76.6172 431.729 76.6717 432.438 76.2901 432.82C75.9084 433.201 74.6544 434.128 73.4549 434.891C72.1463 435.655 70.9468 435.873 70.5651 435.382C70.0744 434.782 70.5106 434.128 71.9828 433.201ZM75.3087 437.509C76.072 437.072 77.1624 436.309 77.6532 435.818C78.1984 435.273 78.9617 435.164 79.3434 435.546C79.7796 435.982 79.1253 436.963 77.4351 438.545C75.9629 439.799 74.5453 440.671 74.2727 440.507C73.9456 440.289 73.782 439.69 73.8365 439.199C73.8365 438.763 74.5453 437.945 75.3087 437.509ZM79.0707 441.38C80.2157 440.671 81.3607 439.744 81.7424 439.362C82.124 438.981 82.7238 438.926 82.9964 439.199C83.3236 439.526 82.4512 440.835 81.0881 442.198C79.1253 444.16 78.471 444.488 77.8167 443.724C77.217 442.906 77.4896 442.416 79.0707 441.38ZM82.3421 445.742C83.1054 445.305 84.3595 444.378 85.0138 443.724C85.7226 443.015 86.5404 442.743 86.813 443.015C87.1402 443.343 86.2678 444.651 84.9047 446.014C82.9419 447.977 82.2876 448.304 81.6333 447.541C81.0881 446.887 81.3062 446.341 82.3421 445.742ZM341 193.191C341.218 192.973 343.344 194.663 345.689 197.007C347.979 199.297 351.686 203.55 353.922 206.44C356.212 209.275 359.483 213.855 361.282 216.527C363.027 219.253 366.516 225.359 368.915 230.157C371.369 234.901 374.64 242.425 376.167 246.896C377.694 251.367 379.711 258.4 380.692 262.544C381.674 266.688 382.928 273.503 383.418 277.811C383.964 282.063 384.4 289.26 384.509 293.731C384.563 298.257 384.4 304.2 384.127 306.871C383.691 311.887 383.691 311.887 385.981 312.324C387.29 312.542 388.271 313.087 388.217 313.469C388.162 313.85 386.09 314.068 379.22 313.632L383.255 314.286C385.436 314.614 387.399 315.268 387.508 315.704C387.671 316.195 387.017 320.12 386.199 324.537C385.327 328.899 384.018 334.351 383.364 336.641C382.601 338.931 381.728 341.112 381.347 341.493C380.965 341.875 380.529 341.984 380.311 341.766C380.093 341.548 379.329 341.221 378.73 341.057C377.966 340.839 377.148 342.202 375.458 346.728C374.204 349.945 372.023 355.179 370.551 358.178C369.133 361.231 366.189 366.683 364.117 370.282C361.991 373.826 358.174 379.605 355.612 383.04C352.722 387.129 347.542 392.854 341.49 398.906C335.384 405.122 329.713 410.138 325.624 413.028C322.189 415.59 316.246 419.461 312.484 421.697C308.722 423.932 302.452 427.258 298.526 429.003C294.655 430.802 291.111 432.274 290.729 432.329C290.293 432.329 289.857 431.893 289.693 431.293C289.475 430.53 291.547 429.33 297.327 426.713C301.688 424.75 308.286 421.315 311.993 419.025C315.755 416.79 322.026 412.483 325.897 409.484C329.768 406.485 335.929 401.087 339.527 397.489C343.126 393.89 347.979 388.492 350.432 385.494C352.777 382.495 355.721 378.569 356.92 376.715C358.065 374.916 360.301 371.481 361.773 369.028C363.299 366.629 365.208 363.194 366.135 361.394C367.062 359.595 369.079 355.07 370.715 351.253C372.35 347.546 373.877 343.511 374.095 342.311C374.422 340.567 374.15 339.967 372.459 338.931C370.606 337.731 370.551 337.677 372.187 337.568C373.768 337.404 373.822 337.35 372.787 336.968C371.969 336.586 372.078 334.733 373.223 330.098C374.095 326.609 375.186 321.156 375.676 318.049C376.167 314.941 376.821 312.215 377.148 311.887C377.421 311.615 378.511 311.288 379.438 311.233C381.074 311.124 381.292 310.688 381.51 307.308C381.728 305.236 381.946 301.201 382.055 298.366C382.11 295.585 381.837 289.206 381.401 284.19C381.019 279.228 379.711 270.941 378.62 265.706C377.53 260.472 375.513 253.003 374.095 248.968C372.732 244.988 370.169 238.718 368.425 235.01C366.68 231.411 363.463 225.468 361.337 221.924C359.21 218.38 355.176 212.383 352.34 208.566C349.505 204.859 345.634 200.333 343.726 198.534C341.872 196.789 340.345 194.935 340.454 194.499C340.454 194.063 340.727 193.463 341 193.191ZM87.0311 448.468C88.3942 447.323 89.8663 446.614 90.357 446.887C90.9023 447.214 90.4116 448.141 88.7213 449.831C86.8676 451.685 86.0497 452.066 85.45 451.467C84.8502 450.758 85.1773 450.103 87.0311 448.468ZM90.9023 452.012C92.7015 450.212 93.5739 449.776 94.1736 450.376C94.7734 450.976 94.3372 451.848 92.538 453.647C90.7387 455.447 89.8663 455.883 89.2666 455.283C88.6668 454.683 89.103 453.811 90.9023 452.012ZM94.7189 455.828C96.5181 454.029 97.3905 453.593 97.9903 454.193C98.59 454.792 98.1538 455.665 96.3546 457.464C94.5553 459.263 93.6829 459.699 93.0832 459.1C92.4834 458.5 92.9196 457.628 94.7189 455.828ZM99.0807 459.1C100.444 457.737 101.807 456.919 102.079 457.191C102.407 457.519 102.352 458.227 102.08 458.827C101.807 459.427 100.771 460.681 99.8986 461.553C98.8081 462.644 97.9903 462.916 97.445 462.371C96.8453 461.771 97.2815 460.899 99.0807 459.1ZM105.514 460.844C105.951 461.063 106.169 461.717 105.951 462.371C105.787 462.971 104.86 464.116 103.988 464.879C103.061 465.588 102.079 466.024 101.752 465.697C101.48 465.424 102.025 464.116 103.006 462.807C103.988 461.499 105.133 460.681 105.514 460.844ZM108.295 464.279C108.786 463.68 109.549 463.571 109.985 464.007C110.422 464.443 110.367 465.479 109.822 466.351C109.331 467.169 108.35 468.369 107.641 469.077C106.932 469.786 106.114 469.95 105.623 469.459C105.133 468.968 105.351 467.987 106.114 467.006C106.823 466.079 107.804 464.77 108.295 464.279ZM165.054 413.846C165.544 413.355 166.689 413.627 167.998 414.5C169.143 415.318 171.651 416.844 173.614 417.826C175.631 418.862 178.957 420.552 181.083 421.588C183.701 422.787 185.227 423.115 185.936 422.515C186.645 421.806 189.262 422.351 194.605 424.314C198.858 425.841 205.891 427.858 210.253 428.839C214.615 429.712 218.541 430.366 219.031 430.202C219.468 430.093 220.122 429.112 220.449 428.131C220.994 426.386 221.594 426.331 226.992 426.713C230.209 426.986 236.915 427.149 250.6 426.986L251.255 436.146L244.603 436.364C240.95 436.527 235.116 436.473 231.626 436.255C228.137 436.146 223.284 435.764 220.885 435.437C218.432 435.164 213.034 434.237 208.781 433.365C204.528 432.492 196.895 430.312 191.824 428.512C186.754 426.713 179.066 423.496 174.759 421.37C170.506 419.189 166.362 416.79 165.599 416.027C164.781 415.209 164.563 414.336 165.054 413.846ZM112.657 467.551C113.148 466.951 113.856 466.787 114.238 467.169C114.62 467.551 114.347 468.805 113.584 470.004C112.821 471.204 111.839 472.512 111.457 472.894C111.076 473.276 110.422 473.167 109.985 472.731C109.495 472.24 109.713 471.258 110.476 470.277C111.185 469.35 112.166 468.042 112.657 467.551ZM412.316 172.036C413.188 171.163 414.442 170.127 415.042 169.855C415.642 169.582 416.514 169.691 416.95 170.127C417.55 170.727 417.332 171.272 415.914 172.145C414.933 172.799 413.57 173.617 412.915 174.053C412.316 174.435 411.552 174.544 411.225 174.217C410.953 173.944 411.389 172.963 412.316 172.036ZM116.692 471.04C117.4 470.331 118.218 470.059 118.6 470.441C118.982 470.822 118.491 472.185 117.619 473.494C116.692 474.857 115.601 476.056 115.274 476.165C114.892 476.22 114.402 476.056 114.075 475.729C113.802 475.457 113.966 474.53 114.511 473.766C115.111 472.949 116.092 471.749 116.692 471.04ZM415.696 176.289C416.678 175.307 418.095 174.326 418.804 174.162C419.513 173.999 420.167 174.326 420.276 174.871C420.44 175.58 419.676 176.343 417.768 177.488C416.296 178.415 414.824 178.906 414.497 178.579C414.224 178.306 414.715 177.27 415.696 176.289ZM122.526 473.276C123.125 473.33 123.453 473.766 123.289 474.366C123.071 474.911 122.198 476.329 121.326 477.419C120.399 478.564 119.309 479.328 118.873 479.11C118.491 478.946 118.927 477.529 119.854 475.947C120.999 474.039 121.871 473.167 122.526 473.276ZM417.877 181.087C418.477 180.705 419.84 179.887 420.821 179.233C422.075 178.415 422.839 178.415 423.22 179.124C423.711 180.051 423.329 180.432 421.094 181.686C419.676 182.45 418.15 183.213 417.823 183.322C417.495 183.431 417.114 183.049 417.005 182.613C416.841 182.123 417.223 181.414 417.877 181.087ZM125.961 475.947C126.342 475.566 126.997 475.566 127.433 476.002C127.869 476.438 127.814 477.474 127.269 478.346C126.778 479.164 125.797 480.364 125.088 481.073C124.434 481.727 123.616 482.108 123.234 481.836C122.907 481.618 123.18 480.364 123.943 479.055C124.707 477.747 125.633 476.384 125.961 475.947ZM421.748 184.958C423.002 184.031 424.583 183.322 425.183 183.268C425.728 183.268 426.219 183.431 426.274 183.813C426.274 184.14 425.129 185.176 423.711 186.048C422.293 187.03 420.712 187.52 420.167 187.193C419.458 186.702 419.785 186.266 421.748 184.958ZM130.595 478.946C131.14 478.401 131.795 478.183 132.067 478.455C132.394 478.783 132.285 479.873 131.795 480.909C131.358 481.999 130.486 483.308 129.886 483.908C129.232 484.562 128.632 484.617 128.414 484.071C128.196 483.526 128.414 482.436 128.905 481.509C129.341 480.636 130.159 479.491 130.595 478.946ZM424.965 189.156C426.383 188.284 427.964 187.902 428.455 188.284C428.891 188.611 429.054 189.101 428.836 189.32C428.618 189.538 427.201 190.41 425.728 191.119C424.202 191.882 422.784 192.427 422.566 192.318C422.348 192.1 422.184 191.719 422.184 191.391C422.239 191.01 423.438 190.028 424.965 189.156ZM136.211 481.4C136.811 481.454 137.083 481.945 136.92 482.545C136.756 483.035 135.993 484.453 135.175 485.598C134.194 487.125 133.539 487.561 133.049 487.07C132.667 486.688 132.994 485.271 133.757 483.853C134.739 482.108 135.502 481.345 136.211 481.4ZM424.747 195.59C424.965 195.372 426.328 194.554 427.746 193.681C429.272 192.809 430.69 192.591 431.126 193.027C431.726 193.627 431.562 194.118 430.417 194.717C429.545 195.263 428.073 195.971 427.146 196.353C426.165 196.789 425.183 196.898 424.856 196.571C424.583 196.299 424.529 195.808 424.747 195.59ZM139.755 484.18C140.246 483.799 140.9 483.799 141.173 484.071C141.5 484.398 141.118 485.871 140.355 487.397C139.373 489.251 138.555 490.178 137.847 490.232C137.156 490.196 137.156 489.287 137.847 487.506C138.501 485.98 139.319 484.507 139.755 484.18ZM429.381 199.025C430.69 198.152 432.217 197.389 432.762 197.389C433.416 197.389 433.907 197.771 433.907 198.207C433.852 198.698 432.598 199.733 431.017 200.551C429.436 201.369 427.909 201.696 427.637 201.315C427.31 200.878 427.909 200.061 429.381 199.025ZM145.153 485.762C145.589 485.652 146.134 485.762 146.352 486.089C146.625 486.361 146.08 488.106 145.153 489.905C143.681 492.904 143.517 493.068 142.917 492.032C142.59 491.377 142.808 489.742 143.353 488.433C143.953 487.179 144.771 485.925 145.153 485.762ZM429.763 204.75C430.09 204.422 431.562 203.714 433.035 203.114C434.616 202.514 436.033 202.296 436.306 202.569C436.633 202.896 436.688 203.278 436.47 203.496C436.251 203.714 434.834 204.586 433.362 205.295C431.835 206.058 430.308 206.385 429.927 206.004C429.545 205.622 429.491 205.022 429.763 204.75ZM149.46 488.433C149.842 488.051 150.332 487.997 150.605 488.27C150.932 488.597 150.714 490.014 150.06 491.541C149.515 493.068 148.751 494.485 148.424 494.812C148.151 495.085 147.497 495.085 147.061 494.758C146.57 494.376 146.788 493.068 147.552 491.65C148.261 490.287 149.133 488.869 149.46 488.433ZM434.125 208.457C435.597 207.639 437.233 207.203 437.778 207.421C438.378 207.585 438.814 208.021 438.759 208.294C438.814 208.566 437.342 209.384 435.597 210.147C433.798 210.856 432.162 211.074 431.944 210.638C431.617 210.093 432.217 209.493 434.125 208.457ZM154.967 490.123C155.403 490.014 155.894 490.069 156.112 490.287C156.221 490.505 155.839 491.977 155.13 493.558C154.476 495.194 153.767 496.666 153.658 496.993C153.495 497.266 153.004 497.211 152.513 496.83C152.077 496.503 152.241 494.921 152.95 493.34C153.604 491.705 154.585 490.287 154.967 490.123ZM165.544 481.073C165.762 480.854 166.635 480.854 167.507 481.182C168.434 481.454 169.415 481.999 169.688 482.272C170.015 482.599 169.797 484.235 168.27 489.033L166.308 488.379C165.163 487.997 163.963 487.561 163.582 487.288C163.254 487.07 163.472 485.652 164.072 484.18C164.672 482.708 165.381 481.345 165.544 481.073ZM434.125 214.564C434.452 214.237 435.924 213.528 437.396 212.928C438.978 212.328 440.395 212.11 440.668 212.383C440.995 212.71 440.995 213.146 440.668 213.473C440.395 213.746 438.978 214.509 437.396 215.109C435.924 215.709 434.452 215.981 434.125 215.654C433.852 215.382 433.852 214.836 434.125 214.564ZM159.002 493.068C159.492 492.577 160.147 492.359 160.419 492.631C160.746 492.959 160.419 494.485 159.819 496.066C159.002 497.975 158.238 498.956 157.529 499.011C156.821 498.956 156.766 498.138 157.257 496.557C157.693 495.139 158.456 493.613 159.002 493.068ZM435.924 219.307C435.979 219.253 437.396 218.598 439.032 217.835C440.722 217.126 442.194 216.745 442.358 217.017C442.522 217.29 442.631 217.944 442.631 218.38C442.631 218.817 441.158 219.634 439.468 220.125C437.724 220.67 436.251 220.725 436.088 220.234C435.979 219.798 435.87 219.362 435.924 219.307ZM164.181 494.431C164.563 494.049 165.054 493.994 165.326 494.267C165.653 494.594 165.381 496.284 164.781 498.084C164.127 500.047 163.363 501.246 162.873 501.083C162.491 500.919 162.055 500.701 162.055 500.483C162 500.319 162.327 499.011 162.709 497.648C163.145 496.23 163.8 494.812 164.181 494.431ZM174.922 484.78C175.195 484.398 176.394 484.507 177.648 484.998C178.848 485.434 179.829 485.871 179.775 486.034C179.72 486.089 179.284 487.397 178.793 488.869C178.303 490.341 177.758 491.65 177.594 491.814C177.485 491.923 176.34 491.759 175.086 491.377C172.905 490.614 172.85 490.56 173.614 487.942C174.05 486.525 174.65 485.053 174.922 484.78ZM221.812 437.781C222.412 437.181 222.684 437.345 222.848 438.599C223.066 440.017 223.175 440.017 223.666 438.872C224.048 438.054 224.92 437.618 226.01 437.727C227.428 437.836 227.81 438.108 227.864 439.253C227.864 440.453 228.082 440.344 228.846 438.926C229.718 437.291 229.827 437.291 229.882 438.872C229.991 440.507 229.882 440.616 228.082 440.562C226.556 440.562 226.174 440.289 226.065 439.09C225.956 437.89 225.847 437.89 225.247 439.144C224.756 440.071 224.048 440.453 222.957 440.235C222.03 440.071 221.267 439.635 221.212 439.253C221.103 438.926 221.376 438.217 221.812 437.781ZM437.723 224.051C437.833 223.942 439.25 223.396 440.886 222.851C442.467 222.361 444.048 222.197 444.43 222.579C444.757 223.015 444.757 223.56 444.375 223.942C443.994 224.323 442.412 224.923 440.831 225.305C439.25 225.686 437.887 225.632 437.724 225.141C437.614 224.705 437.56 224.214 437.723 224.051ZM169.034 496.448C169.361 496.23 169.961 496.175 170.342 496.339C170.779 496.557 170.615 498.029 169.961 499.665C169.361 501.355 168.543 502.718 168.216 502.827C167.834 502.882 167.289 502.882 166.962 502.664C166.689 502.5 166.907 501.082 167.453 499.556C167.998 498.029 168.707 496.666 169.034 496.448ZM428.673 237.463C428.891 237.245 429.272 237.409 429.436 237.791C429.654 238.227 429.981 238.118 430.254 237.627C430.472 237.082 431.235 236.537 431.944 236.373C432.762 236.1 433.471 236.482 433.743 237.3C434.125 238.445 433.907 238.663 431.671 239.372C430.036 239.917 429.054 239.808 428.727 239.045C428.455 238.445 428.455 237.682 428.673 237.463ZM442.412 228.195C444.212 227.595 445.902 227.322 446.229 227.649C446.502 227.922 446.447 228.413 446.12 228.74C445.847 229.012 444.43 229.667 442.958 230.157C441.486 230.648 440.123 231.03 439.959 230.975C439.741 230.975 439.523 230.539 439.359 230.048C439.25 229.612 440.45 228.849 442.412 228.195ZM174.268 497.429C174.486 497.211 174.922 497.32 175.358 497.648C175.74 498.029 175.522 499.665 174.922 501.355C174.268 503.318 173.505 504.408 172.796 504.463C172.087 504.408 172.087 503.318 172.796 501.192C173.341 499.338 174.05 497.648 174.268 497.429ZM184.464 487.234C184.573 487.016 185.609 487.179 186.754 487.561C187.899 487.942 188.935 488.433 189.044 488.542C189.207 488.706 188.989 490.123 188.499 491.814C188.062 493.449 187.681 494.921 187.626 494.976C187.517 495.085 186.372 494.703 185.009 494.322C183.646 493.831 182.61 493.231 182.61 493.013C182.665 492.74 183.046 491.377 183.428 490.014C183.864 488.597 184.355 487.343 184.464 487.234ZM430.254 243.516C430.417 243.352 431.235 243.407 431.999 243.516C433.144 243.788 433.198 243.952 432.162 244.442C431.326 244.915 431.163 245.406 431.671 245.915C432.162 246.405 432.326 247.114 432.053 247.605C431.617 248.259 431.726 248.368 432.598 248.15C433.144 247.932 433.634 247.114 433.58 246.187C433.634 245.26 433.798 244.77 434.016 244.988C434.234 245.206 434.452 244.661 434.398 243.734C434.507 242.534 434.67 242.261 435.161 242.752C435.543 243.134 435.597 243.952 435.215 244.551C434.943 245.151 434.997 245.751 435.379 245.806C435.706 245.915 436.088 246.623 436.251 247.332C436.469 248.532 436.36 248.532 435.87 247.496C435.543 246.732 435.052 246.351 434.834 246.569C434.616 246.787 434.343 247.714 434.179 248.641C434.016 249.786 434.289 250.385 435.215 250.549C436.124 250.731 436.36 250.604 435.924 250.167C435.543 249.786 435.652 249.349 436.033 249.186C436.524 249.022 437.015 249.295 437.124 249.731C437.342 250.167 437.069 250.876 436.579 251.367C436.142 251.803 435.161 251.803 434.398 251.367C433.634 250.931 432.925 250.985 432.707 251.53C432.489 252.076 432.38 251.858 432.435 251.04C432.489 250.113 432.326 249.186 431.999 248.859C431.726 248.586 431.126 247.332 430.745 246.078C430.308 244.879 430.09 243.679 430.254 243.516ZM444.048 233.102C445.847 232.502 447.483 232.175 447.701 232.393C447.919 232.611 448.083 233.211 448.083 233.647C448.083 234.083 446.556 234.846 444.811 235.283C442.958 235.719 441.322 236.046 441.104 235.937C440.886 235.719 440.722 235.337 440.777 234.955C440.831 234.465 442.303 233.647 444.048 233.102ZM179.175 499.065C179.393 498.847 179.829 498.956 180.211 499.338C180.647 499.665 180.593 501.137 180.211 502.609C179.884 504.027 179.284 505.39 178.957 505.717C178.684 505.99 178.03 505.99 177.594 505.662C177.158 505.335 177.267 503.809 177.812 502.282C178.357 500.755 178.957 499.283 179.175 499.065ZM442.031 239.372C442.194 239.208 443.667 238.717 445.302 238.281C446.992 237.791 448.519 237.682 448.792 237.845C449.01 238.063 449.282 238.554 449.337 238.936C449.391 239.317 448.083 239.972 446.393 240.462C444.757 240.898 443.067 240.953 442.576 240.462C442.14 240.026 441.922 239.481 442.031 239.372ZM193.733 489.851C194.005 489.578 196.841 489.905 199.948 490.505C203.056 491.105 208.454 492.032 211.834 492.468C215.269 492.959 223.23 493.613 229.554 493.831C235.988 494.049 244.875 494.104 249.401 493.831C253.981 493.613 261.559 492.795 266.303 492.195C271.046 491.486 278.516 490.123 282.878 489.142C287.294 488.106 295.037 485.925 300.107 484.235C305.178 482.545 312.648 479.764 316.737 477.965C320.826 476.274 326.933 473.33 330.259 471.64C333.584 469.841 339.636 466.297 343.671 463.789C347.706 461.172 353.758 457.082 357.138 454.574C360.519 452.175 364.499 448.849 365.971 447.377C367.498 445.851 369.024 444.76 369.406 444.815C369.733 444.924 370.169 445.469 370.333 446.069C370.66 446.941 369.515 448.086 364.608 452.012C361.282 454.683 355.993 458.664 352.831 460.954C349.669 463.134 344.325 466.624 340.89 468.641C337.51 470.604 330.749 474.203 325.951 476.602C321.099 478.946 314.011 482.108 310.085 483.635C306.214 485.107 298.417 487.67 292.801 489.251C287.131 490.778 279.879 492.577 276.608 493.231C273.391 493.831 266.521 494.812 261.396 495.467C256.271 496.012 246.402 496.612 239.369 496.666C232.335 496.721 222.194 496.284 216.796 495.685C211.453 495.03 204.038 493.94 200.221 493.177C196.513 492.413 193.406 491.486 193.351 491.105C193.297 490.723 193.46 490.123 193.733 489.851ZM184.082 500.701C184.3 500.483 184.845 500.374 185.227 500.537C185.718 500.701 185.772 502.064 185.391 503.645C185.009 505.226 184.409 506.807 184.028 507.189C183.646 507.571 183.101 507.68 182.774 507.353C182.501 507.08 182.61 505.553 182.992 503.972C183.428 502.446 183.919 500.973 184.082 500.701ZM446.883 243.461C448.737 242.916 450.427 242.643 450.591 242.807C450.7 243.025 450.809 243.57 450.809 244.006C450.809 244.442 449.391 245.097 447.701 245.587C446.011 245.969 444.43 246.242 444.321 246.242C444.103 246.242 443.885 245.806 443.721 245.315C443.612 244.77 444.757 244.061 446.883 243.461ZM189.48 501.737C189.698 501.519 190.189 501.682 190.57 502.064C191.007 502.391 190.952 503.863 190.57 505.335C190.243 506.753 189.644 508.116 189.316 508.443C189.044 508.716 188.553 508.77 188.171 508.498C187.844 508.28 187.899 506.698 188.335 505.063C188.717 503.482 189.262 501.955 189.48 501.737ZM444.975 249.622C445.193 249.404 446.665 248.913 448.246 248.532C449.828 248.15 451.3 248.205 451.572 248.695C451.845 249.186 451.845 249.622 451.572 249.786C451.3 249.949 449.719 250.331 448.028 250.822C446.393 251.258 444.975 251.258 444.811 250.767C444.702 250.331 444.757 249.84 444.975 249.622ZM194.714 503.154C195.096 502.773 195.587 502.718 195.859 502.991C196.186 503.318 196.186 504.736 195.859 506.262C195.587 507.734 195.096 509.206 194.769 509.534C194.496 509.806 193.951 509.806 193.515 509.479C193.078 509.152 192.969 507.734 193.351 506.371C193.733 505.008 194.333 503.536 194.714 503.154ZM446.12 254.911C446.447 254.584 447.919 254.093 449.391 253.82C450.918 253.493 452.39 253.548 452.663 253.82C452.99 254.148 452.99 254.693 452.608 255.074C452.227 255.456 450.755 255.947 449.337 256.165C447.919 256.383 446.447 256.328 446.12 256.001C445.847 255.729 445.847 255.183 446.12 254.911ZM200.166 503.7C200.603 503.591 201.202 503.754 201.421 504.081C201.693 504.354 201.584 506.099 201.202 507.789C200.712 509.915 200.112 510.951 199.403 510.897C198.694 510.951 198.531 509.697 198.803 507.462C199.131 505.608 199.73 503.918 200.166 503.7ZM449.828 259.164C451.572 258.727 453.263 258.782 453.644 259.164C454.026 259.545 454.026 260.091 453.644 260.472C453.263 260.854 451.627 261.29 449.991 261.508C448.301 261.672 447.047 261.399 446.938 260.854C446.774 260.145 447.756 259.6 449.828 259.164ZM204.801 505.063C205.019 504.845 205.564 504.736 205.946 504.899C206.437 505.063 206.655 506.589 206.382 508.28C206.164 510.024 205.782 511.605 205.564 511.824C205.346 512.042 204.746 511.987 204.256 511.605C203.765 511.224 203.601 509.752 203.929 508.225C204.147 506.698 204.583 505.281 204.801 505.063ZM447.701 265.434C447.919 265.216 449.391 264.725 450.973 264.343C452.554 263.962 454.026 263.907 454.299 264.18C454.626 264.507 454.789 264.998 454.735 265.379C454.626 265.706 453.263 266.306 451.572 266.579C449.937 266.906 448.355 266.851 447.974 266.47C447.538 266.143 447.483 265.652 447.701 265.434ZM210.908 505.499C211.671 505.499 211.943 506.426 211.671 508.443C211.562 510.079 211.126 511.714 210.744 512.096C210.362 512.478 209.763 512.641 209.435 512.423C209.108 512.205 209.054 510.515 209.326 508.825C209.617 506.644 210.144 505.535 210.908 505.499ZM439.032 278.683C440.395 278.628 441.595 278.956 441.649 279.337C441.704 279.719 441.54 280.319 441.158 280.7C440.777 281.082 439.632 281.355 438.541 281.355C437.124 281.355 436.633 281.082 436.578 280.046C436.578 278.956 437.069 278.683 439.032 278.683ZM451.79 269.632C453.59 269.359 455.334 269.359 455.553 269.687C455.771 269.905 455.662 270.45 455.28 270.832C454.898 271.213 453.317 271.704 451.79 271.922C450.046 272.14 448.901 271.868 448.683 271.213C448.519 270.395 449.282 269.959 451.79 269.632ZM215.433 506.426C215.815 506.044 216.251 505.935 216.523 506.099C216.741 506.317 216.905 508.007 216.905 509.752C216.905 512.369 216.578 513.132 215.597 513.132C214.506 513.132 214.288 512.478 214.452 510.133C214.615 508.443 215.051 506.807 215.433 506.426ZM437.287 285.117C437.778 284.953 438.596 285.335 439.141 285.989C439.832 286.752 440.341 286.752 440.668 285.989C441.049 285.389 441.431 285.117 441.649 285.335C441.867 285.553 442.031 287.679 442.031 294.44H439.85C438.65 294.44 437.396 294.167 437.015 293.786C436.633 293.404 436.688 292.695 437.124 292.259C437.614 291.768 437.723 291.223 437.396 290.896C437.124 290.623 437.396 290.242 437.996 290.078C438.596 289.915 438.65 289.751 438.105 289.642C437.614 289.588 437.015 288.552 436.851 287.407C436.579 286.262 436.851 285.226 437.287 285.117ZM449.173 275.848C449.282 275.739 450.645 275.357 452.118 275.084C453.644 274.757 455.225 274.921 455.662 275.357C456.152 275.848 456.37 276.284 456.207 276.447C456.098 276.557 454.517 276.938 452.663 277.265C450.918 277.592 449.337 277.429 449.173 276.938C449.064 276.502 449.01 276.011 449.173 275.848ZM220.613 506.698C220.831 506.48 221.267 506.371 221.649 506.426C222.03 506.48 222.303 508.061 222.303 509.806C222.412 512.205 221.976 513.187 220.94 513.568C219.686 514.059 219.631 513.677 219.849 510.624C220.067 508.661 220.395 506.916 220.613 506.698ZM449.555 280.918C449.937 280.537 451.681 280.319 453.372 280.373C455.116 280.482 456.425 280.918 456.207 281.355C456.098 281.791 454.571 282.227 452.826 282.336C451.136 282.39 449.5 282.281 449.282 282.063C449.064 281.845 449.173 281.3 449.555 280.918ZM226.774 507.189C227.537 507.189 227.81 508.225 227.537 510.679C227.319 513.078 226.883 514.168 226.119 514.168C225.411 514.114 225.084 513.023 225.302 510.624C225.574 508.28 226.01 507.189 226.774 507.189ZM449.828 286.098C450.046 285.88 451.681 285.771 453.372 285.825C455.116 285.935 456.698 286.425 456.861 287.025C457.079 287.679 455.989 288.006 453.481 287.897C451.409 287.897 449.664 287.57 449.61 287.188C449.555 286.807 449.61 286.316 449.828 286.098ZM230.863 507.244C231.136 506.971 231.735 506.916 232.117 507.08C232.608 507.244 232.935 508.879 232.826 510.733C232.662 512.859 232.281 514.114 231.572 514.168C230.917 514.168 230.536 513.023 230.481 510.897C230.481 509.152 230.645 507.462 230.863 507.244ZM449.882 291.605C450.1 291.387 451.572 291.114 453.153 291.06C454.68 290.951 456.207 291.169 456.479 291.441C456.807 291.768 456.752 292.259 456.37 292.641C455.989 293.022 454.571 293.35 453.263 293.35C451.845 293.35 450.482 293.077 450.1 292.695C449.719 292.314 449.664 291.823 449.882 291.605ZM236.315 507.244C236.588 506.971 237.079 506.916 237.46 506.971C237.842 507.026 238.169 508.77 238.169 510.842C238.224 513.405 237.951 514.441 237.242 514.277C236.697 514.059 236.152 512.532 236.043 510.788C235.988 509.097 236.097 507.462 236.315 507.244ZM449.937 296.894C450.264 296.567 451.79 296.457 453.372 296.512C454.953 296.566 456.425 296.839 456.643 297.057C456.861 297.275 456.807 297.766 456.425 298.148C456.043 298.529 454.408 298.638 452.881 298.42C451.245 298.202 449.828 297.875 449.664 297.711C449.555 297.602 449.664 297.166 449.937 296.894ZM241.768 507.244C242.04 506.971 242.531 506.916 242.913 506.971C243.294 507.025 243.621 508.77 243.621 510.842C243.676 513.405 243.403 514.441 242.694 514.277C242.149 514.059 241.604 512.532 241.495 510.788C241.44 509.097 241.549 507.462 241.768 507.244ZM452.663 301.474C454.353 301.528 456.043 301.801 456.425 302.182C456.752 302.618 456.916 303.109 456.698 303.327C456.479 303.545 454.844 303.654 453.154 303.6C451.409 303.491 449.937 303 449.773 302.509C449.664 301.855 450.7 301.474 452.663 301.474ZM247.22 507.244C247.492 506.971 247.983 507.135 248.365 507.516C248.747 507.898 249.074 509.315 249.074 510.624C249.074 512.042 248.801 513.405 248.419 513.786C248.038 514.168 247.438 514.332 247.165 514.168C246.947 514.059 246.729 512.532 246.729 510.788C246.784 509.097 247.002 507.462 247.22 507.244ZM435.761 321.102C436.306 320.775 437.396 320.557 438.105 320.72C438.923 320.884 439.795 321.647 440.232 322.41C440.94 323.883 440.886 323.937 438.16 323.937C436.469 323.992 435.27 323.555 435.052 322.901C434.888 322.301 435.27 321.484 435.761 321.102ZM449.282 307.362C449.5 307.144 451.136 307.035 452.826 307.089C454.571 307.198 456.098 307.635 456.207 308.071C456.425 308.507 455.116 308.943 453.372 309.052C451.681 309.107 449.937 308.889 449.555 308.507C449.173 308.125 449.064 307.58 449.282 307.362ZM252.072 506.753C252.345 506.48 252.89 506.589 253.272 506.971C253.654 507.353 254.09 508.988 254.253 510.57C254.471 512.314 254.199 513.568 253.599 513.732C252.945 513.841 252.454 512.805 252.072 510.57C251.854 508.716 251.8 507.026 252.072 506.753ZM434.779 327.427C434.943 327.263 435.27 327.263 435.488 327.481C435.761 327.645 436.469 328.244 437.069 328.844C438.051 329.717 438.214 329.662 437.887 328.572C437.669 327.59 437.778 327.372 438.596 327.645C439.196 327.808 439.523 328.681 439.468 329.498C439.359 330.371 439.141 330.807 438.923 330.589C438.705 330.371 438.487 331.134 438.487 332.334C438.541 333.915 438.16 334.624 437.124 334.787C436.142 335.005 436.033 335.332 436.578 336.096C437.233 336.968 436.906 337.077 432.489 336.15L434.616 334.896C436.306 333.86 436.469 333.479 435.706 332.715C435.106 332.225 434.398 332.061 434.016 332.443C433.634 332.824 433.634 331.952 433.907 330.48C434.289 329.008 434.67 327.645 434.779 327.427ZM449.282 312.814C449.5 312.596 451.136 312.487 452.826 312.542C454.571 312.651 456.098 313.087 456.207 313.523C456.425 313.959 455.116 314.396 453.372 314.505C451.681 314.559 449.937 314.341 449.555 313.959C449.173 313.578 449.064 313.032 449.282 312.814ZM257.416 506.862C257.579 506.698 258.07 506.426 258.452 506.371C258.833 506.317 259.324 507.789 259.542 509.643C259.76 511.496 259.597 513.078 259.269 513.187C258.888 513.241 258.397 513.187 258.07 512.969C257.797 512.696 257.416 511.333 257.307 509.915C257.143 508.443 257.198 507.08 257.416 506.862ZM299.726 466.733C300.216 466.242 302.125 465.424 304.087 464.77C305.941 464.116 310.03 462.426 313.138 461.063C316.246 459.59 322.08 456.592 326.115 454.411C330.149 452.121 336.692 448.086 340.563 445.414C344.489 442.688 351.086 437.727 355.121 434.346C359.265 430.966 365.753 424.805 369.624 420.715C376.058 413.955 376.712 413.409 377.585 414.282C378.457 415.154 377.694 416.027 368.043 425.677C360.628 433.092 355.067 437.999 349.123 442.525C344.489 445.96 336.583 451.248 331.458 454.302C326.387 457.3 319.517 461.008 316.246 462.535C312.975 464.061 308.068 466.133 305.341 467.115C302.561 468.151 299.998 468.641 299.617 468.26C299.235 467.878 299.289 467.169 299.726 466.733ZM448.737 317.721C448.955 317.503 450.7 317.503 452.554 317.721C455.062 318.049 455.88 318.43 455.662 319.194C455.443 319.848 453.971 320.12 452.009 319.902C450.155 319.684 448.574 319.194 448.519 318.812C448.465 318.43 448.519 317.94 448.737 317.721ZM262.977 505.662C263.25 505.39 263.686 505.39 263.904 505.608C264.122 505.826 264.558 507.353 264.885 508.988C265.158 510.679 265.213 512.151 264.994 512.369C264.776 512.587 264.231 512.696 263.74 512.532C263.359 512.369 262.868 510.897 262.704 509.206C262.595 507.571 262.704 505.935 262.977 505.662ZM451.136 322.956C453.099 323.174 454.844 323.501 455.007 323.773C455.225 323.992 455.171 324.482 454.789 324.864C454.408 325.246 452.772 325.355 451.245 325.137C449.61 324.918 448.192 324.264 448.028 323.664C447.81 322.901 448.846 322.738 451.136 322.956ZM267.939 505.063C268.211 504.79 268.702 504.736 269.084 504.79C269.411 504.899 269.901 506.371 270.174 508.061C270.392 509.806 270.338 511.387 270.011 511.715C269.738 511.987 269.247 512.042 268.92 511.714C268.647 511.442 268.211 509.915 267.939 508.334C267.721 506.807 267.666 505.335 267.939 505.063ZM447.101 328.081C447.374 327.917 449.01 327.917 450.809 328.299C452.99 328.662 454.08 329.208 454.08 329.935C454.08 330.589 452.881 330.807 450.536 330.425C448.574 330.098 446.992 329.498 446.883 329.171C446.829 328.79 446.883 328.299 447.101 328.081ZM274.045 504.299C274.809 504.299 275.245 505.172 275.626 507.189C275.845 508.825 275.681 510.406 275.19 510.897C274.754 511.333 274.209 511.551 274.045 511.387C273.773 511.224 273.445 509.588 273.282 507.68C273.064 505.39 273.282 504.299 274.045 504.299ZM449.064 333.424C450.645 333.588 452.172 334.024 452.554 334.405C452.935 334.787 453.154 335.332 453.099 335.714C452.99 336.041 451.518 336.096 449.828 335.714C448.083 335.387 446.611 334.569 446.502 334.024C446.393 333.37 447.265 333.151 449.064 333.424ZM278.244 503.482C278.516 503.209 279.061 503.1 279.443 503.154C279.77 503.263 280.37 504.627 280.643 506.317C280.97 507.952 280.915 509.534 280.534 509.915C280.152 510.297 279.716 510.515 279.443 510.351C279.225 510.242 278.734 508.77 278.353 507.08C278.08 505.39 277.971 503.754 278.244 503.482ZM445.52 338.495C445.738 338.277 447.265 338.386 449.064 338.767C450.754 339.149 452.281 339.585 452.39 339.694C452.554 339.858 452.336 340.294 451.845 340.785C451.409 341.221 449.828 341.275 448.246 340.894C446.665 340.512 445.357 339.858 445.302 339.476C445.193 339.149 445.248 338.658 445.52 338.495ZM283.641 502.446C283.968 502.118 284.459 502.173 284.732 502.446C285.059 502.773 285.604 504.19 286.04 505.608C286.367 507.026 286.422 508.498 286.04 508.879C285.604 509.206 285.113 509.37 284.895 509.152C284.677 508.934 284.187 507.462 283.805 505.881C283.423 504.299 283.369 502.718 283.641 502.446ZM425.674 362.594C426.165 362.103 427.364 362.103 428.346 362.43C429.654 362.867 430.145 363.357 430.09 364.175C430.036 364.993 429.436 365.266 428.127 365.047C427.091 364.884 425.946 364.502 425.565 364.121C425.183 363.739 425.238 363.03 425.674 362.594ZM444.593 343.674C444.866 343.402 446.338 343.565 447.919 343.947C449.5 344.329 450.973 344.819 451.191 345.037C451.409 345.256 451.245 345.746 450.754 346.237C450.318 346.673 448.628 346.728 446.938 346.237C445.302 345.801 443.994 345.147 444.048 344.765C444.157 344.438 444.321 343.947 444.593 343.674ZM289.366 500.973C290.13 500.973 290.729 501.9 291.165 503.863C291.493 505.39 291.547 507.08 291.275 507.571C291.056 508.007 290.511 508.225 290.075 507.898C289.693 507.625 289.094 505.935 288.821 504.245C288.439 502.009 288.548 501.028 289.366 500.973ZM423.275 368.373C423.547 368.101 423.875 368.21 424.093 368.646C424.256 369.028 424.856 369.627 425.51 369.955C426.11 370.227 426.655 370.009 426.819 369.409C427.001 368.719 427.255 368.755 427.582 369.518C427.855 370.118 427.582 370.936 427.037 371.372C426.492 371.808 426.274 372.354 426.601 372.681C426.873 372.953 426.873 373.499 426.601 373.771C426.274 374.098 425.892 373.935 425.783 373.499C425.619 373.008 425.129 373.062 424.693 373.499C424.256 373.935 424.256 374.916 424.692 375.679C425.129 376.443 425.238 377.315 424.965 377.588C424.638 377.915 423.493 377.751 422.512 377.315C421.421 376.879 420.44 376.116 420.331 375.679C420.167 375.189 420.276 374.643 420.494 374.425C420.767 374.153 421.148 374.316 421.367 374.862C421.639 375.352 421.748 375.025 421.639 374.044C421.476 373.117 421.857 371.972 422.403 371.427C422.893 370.936 423.166 370.118 423.057 369.682C422.893 369.191 423.057 368.591 423.275 368.373ZM442.849 348.691C443.012 348.527 444.702 348.8 446.556 349.345C448.628 349.89 449.937 350.653 449.773 351.144C449.555 351.58 449.282 351.962 449.173 351.962C449.01 352.016 447.483 351.689 445.793 351.308C444.048 350.871 442.631 350.217 442.631 349.781C442.576 349.399 442.74 348.909 442.849 348.691ZM294.11 499.719C294.382 499.447 294.873 499.392 295.2 499.719C295.473 499.992 296.073 501.573 296.563 503.263C296.999 504.899 296.945 506.371 296.563 506.535C296.073 506.698 295.527 506.589 295.309 506.371C295.091 506.153 294.6 504.681 294.219 503.1C293.837 501.519 293.783 500.047 294.11 499.719ZM441.867 354.143C442.14 353.87 443.667 353.87 445.248 354.252C446.774 354.688 448.246 355.179 448.519 355.342C448.737 355.56 448.574 356.16 448.137 356.596C447.701 357.033 446.175 357.033 444.866 356.596C443.503 356.106 442.14 355.506 441.867 355.233C441.54 354.906 441.54 354.47 441.867 354.143ZM299.508 498.247C299.998 498.302 300.925 499.665 301.47 501.301C302.07 502.991 302.397 504.517 302.125 504.79C301.907 505.008 301.361 505.008 300.925 504.899C300.434 504.736 299.78 503.209 299.344 501.464C298.908 499.719 299.017 498.302 299.508 498.247ZM440.341 358.941C440.559 358.723 442.249 358.995 444.048 359.595C446.829 360.522 447.211 360.795 446.774 361.776C446.393 362.485 445.139 362.539 443.067 361.885C441.322 361.34 439.904 360.577 439.904 360.14C439.85 359.759 440.068 359.213 440.341 358.941ZM304.415 496.612C304.96 496.612 305.778 497.866 306.323 499.501C306.868 501.028 307.304 502.446 307.25 502.609C307.195 502.773 306.759 503.1 306.377 503.263C305.887 503.427 305.123 502.118 304.469 500.047C303.924 498.084 303.869 496.612 304.415 496.612ZM438.487 363.957C438.65 363.793 440.177 364.121 441.867 364.72C443.83 365.375 444.866 366.192 444.921 366.901C444.921 367.555 443.776 367.61 441.649 366.901C439.85 366.301 438.269 365.484 438.269 365.047C438.214 364.666 438.378 364.175 438.487 363.957ZM309.594 495.03C310.358 495.03 311.012 496.012 311.666 497.975C312.211 499.501 312.375 501.083 312.102 501.355C311.775 501.682 311.284 501.628 311.012 501.355C310.685 501.028 310.03 499.501 309.431 497.92C308.722 495.903 308.831 495.03 309.594 495.03ZM436.688 369.137C437.124 368.7 438.705 368.864 440.286 369.573C441.867 370.282 443.176 371.154 443.285 371.481C443.394 371.808 443.339 372.299 443.067 372.572C442.849 372.79 441.377 372.517 439.795 372.026C438.214 371.427 436.688 370.772 436.415 370.5C436.088 370.173 436.251 369.573 436.688 369.137ZM313.629 493.177C313.793 493.013 314.229 492.795 314.61 492.74C315.047 492.631 315.919 494.049 316.573 495.794C317.282 497.484 317.664 499.065 317.391 499.338C317.173 499.556 316.628 499.556 316.192 499.447C315.701 499.283 314.883 497.92 314.338 496.394C313.738 494.812 313.465 493.34 313.629 493.177ZM409.099 400.324C410.135 400.596 411.28 401.087 411.716 401.414C412.098 401.796 411.934 402.614 411.334 403.214C410.571 403.977 409.644 403.922 408.39 403.105C407.354 402.396 406.754 401.469 406.918 400.869C407.082 400.16 407.954 399.942 409.099 400.324ZM403.865 405.34C404.083 405.013 404.464 405.067 404.792 405.395C405.064 405.667 404.792 406.049 404.246 406.158C403.483 406.376 403.538 406.649 404.519 406.976C405.282 407.303 406.1 407.794 406.427 408.121C406.7 408.393 407.027 408.284 407.245 407.848C407.354 407.412 407.736 407.248 408.063 407.575C408.336 407.848 407.954 408.448 407.245 408.938C406.482 409.375 405.991 410.083 406.155 410.574C406.264 411.01 405.827 411.665 405.173 412.101C404.519 412.428 403.865 413.409 403.81 414.227C403.701 415.536 403.701 415.536 403.538 413.955C403.374 412.373 403.265 412.264 402.393 413.137C401.902 413.627 401.248 413.846 400.975 413.573C400.648 413.246 400.757 412.919 401.248 412.755C401.629 412.592 401.793 412.21 401.52 411.937C401.193 411.61 400.484 411.556 399.994 411.828C399.503 411.992 399.721 411.774 400.539 411.283C401.357 410.683 401.793 410.029 401.52 409.756C401.193 409.429 401.52 408.448 402.229 407.521C402.992 406.539 403.701 405.613 403.865 405.34ZM434.834 374.153C435.215 373.771 436.742 373.989 438.105 374.698C439.577 375.407 440.886 376.388 441.049 376.988C441.268 377.642 440.341 377.697 438.541 377.097C436.906 376.552 435.324 375.843 434.888 375.516C434.507 375.134 434.561 374.534 434.834 374.153ZM318.972 491.214C319.408 490.778 319.954 490.669 320.281 490.996C320.553 491.268 321.208 492.686 321.698 494.158C322.189 495.63 322.571 496.993 322.516 497.157C322.462 497.32 322.026 497.648 321.644 497.811C321.099 497.92 320.335 496.939 319.517 495.03C318.809 493.34 318.591 491.595 318.972 491.214ZM388.544 422.842C388.653 422.624 389.252 423.115 389.743 423.932C390.234 424.75 391.379 426.986 392.251 428.839C393.015 430.693 393.56 432.547 393.342 432.874C393.233 433.201 391.052 432.765 388.544 432.002C386.036 431.129 383.8 430.203 383.528 429.93C383.2 429.603 384.182 427.967 385.599 426.331C387.126 424.696 388.435 423.06 388.544 422.842ZM432.707 378.569C432.925 378.351 434.507 378.733 436.142 379.496C437.778 380.259 439.25 380.968 439.414 381.132C439.523 381.241 439.359 381.732 438.977 382.113C438.65 382.44 436.906 382.222 435.161 381.568C433.471 380.859 432.053 379.987 432.162 379.66C432.162 379.332 432.435 378.842 432.707 378.569ZM323.879 489.578C324.316 489.142 324.861 489.033 325.188 489.36C325.46 489.633 326.224 491.159 326.933 492.74C327.75 494.649 327.751 495.63 327.096 495.63C326.387 495.576 325.461 494.649 324.588 492.904C323.77 491.432 323.498 489.96 323.879 489.578ZM373.713 439.744C375.186 438.272 376.549 437.127 376.712 437.291C376.821 437.4 377.585 439.362 378.348 441.652C379.057 443.888 379.602 445.851 379.438 446.014C379.275 446.178 377.53 445.633 375.622 444.924C373.659 444.16 371.805 443.288 371.532 443.015C371.205 442.688 372.187 441.271 373.713 439.744ZM430.635 383.912C431.181 383.367 432.489 383.585 434.125 384.458C435.924 385.494 436.742 386.311 436.742 387.075C436.688 387.784 436.142 387.893 434.888 387.293C433.852 386.802 432.217 386.039 431.344 385.603C430.145 384.948 429.981 384.567 430.635 383.912ZM328.677 486.961C329.004 486.634 329.713 487.016 330.259 487.779C330.804 488.542 331.622 490.014 332.058 490.887C332.439 491.814 332.658 492.795 332.385 493.068C332.167 493.286 331.731 493.504 331.294 493.613C330.913 493.667 330.04 492.359 329.332 490.669C328.623 488.978 328.296 487.343 328.677 486.961ZM428.236 388.492C428.509 388.22 429.545 388.274 430.472 388.656C431.344 389.092 432.871 389.855 433.743 390.292C434.834 390.946 435.106 391.437 434.507 392.036C434.07 392.473 432.598 392.309 431.344 391.6C430.036 390.946 428.727 390.074 428.346 389.692C427.964 389.31 427.909 388.819 428.236 388.492ZM333.366 484.453C333.639 484.18 334.184 484.18 334.566 484.562C334.948 484.944 335.82 486.252 336.474 487.561C337.128 488.869 337.347 490.287 336.91 490.723C336.311 491.323 335.82 491.05 335.166 489.96C334.729 489.087 333.912 487.615 333.53 486.688C333.148 485.762 333.039 484.78 333.366 484.453ZM426.165 392.745C426.492 392.418 427.855 392.8 429.218 393.727C430.636 394.599 431.944 395.471 432.162 395.689C432.38 395.908 432.271 396.453 431.89 396.834C431.562 397.162 430.036 396.834 428.509 396.071C427.037 395.362 425.728 394.381 425.674 393.999C425.619 393.618 425.837 393.072 426.165 392.745ZM337.619 482.272C337.783 482.108 338.273 481.945 338.655 481.89C339.091 481.781 340.127 482.926 341 484.453C341.981 486.089 342.308 487.506 341.817 487.997C341.381 488.433 340.782 488.597 340.563 488.379C340.345 488.161 339.527 486.797 338.71 485.325C337.892 483.853 337.401 482.49 337.619 482.272ZM423.438 397.652C423.657 397.434 424.856 397.761 426.165 398.416C427.473 399.07 428.782 399.942 429.163 400.324C429.545 400.706 429.545 401.36 429.163 401.741C428.836 402.069 427.146 401.796 425.565 400.978C423.929 400.215 422.675 399.288 422.784 398.852C422.839 398.47 423.166 397.925 423.438 397.652ZM342.635 479.546C342.962 479.219 343.671 479.491 344.271 480.091C344.871 480.691 345.689 482.054 346.179 483.09C346.561 484.126 346.725 485.271 346.452 485.543C346.125 485.871 345.143 485.107 344.162 483.69C343.181 482.381 342.363 481.018 342.254 480.691C342.199 480.309 342.363 479.818 342.635 479.546ZM420.93 402.341C421.639 401.632 422.457 401.905 424.365 403.486C425.728 404.631 426.873 405.885 426.873 406.212C426.819 406.485 426.383 406.703 425.838 406.703C425.238 406.649 423.711 405.885 422.403 404.904C420.385 403.541 420.167 403.105 420.93 402.341ZM347.324 477.038C347.76 476.602 348.36 476.547 348.742 476.929C349.124 477.31 349.996 478.619 350.65 479.928C351.304 481.236 351.632 482.545 351.359 482.817C351.032 483.144 350.487 483.035 350.105 482.654C349.723 482.272 348.742 481.073 347.979 479.873C347.161 478.728 346.888 477.474 347.324 477.038ZM351.413 474.039C351.686 473.766 352.177 473.603 352.558 473.766C352.94 473.93 353.922 475.13 354.739 476.493C355.666 477.965 355.939 479.328 355.448 479.819C354.958 480.309 354.358 480.146 353.867 479.437C353.485 478.728 352.668 477.365 352.013 476.384C351.414 475.348 351.141 474.312 351.413 474.039ZM418.095 407.357C418.586 406.867 419.622 406.921 420.44 407.412C421.203 407.957 422.457 408.775 423.111 409.32C423.766 409.756 424.038 410.574 423.766 411.065C423.493 411.556 422.566 411.392 421.476 410.738C420.494 410.084 419.186 409.211 418.477 408.83C417.641 408.43 417.514 407.939 418.095 407.357ZM415.26 411.283C415.478 411.065 416.078 411.01 416.569 411.283C417.059 411.556 418.422 412.373 419.567 413.191C421.039 414.227 421.476 414.882 420.985 415.372C420.658 415.699 418.968 415.427 417.386 414.609C415.751 413.846 414.497 412.919 414.606 412.483C414.66 412.101 414.987 411.556 415.26 411.283ZM356.266 471.367C356.593 471.04 357.357 471.367 358.011 472.022C358.665 472.676 359.646 473.985 360.192 474.748C360.682 475.566 360.791 476.656 360.355 477.092C359.919 477.529 359.319 477.692 359.101 477.474C358.883 477.256 358.065 475.893 357.193 474.475C356.375 473.003 355.993 471.64 356.266 471.367ZM412.806 415.481C413.243 415.59 414.66 416.354 416.023 417.281C417.932 418.644 418.259 419.189 417.605 419.843C417.059 420.388 415.969 420.061 414.606 419.025C413.352 418.098 412.316 416.953 412.207 416.408C412.098 415.863 412.37 415.481 412.806 415.481ZM360.628 468.096C360.955 467.769 361.718 468.096 362.373 468.75C363.027 469.405 364.008 470.713 364.554 471.477C365.044 472.294 365.153 473.385 364.717 473.821C364.063 474.475 363.518 474.148 362.155 472.24C361.228 470.877 360.355 469.568 360.301 469.187C360.192 468.859 360.355 468.369 360.628 468.096ZM364.717 465.097C365.153 464.661 365.808 464.552 366.189 464.934C366.571 465.315 367.498 466.569 368.261 467.769C369.024 469.077 369.297 470.332 368.806 470.822C368.152 471.476 367.716 471.149 366.625 469.405C365.862 468.205 364.935 466.951 364.554 466.569C364.172 466.188 364.281 465.533 364.717 465.097ZM408.608 425.241C410.026 426.113 411.28 427.258 411.498 427.804C411.716 428.349 411.716 429.003 411.443 429.276C411.225 429.494 409.753 428.894 408.172 427.858C405.882 426.44 405.446 425.895 405.718 424.968C405.991 424.041 406.7 424.096 408.608 425.241ZM409.426 420.388C410.189 419.625 410.953 419.734 412.37 420.934C413.461 421.806 414.606 422.842 414.987 423.224C415.369 423.605 415.315 424.314 414.878 424.75C414.442 425.186 413.733 425.241 413.352 424.859C412.97 424.478 411.716 423.551 410.516 422.787C408.772 421.588 408.608 421.206 409.426 420.388ZM368.97 461.935C369.406 461.499 370.115 461.771 370.715 462.589C371.314 463.298 372.35 464.552 373.005 465.206C373.822 466.024 373.932 466.787 373.277 467.442C372.514 468.205 372.132 468.042 370.987 466.133C370.224 464.934 369.297 463.68 368.915 463.298C368.534 462.916 368.588 462.317 368.97 461.935ZM402.774 428.131C403.101 427.804 404.192 428.24 405.337 429.058C406.427 429.93 407.736 431.238 408.118 432.056C408.554 432.929 408.445 433.474 407.845 433.419C407.245 433.365 405.718 432.602 404.355 431.784C402.992 430.966 402.011 429.875 402.12 429.439C402.12 429.003 402.502 428.403 402.774 428.131ZM373.223 458.773C373.495 458.5 374.804 459.372 376.167 460.735C377.966 462.535 378.402 463.407 377.803 464.007C377.366 464.443 376.658 464.498 376.276 464.116C375.894 463.734 374.913 462.535 374.15 461.335C373.332 460.19 372.95 459.045 373.223 458.773ZM377.039 454.956C377.312 454.683 378.621 455.556 379.984 456.919C381.783 458.718 382.219 459.59 381.619 460.19C381.183 460.626 380.474 460.681 380.093 460.299C379.711 459.918 378.73 458.718 377.966 457.519C377.148 456.374 376.767 455.229 377.039 454.956ZM396.45 436.091C396.886 435.982 398.249 436.909 399.394 438.054C400.866 439.635 401.302 440.507 400.702 441.107C400.103 441.707 399.176 441.325 397.649 439.908C396.45 438.817 395.523 437.563 395.577 437.181C395.632 436.691 396.068 436.255 396.45 436.091ZM399.339 432.656C399.612 432.383 400.321 432.329 400.975 432.656C401.575 432.929 402.774 433.91 403.701 434.837C404.792 435.927 405.064 436.745 404.519 437.291C403.919 437.89 403.047 437.454 401.248 435.655C399.885 434.292 399.012 432.983 399.339 432.656ZM381.183 451.903C381.619 451.467 382.601 451.903 384.073 453.375C385.654 454.956 386.036 455.774 385.436 456.374C384.836 456.973 384.018 456.592 382.546 454.901C381.183 453.429 380.692 452.393 381.183 451.903ZM384.836 448.25C385.49 447.595 386.308 447.977 388.162 449.831C389.852 451.521 390.343 452.448 389.689 452.775C389.307 453.048 387.78 452.284 386.417 451.139C384.509 449.558 384.182 448.904 384.836 448.25ZM388.707 444.379C389.307 443.779 390.125 444.16 391.706 445.742C392.906 446.941 393.723 448.304 393.614 448.74C393.396 449.177 392.851 449.286 392.251 449.013C391.597 448.686 390.397 447.704 389.525 446.832C388.435 445.742 388.162 444.924 388.707 444.379ZM392.469 440.616C393.124 439.962 393.778 440.289 395.468 442.198C396.668 443.506 397.431 444.924 397.158 445.196C396.831 445.524 395.468 444.706 394.105 443.561C392.142 441.925 391.815 441.271 392.469 440.616Z" fill="#F4F4F4"/>
</svg>
