<svg width="779" height="730" viewBox="0 0 779 730" fill="none" xmlns="http://www.w3.org/2000/svg">
<path d="M374.333 6.0609C375.291 6.77999 375.651 6.0609 375.531 3.66393C375.411 0.428017 375.651 0.308169 380.924 0.068472C385.479 -0.171225 386.437 0.18832 385.958 1.6265C385.598 2.58529 385.838 3.42423 386.557 3.42423C387.156 3.42423 387.756 4.50287 387.756 5.8212C387.756 7.85862 386.917 8.21817 381.763 8.21817C378.408 8.21817 375.411 8.33802 374.932 8.45787C374.572 8.69756 373.853 7.97847 373.494 7.01968C373.094 5.8212 373.374 5.5016 374.333 6.0609Z" fill="#F4F4F4"/>
<path d="M63.9251 103.018C69.4381 94.6289 78.7863 81.925 84.6589 74.4944C91.7299 65.7455 96.0445 61.3111 97.1231 61.7905C98.0819 62.15 98.801 62.6294 98.9208 62.8691C98.9208 63.1088 94.7261 68.6218 89.5726 74.9738C84.2993 81.4456 77.4679 90.5541 74.232 95.1083C70.9961 99.6626 65.4831 107.812 62.1273 113.086C58.7716 118.359 51.9402 130.464 47.0264 140.052C41.9928 149.639 35.521 163.302 32.5248 170.613C29.6484 177.924 25.214 189.669 22.9369 196.98C20.5399 204.29 16.9444 216.635 15.0269 224.545C13.1093 232.455 10.7123 243.84 9.63369 249.713C8.55505 255.585 6.99702 268.05 6.03823 277.278C5.07945 286.506 4.24051 303.525 4.24051 315.03C4.24051 326.536 4.83975 342.236 5.55884 349.786C6.15808 357.337 7.83596 370.281 9.15429 378.55C10.4726 386.82 13.1093 399.763 15.0269 407.314C16.9444 414.864 19.9407 425.651 21.6185 431.283C23.4163 436.916 27.4911 447.942 30.6072 455.852C33.7232 463.762 39.8355 477.305 44.0302 485.814C48.3448 494.324 54.9364 506.548 58.7716 512.78C62.4869 519.013 69.1984 529.319 73.5129 535.552C77.9473 541.784 85.4978 551.851 90.4116 557.724C95.3254 563.596 106.112 575.461 114.381 583.97C122.651 592.36 134.875 603.745 141.467 609.258C148.059 614.652 159.324 623.281 166.635 628.434C173.826 633.468 184.972 640.659 191.204 644.374C197.436 647.969 208.822 654.082 216.372 657.917C223.923 661.632 236.028 667.265 243.338 670.141C250.529 673.138 262.754 677.452 270.304 679.969C277.855 682.366 289.48 685.722 296.072 687.28C302.663 688.838 314.289 691.235 321.839 692.553C329.389 693.991 344.49 695.789 355.397 696.748C366.303 697.707 381.044 698.546 388.355 698.546C395.546 698.546 410.167 697.707 420.714 696.748C431.261 695.789 440.609 694.95 441.328 694.95C442.167 694.95 442.886 693.752 442.886 692.194C442.886 689.797 443.845 689.437 454.511 687.4C460.983 686.321 472.489 683.684 480.039 681.767C487.59 679.849 499.694 676.374 507.005 673.977C514.196 671.58 526.66 666.906 534.57 663.55C542.48 660.194 553.027 655.52 557.941 653.003C562.854 650.486 571.124 645.932 576.158 642.936C581.311 639.94 585.985 637.423 586.704 637.423C587.303 637.423 588.981 639.34 590.3 641.617C591.618 643.895 592.577 646.052 592.337 646.292C592.217 646.411 588.262 648.808 583.708 651.445C579.034 654.082 569.925 658.995 563.334 662.351C556.742 665.587 545.356 670.861 538.166 673.977C530.855 676.973 519.349 681.407 512.398 683.804C505.447 686.081 493.582 689.557 486.031 691.474C478.481 693.512 467.934 695.909 462.661 696.987C457.388 697.946 449.238 698.905 444.684 699.025C440.01 699.265 428.984 700.104 420.115 700.943C409.328 701.901 395.066 702.261 376.969 701.781C358.992 701.302 344.61 700.223 333.824 698.665C324.955 697.227 312.251 695.07 305.659 693.632C299.068 692.194 286.364 688.958 277.495 686.321C268.626 683.804 253.765 678.651 244.537 675.055C235.308 671.34 219.728 664.269 209.781 659.235C199.953 654.202 184.013 644.853 174.425 638.501C164.837 632.269 151.414 622.562 144.463 617.049C137.512 611.536 123.25 598.352 112.703 587.806C102.157 577.139 88.7337 562.278 82.8611 554.727C76.9885 547.177 69.1984 536.391 65.3632 530.758C61.6479 525.125 55.7754 515.657 52.1799 509.784C48.7043 503.912 43.5508 494.444 40.7943 488.811C37.9179 483.178 33.2438 472.991 30.3675 466.039C27.3713 459.088 22.9369 447.583 20.5399 440.272C18.0231 432.961 14.1879 419.778 11.791 410.909C9.51384 402.04 6.39778 386.34 4.7199 376.153C3.16187 365.966 1.24429 348.109 0.645051 336.603C-0.193889 322.701 -0.193889 308.678 0.525202 295.255C1.24429 284.109 2.80232 267.331 4.24051 258.102C5.67869 248.874 8.31536 234.852 10.2329 226.942C12.0307 219.032 15.8658 205.609 18.7422 196.98C21.4987 188.35 26.6522 174.448 30.2476 165.819C33.7232 157.19 40.5546 142.928 45.3485 134.179C50.1425 125.31 58.5319 111.288 63.9251 103.018Z" fill="#F4F4F4"/>
<path d="M765.998 354.82C766.357 348.468 766.837 341.996 767.196 340.438C767.675 338.161 768.514 337.802 778.462 337.802L777.863 343.434C777.623 346.67 777.024 353.502 775.825 368.363L772.11 367.404C769.953 366.925 767.556 366.565 766.717 366.565C765.638 366.565 765.398 363.809 765.998 354.82Z" fill="#F4F4F4"/>
<path d="M639.438 640.059C645.07 635.745 652.022 630.112 655.018 627.595C658.613 624.479 660.651 623.401 661.609 624.239C662.448 625.078 661.849 626.397 659.812 628.554C658.134 630.232 650.823 636.224 643.632 641.857C636.321 647.61 623.737 656.599 615.468 662.112C607.198 667.505 594.494 675.055 587.303 679.01C579.993 682.845 568.128 688.718 560.937 692.074C553.626 695.43 541.282 700.703 533.372 703.699C525.462 706.695 512.278 711.13 504.009 713.527C495.739 715.924 481.238 719.399 471.65 721.317C462.062 723.234 452.114 725.032 449.478 725.392C446.841 725.751 438.571 726.83 431.141 727.908C422.152 729.107 408.01 729.706 387.995 729.706C365.344 729.706 354.198 729.107 340.416 727.309C330.468 725.991 317.524 724.073 311.652 722.995C305.659 721.916 299.667 720.598 298.109 719.998C296.551 719.399 295.712 718.201 296.072 717.122C296.551 715.684 297.39 715.564 300.506 716.523C302.663 717.122 310.933 718.8 318.843 719.998C326.753 721.317 342.093 723.354 353 724.433C367.741 725.871 378.767 726.231 396.145 725.751C408.969 725.392 426.227 724.193 434.497 723.234C442.766 722.156 454.272 720.478 460.264 719.519C466.137 718.44 478.841 715.684 488.428 713.407C498.016 711.01 512.758 706.695 521.387 703.699C529.896 700.703 542.6 695.789 549.551 692.913C556.502 689.916 566.69 685.242 572.322 682.366C577.955 679.609 587.783 674.216 594.135 670.501C600.607 666.786 611.153 660.194 617.505 655.879C623.977 651.445 633.805 644.374 639.438 640.059Z" fill="#F4F4F4"/>
</svg>
