<svg width="779" height="730" viewBox="0 0 779 730" fill="none" xmlns="http://www.w3.org/2000/svg">
<path d="M374.333 6.0609C375.291 6.77999 375.651 6.0609 375.531 3.66393C375.411 0.428017 375.651 0.308169 380.924 0.068472C385.479 -0.171225 386.437 0.18832 385.958 1.6265C385.598 2.58529 385.838 3.42423 386.557 3.42423C387.156 3.42423 387.756 4.50287 387.756 5.8212C387.756 7.85862 386.917 8.21817 381.763 8.21817C378.408 8.21817 375.411 8.33802 374.932 8.45787C374.572 8.69756 373.853 7.97847 373.494 7.01968C373.094 5.8212 373.374 5.5016 374.333 6.0609Z" fill="#F4F4F4"/>
<path d="M63.9251 103.018C69.4381 94.6289 78.7863 81.925 84.6589 74.4944C91.7299 65.7455 96.0445 61.3111 97.1231 61.7905C98.0819 62.15 98.801 62.6294 98.9208 62.8691C98.9208 63.1088 94.7261 68.6218 89.5726 74.9738C84.2993 81.4456 77.4679 90.5541 74.232 95.1083C70.9961 99.6626 65.4831 107.812 62.1273 113.086C58.7716 118.359 51.9402 130.464 47.0264 140.052C41.9928 149.639 35.521 163.302 32.5248 170.613C29.6484 177.924 25.214 189.669 22.9369 196.98C20.5399 204.29 16.9444 216.635 15.0269 224.545C13.1093 232.455 10.7123 243.84 9.63369 249.713C8.55505 255.585 6.99702 268.05 6.03823 277.278C5.07945 286.506 4.24051 303.525 4.24051 315.03C4.24051 326.536 4.83975 342.236 5.55884 349.786C6.15808 357.337 7.83596 370.281 9.15429 378.55C10.4726 386.82 13.1093 399.763 15.0269 407.314C16.9444 414.864 19.9407 425.651 21.6185 431.283C23.4163 436.916 27.4911 447.942 30.6072 455.852C33.7232 463.762 39.8355 477.305 44.0302 485.814C48.3448 494.324 54.9364 506.548 58.7716 512.78C62.4869 519.013 69.1984 529.319 73.5129 535.552C77.9473 541.784 85.4978 551.851 90.4116 557.724C95.3254 563.596 106.112 575.461 114.381 583.97C122.651 592.36 134.875 603.745 141.467 609.258C148.059 614.652 159.324 623.281 166.635 628.434C173.826 633.468 184.972 640.659 191.204 644.374C197.436 647.969 208.822 654.082 216.372 657.917C223.923 661.632 236.028 667.265 243.338 670.141C250.529 673.138 262.754 677.452 270.304 679.969C277.855 682.366 289.48 685.722 296.072 687.28C302.663 688.838 314.289 691.235 321.839 692.553C329.389 693.991 344.49 695.789 355.397 696.748C366.303 697.707 381.044 698.546 388.355 698.546C395.546 698.546 410.167 697.707 420.714 696.748C431.261 695.789 440.609 694.95 441.328 694.95C442.167 694.95 442.886 693.752 442.886 692.194C442.886 689.797 443.845 689.437 454.511 687.4C460.983 686.321 472.489 683.684 480.039 681.767C487.59 679.849 499.694 676.374 507.005 673.977C514.196 671.58 526.66 666.906 534.57 663.55C542.48 660.194 553.027 655.52 557.941 653.003C562.854 650.486 571.124 645.932 576.158 642.936C581.311 639.94 585.985 637.423 586.704 637.423C587.303 637.423 588.981 639.34 590.3 641.617C591.618 643.895 592.577 646.052 592.337 646.292C592.217 646.411 588.262 648.808 583.708 651.445C579.034 654.082 569.925 658.995 563.334 662.351C556.742 665.587 545.356 670.861 538.166 673.977C530.855 676.973 519.349 681.407 512.398 683.804C505.447 686.081 493.582 689.557 486.031 691.474C478.481 693.512 467.934 695.909 462.661 696.987C457.388 697.946 449.238 698.905 444.684 699.025C440.01 699.265 428.984 700.104 420.115 700.943C409.328 701.901 395.066 702.261 376.969 701.781C358.992 701.302 344.61 700.223 333.824 698.665C324.955 697.227 312.251 695.07 305.659 693.632C299.068 692.194 286.364 688.958 277.495 686.321C268.626 683.804 253.765 678.651 244.537 675.055C235.308 671.34 219.728 664.269 209.781 659.235C199.953 654.202 184.013 644.853 174.425 638.501C164.837 632.269 151.414 622.562 144.463 617.049C137.512 611.536 123.25 598.352 112.703 587.806C102.157 577.139 88.7337 562.278 82.8611 554.727C76.9885 547.177 69.1984 536.391 65.3632 530.758C61.6479 525.125 55.7754 515.657 52.1799 509.784C48.7043 503.912 43.5508 494.444 40.7943 488.811C37.9179 483.178 33.2438 472.991 30.3675 466.039C27.3713 459.088 22.9369 447.583 20.5399 440.272C18.0231 432.961 14.1879 419.778 11.791 410.909C9.51384 402.04 6.39778 386.34 4.7199 376.153C3.16187 365.966 1.24429 348.109 0.645051 336.603C-0.193889 322.701 -0.193889 308.678 0.525202 295.255C1.24429 284.109 2.80232 267.331 4.24051 258.102C5.67869 248.874 8.31536 234.852 10.2329 226.942C12.0307 219.032 15.8658 205.609 18.7422 196.98C21.4987 188.35 26.6522 174.448 30.2476 165.819C33.7232 157.19 40.5546 142.928 45.3485 134.179C50.1425 125.31 58.5319 111.288 63.9251 103.018Z" fill="#F4F4F4"/>
<path d="M765.998 354.82C766.357 348.468 766.837 341.996 767.196 340.438C767.675 338.161 768.514 337.802 778.462 337.802L777.863 343.434C777.623 346.67 777.024 353.502 775.825 368.363L772.11 367.404C769.953 366.925 767.556 366.565 766.717 366.565C765.638 366.565 765.398 363.809 765.998 354.82Z" fill="#F4F4F4"/>
<path d="M639.438 640.059C645.07 635.745 652.022 630.112 655.018 627.595C658.613 624.479 660.651 623.401 661.609 624.239C662.448 625.078 661.849 626.397 659.812 628.554C658.134 630.232 650.823 636.224 643.632 641.857C636.321 647.61 623.737 656.599 615.468 662.112C607.198 667.505 594.494 675.055 587.303 679.01C579.993 682.845 568.128 688.718 560.937 692.074C553.626 695.43 541.282 700.703 533.372 703.699C525.462 706.695 512.278 711.13 504.009 713.527C495.739 715.924 481.238 719.399 471.65 721.317C462.062 723.234 452.114 725.032 449.478 725.392C446.841 725.751 438.571 726.83 431.141 727.908C422.152 729.107 408.01 729.706 387.995 729.706C365.344 729.706 354.198 729.107 340.416 727.309C330.468 725.991 317.524 724.073 311.652 722.995C305.659 721.916 299.667 720.598 298.109 719.998C296.551 719.399 295.712 718.201 296.072 717.122C296.551 715.684 297.39 715.564 300.506 716.523C302.663 717.122 310.933 718.8 318.843 719.998C326.753 721.317 342.093 723.354 353 724.433C367.741 725.871 378.767 726.231 396.145 725.751C408.969 725.392 426.227 724.193 434.497 723.234C442.766 722.156 454.272 720.478 460.264 719.519C466.137 718.44 478.841 715.684 488.428 713.407C498.016 711.01 512.758 706.695 521.387 703.699C529.896 700.703 542.6 695.789 549.551 692.913C556.502 689.916 566.69 685.242 572.322 682.366C577.955 679.609 587.783 674.216 594.135 670.501C600.607 666.786 611.153 660.194 617.505 655.879C623.977 651.445 633.805 644.374 639.438 640.059Z" fill="#F4F4F4"/>
<path fill-rule="evenodd" clip-rule="evenodd" d="M364.864 1.02728C366.661 1.02728 367.141 1.86622 367.021 4.86243C366.901 7.01971 366.062 8.93728 364.983 9.29683C363.665 9.65637 363.425 9.29683 364.144 7.85865C364.624 6.66016 364.504 6.06092 363.785 6.42046C363.186 6.78001 362.586 5.70137 362.586 4.02349C362.586 1.86622 363.186 1.02728 364.864 1.02728ZM319.801 7.2594C320.639 7.61895 321.478 9.65637 321.718 11.9335C322.078 15.6488 321.838 15.8885 319.561 15.0496C318.123 14.5702 317.044 14.69 317.044 15.4091C317.044 16.1282 315.965 16.3679 314.647 16.0083C313.329 15.6488 312.25 15.8885 312.25 16.6076C312.25 17.3267 311.291 17.8061 310.213 17.8061C308.774 17.8061 308.535 17.4865 309.494 16.8473C310.332 16.3679 310.692 14.8099 310.452 13.2518C310.093 11.5739 309.374 10.9747 308.415 11.4541C307.376 12.0933 307.176 11.8935 307.816 10.8549C308.295 10.1358 309.254 9.65637 309.853 10.0159C310.572 10.3755 312.13 10.0159 313.568 9.17698C315.846 7.85865 315.965 7.9785 314.407 9.89607C313.089 11.6938 313.089 11.9335 315.007 11.8136C316.085 11.8136 317.284 10.735 317.643 9.29683C318.003 7.85865 318.962 7.01971 319.801 7.2594ZM299.666 13.0121C300.625 13.0121 301.823 14.4503 302.183 16.248C302.542 18.1656 302.542 19.8435 302.183 20.203C301.823 20.5626 300.625 20.4427 299.666 19.8435C298.707 19.3641 297.868 17.6862 297.868 16.0083C297.868 14.0908 298.587 13.0121 299.666 13.0121ZM258.798 31.3489C259.876 33.1467 260.476 34.9444 260.116 35.4238C259.756 36.023 259.517 35.6635 259.517 34.8246C259.517 34.1055 258.558 33.3864 257.479 33.3864C256.281 33.2665 254.483 34.1055 253.524 35.1841C251.966 36.862 251.966 37.1017 254.124 37.1017C255.921 36.9818 255.682 37.4612 252.925 38.7796C251.007 39.8582 248.85 40.5773 248.131 40.5773C247.532 40.5773 247.772 39.978 248.73 39.3788C249.929 38.5798 250.049 38.1803 249.09 38.1803C248.251 38.1803 247.532 37.3414 247.532 36.2627C247.532 35.0643 247.053 34.8246 246.094 35.4238C245.135 36.063 244.895 35.7833 245.375 34.5849C245.734 33.6261 246.813 32.907 248.011 33.0268C249.09 33.2665 249.929 32.7871 249.929 32.1879C249.929 31.4688 251.007 30.7497 252.326 30.3902C253.644 30.0306 254.962 30.2703 255.322 30.9894C255.682 31.5886 256.521 32.1879 257.12 32.1879C257.839 32.1879 257.959 31.2291 257.599 30.0306C257.24 28.952 257.839 29.4314 258.798 31.2291V31.3489ZM237.824 38.3002C239.262 38.3002 240.581 39.1391 240.94 40.0979C241.3 41.0567 241.539 42.7346 241.539 43.6933C241.539 44.6521 240.701 45.4911 239.742 45.4911C238.783 45.4911 237.944 44.8918 237.944 44.2926C237.944 43.6933 238.663 43.4536 239.502 43.933C240.341 44.2926 240.461 44.1727 239.981 43.5735C239.382 42.9743 238.304 42.4949 237.584 42.4949C236.746 42.4949 236.026 41.5361 235.787 40.3376C235.427 38.8994 236.146 38.3002 237.824 38.3002ZM199.832 62.2699C200.671 62.2699 201.989 63.5882 202.828 65.2661C204.147 67.7829 204.147 68.3821 202.828 69.1012C201.87 69.5806 200.312 70.7791 199.353 71.8577C197.675 73.4158 197.196 73.4158 195.518 71.8577C193.72 70.2997 193.48 70.2997 193.6 72.0974C193.6 73.2959 194.199 74.2547 195.038 74.2547C195.997 74.2547 196.117 74.6942 195.398 75.573C194.679 76.2921 193.48 76.5318 192.761 76.1723C191.802 75.6929 191.563 74.4944 192.042 72.6967C192.761 70.5394 192.521 70.1799 190.844 70.8989C189.645 71.4982 188.806 71.3783 188.806 70.6593C188.806 70.06 189.645 69.4608 190.604 69.4608C191.563 69.4608 192.641 68.6218 193.001 67.663C193.36 66.7043 194.439 65.8653 195.398 65.8653C196.357 65.8653 197.435 65.0264 197.795 64.0676C198.034 63.1088 198.993 62.2699 199.832 62.2699ZM183.772 75.4532C185.45 75.4532 185.57 75.6929 184.012 76.5318C182.574 77.3708 182.694 77.7303 184.971 78.3296C186.409 78.6891 187.608 79.8876 187.608 80.8464C187.608 81.8052 186.769 82.6441 185.81 82.6441C184.851 82.6441 183.173 81.4456 182.214 79.8876C181.256 78.4494 180.776 76.8914 181.136 76.2921C181.495 75.8127 182.694 75.4532 183.772 75.4532ZM141.586 89.5953C143.863 91.393 145.661 93.1908 145.661 93.6702C145.661 94.2694 144.942 94.9885 144.222 95.348C143.384 95.8274 141.106 94.5091 139.189 92.7114C137.271 90.674 136.193 88.6365 136.552 87.7976C137.151 86.5991 138.59 87.1983 141.586 89.5953ZM132.238 93.4305C132.717 93.4305 134.874 94.9885 137.032 96.7862C139.748 98.9435 140.707 100.422 139.908 101.221C139.109 102.02 137.271 101.301 134.395 99.0634C131.998 97.2656 130.32 95.2282 130.68 94.629C131.159 94.0297 131.758 93.4305 132.238 93.4305ZM128.043 100.142C128.882 100.621 130.68 102.06 132.238 103.498C133.676 104.936 134.874 106.374 134.874 106.854C134.874 107.453 134.155 107.812 133.436 107.812C132.597 107.692 130.32 106.494 128.283 104.936C126.006 103.138 125.047 101.58 125.646 100.741C126.245 100.022 127.324 99.7824 128.043 100.142ZM122.17 106.614C122.889 106.614 125.167 108.052 127.084 109.73C129.481 111.767 130.32 113.205 129.481 113.925C128.762 114.644 126.725 113.925 123.848 111.767C121.331 109.85 119.654 108.052 120.133 107.453C120.492 106.973 121.451 106.614 122.17 106.614ZM151.054 107.812C152.132 107.812 152.852 109.011 152.852 110.808C152.852 112.486 153.451 113.565 154.05 113.205C154.769 112.846 154.41 113.925 153.451 115.602C152.492 117.28 151.174 118.599 150.455 118.599C149.855 118.599 149.496 117.76 149.855 116.801C150.215 115.842 149.975 115.003 149.256 115.003C148.657 115.003 147.578 116.202 147.099 117.64C146.14 120.277 146.02 120.277 144.222 115.602L143.384 117.999C142.904 119.318 142.185 119.797 141.826 119.198C141.346 118.599 142.425 116.561 143.983 114.644C145.541 112.846 146.859 112.007 146.859 112.606C146.859 113.205 147.938 113.805 149.256 113.805C150.934 113.805 151.653 112.966 151.653 111.048C151.653 109.011 151.413 108.771 150.455 110.209C149.855 111.168 149.136 111.647 148.777 111.048C148.417 110.569 148.297 109.61 148.657 109.011C149.136 108.412 150.215 107.812 151.054 107.812ZM116.298 112.606C116.657 112.606 118.575 113.805 120.492 115.243C122.53 116.801 124.088 118.719 124.088 119.438C124.088 120.277 123.848 120.996 123.489 120.996C123.129 120.996 121.092 119.797 119.054 118.359C116.897 116.921 114.979 115.602 114.86 115.363C114.62 115.123 114.74 114.404 115.099 113.805C115.579 113.205 116.058 112.606 116.298 112.606ZM111.504 119.797C111.863 119.797 113.901 120.996 116.178 122.434C118.695 124.112 120.013 125.79 119.534 126.629C118.934 127.707 117.496 127.348 114.26 125.19C111.744 123.512 109.946 121.595 110.305 120.996C110.785 120.396 111.264 119.797 111.504 119.797ZM137.032 123.393C137.511 123.393 139.189 124.351 140.747 125.55C142.305 126.629 143.264 128.187 142.784 129.025C142.425 129.864 141.586 130.583 140.867 130.583C140.267 130.583 139.908 129.984 140.267 129.385C140.627 128.786 140.148 128.546 139.429 128.906C138.59 129.265 137.151 128.666 136.432 127.707C135.593 126.628 135.114 125.19 135.474 124.591C135.953 123.992 136.552 123.393 137.032 123.393ZM106.47 126.988C107.189 126.988 109.706 128.306 111.863 129.745C114.5 131.502 115.419 132.781 114.62 133.58C113.821 134.379 112.023 133.859 109.227 132.022C106.83 130.584 104.912 128.786 104.912 128.187C104.912 127.587 105.631 126.988 106.47 126.988ZM102.875 133.7C103.714 134.179 105.871 135.737 107.669 137.055C109.906 138.733 110.625 139.972 109.826 140.771C109.027 141.57 107.309 141.01 104.672 139.093C102.515 137.415 100.598 135.977 100.478 135.737C100.238 135.497 100.478 134.778 100.837 134.179C101.197 133.46 102.156 133.34 102.875 133.7ZM97.122 140.171C97.4816 140.171 99.6388 141.25 101.916 142.568C104.193 143.887 106.111 145.565 106.111 146.164C106.111 146.763 105.751 147.602 105.272 147.842C104.672 148.201 102.515 147.362 100.478 146.044C98.3205 144.845 96.5228 142.928 96.5228 141.969C96.5228 141.01 96.7625 140.171 97.122 140.171ZM120.253 143.767C120.732 143.767 122.889 144.845 125.047 146.164C128.762 148.441 128.762 148.681 127.084 151.557C126.125 153.235 124.567 154.553 123.848 154.553C123.009 154.553 120.972 153.714 119.294 152.516C117.616 151.437 116.058 150.359 115.699 150.239C115.339 149.999 116.058 148.441 117.257 146.763C118.335 145.085 119.773 143.767 120.253 143.767ZM97.6014 149.999C99.9984 151.437 102.036 152.755 102.276 152.995C102.395 153.235 102.276 153.834 101.916 154.553C101.556 155.272 99.2793 154.673 96.5228 152.995C93.8861 151.557 91.609 149.999 91.4891 149.639C91.3693 149.28 91.7288 148.561 92.3281 148.201C92.8075 147.722 95.2044 148.561 97.6014 149.999ZM89.3319 155.752C90.051 155.752 92.2082 156.591 94.1258 157.549C96.1632 158.508 97.7213 160.186 97.7213 161.145C97.7213 162.583 96.8823 162.583 92.9273 160.546C90.2907 159.227 88.1334 157.669 88.1334 156.95C88.1334 156.231 88.7326 155.752 89.3319 155.752ZM84.8975 162.943C85.0173 162.943 87.2944 163.662 89.9311 164.74C92.8075 165.819 94.6052 167.257 94.3655 168.336C94.2457 169.295 93.8861 170.134 93.5266 170.134C93.167 170.134 90.7701 169.055 88.1334 167.737C85.4967 166.418 83.5791 164.86 83.9387 164.141C84.4181 163.422 84.7776 162.943 84.8975 162.943ZM81.5417 170.134C81.9013 170.134 84.0585 171.092 86.3357 172.171C88.7326 173.369 90.5304 175.047 90.5304 175.766C90.5304 176.605 90.2907 177.324 89.9311 177.324C89.5716 177.324 87.1746 176.246 84.5379 174.927C81.9013 173.609 79.9837 172.051 80.3432 171.332C80.8226 170.613 81.302 170.134 81.5417 170.134ZM81.9013 179.482C84.5379 180.44 86.6952 181.999 86.8151 182.957C86.8151 183.796 86.4555 184.515 85.7364 184.515C85.1372 184.515 82.7402 183.557 80.4631 182.358C78.186 181.279 76.5081 179.721 76.7478 179.002C77.1073 177.924 78.5455 178.163 81.9013 179.482ZM74.7104 185.714C75.1897 185.714 77.5867 186.433 80.1035 187.512C82.5005 188.47 84.5379 189.789 84.5379 190.508C84.5379 191.227 83.8188 191.706 83.0998 191.706C82.2608 191.706 79.744 191.227 77.7066 190.508C75.5493 189.909 73.7516 188.47 73.7516 187.512C73.7516 186.553 74.1111 185.714 74.7104 185.714ZM75.9088 194.822C78.4257 195.781 80.4631 196.5 80.7028 196.5C80.8226 196.5 80.9425 197.339 80.9425 198.298C80.9425 199.257 80.7028 200.096 80.3432 200.096C79.9837 200.096 77.5867 199.257 74.9501 198.298C72.3134 197.339 70.0363 196.021 69.9164 195.541C69.7966 194.942 70.1561 194.223 70.6355 193.744C71.1149 193.384 73.5119 193.744 75.9088 194.822ZM68.9576 201.294C69.6767 201.294 72.0737 202.133 74.3508 203.092C76.6279 204.051 78.5455 205.369 78.5455 206.088C78.5455 206.807 77.8264 207.287 77.1073 207.287C76.2684 207.287 73.7516 206.567 71.5943 205.729C69.437 205.009 67.7591 203.571 67.7591 202.732C67.7591 202.013 68.3584 201.294 68.9576 201.294ZM66.9202 209.684C67.7591 209.684 70.1561 210.163 72.3134 210.882C74.9501 211.721 75.9088 212.68 75.5493 213.878C75.0699 215.436 74.3508 215.436 69.5569 213.878C66.5607 212.919 64.4034 211.601 64.7629 210.882C65.2423 210.163 66.0813 209.684 66.9202 209.684ZM67.3996 218.313C69.9164 219.032 72.5531 219.751 73.1523 220.11C73.9513 220.51 73.9513 221.109 73.1523 221.908C72.4332 222.627 70.0363 222.387 66.8004 221.429C64.0438 220.59 61.6469 219.511 61.527 219.152C61.4072 218.792 61.7667 218.193 62.1263 217.833C62.6057 217.474 65.0026 217.713 67.3996 218.313ZM63.924 225.983C65.7217 226.462 68.1187 227.181 69.1973 227.541C70.3958 227.9 70.8752 228.859 70.3958 229.698C69.7966 230.897 68.5981 230.897 65.0026 229.698C62.6057 228.859 60.5682 227.541 60.5682 226.702C60.5682 225.743 61.6469 225.503 63.924 225.983ZM79.3844 231.616L84.4181 232.934C89.0922 234.133 89.4517 234.492 89.0922 237.848C88.7326 241.204 88.4929 241.443 83.9387 241.084C81.302 240.964 78.7852 240.365 78.4257 239.885C78.0661 239.406 78.0661 237.368 78.5455 235.331L79.3844 231.616ZM59.6094 233.653C60.4484 233.653 62.8454 234.133 65.0026 234.852C67.1599 235.571 68.9576 236.649 68.9576 237.249C68.9576 237.968 67.879 238.447 66.5607 238.447C65.2423 238.447 62.8454 237.968 61.1675 237.249C59.4896 236.649 58.1713 235.571 58.1713 234.852C58.1713 234.252 58.7705 233.653 59.6094 233.653ZM57.2125 242.043C58.0514 242.043 60.5682 242.402 62.7255 243.001C64.8828 243.481 66.5607 244.559 66.5607 245.398C66.5607 246.237 66.0813 246.837 65.6019 246.837C65.1225 246.837 62.7255 246.357 60.2087 245.638C57.8117 245.039 55.7743 243.96 55.7743 243.241C55.7743 242.642 56.3735 242.043 57.2125 242.043ZM59.8491 250.911C62.4858 251.271 65.0026 251.87 65.3622 252.23C65.7217 252.589 65.3622 253.428 64.7629 254.027C63.924 254.747 61.8866 254.747 59.0102 254.027C56.6132 253.428 54.6957 252.23 54.6957 251.511C54.8555 250.632 56.5733 250.432 59.8491 250.911ZM55.5346 258.102C56.6132 258.342 59.13 258.941 61.0476 259.301C62.9652 259.78 64.4034 260.739 64.2835 261.578C64.1637 262.657 62.6057 262.776 58.411 262.177C55.2949 261.698 52.6582 260.979 52.4185 260.619C52.2987 260.379 52.5384 259.421 52.8979 258.821C53.2575 258.102 54.456 257.743 55.5346 258.102ZM56.1338 266.731C58.1713 267.091 60.5682 267.69 61.4072 267.93C62.2461 268.17 62.9652 269.009 62.9652 269.608C62.9652 270.327 61.4072 270.806 59.6094 270.806C57.8117 270.806 55.175 270.567 53.617 270.207C51.9391 269.847 51.22 269.009 51.5796 267.93C52.059 266.612 53.3773 266.372 56.1338 266.731ZM74.8302 267.211C76.5081 267.211 79.0249 267.57 80.3432 267.93C82.5005 268.529 82.6204 269.128 81.5417 275.36C80.9425 279.196 80.4631 297.532 80.4631 316.349C80.4631 346.67 80.7028 352.183 83.2196 365.487C84.6578 373.756 87.4143 386.46 89.3319 393.651C91.1296 400.962 94.6052 412.227 97.0022 418.819C99.3991 425.411 101.317 431.044 101.317 431.403C101.317 431.763 99.2793 432.722 96.7625 433.56C94.3655 434.519 91.9685 434.759 91.4891 434.16C90.8899 433.68 88.6128 427.808 86.2158 421.216C83.9387 414.624 80.9425 405.156 79.6241 400.243C78.3058 395.329 75.9088 384.782 74.3508 376.872C72.7928 368.962 70.9951 357.097 70.276 350.505C69.6767 343.914 68.7179 333.367 68.3584 327.135C67.879 320.903 68.1187 307.72 68.8378 297.772C69.5569 287.945 70.5157 277.038 70.8752 273.563C71.5943 267.69 71.834 267.211 74.8302 267.211ZM53.8567 274.881C55.2949 275.241 57.572 275.6 59.0102 275.6C60.6881 275.6 61.7667 276.319 61.7667 277.398C61.7667 278.357 60.8079 279.196 59.6094 279.196C58.5308 279.196 55.7743 278.956 53.617 278.596C50.6208 278.117 49.9017 277.518 50.6208 276.08C51.1002 274.881 52.2987 274.522 53.8567 274.881ZM53.8567 283.27C55.8941 283.75 58.1713 283.99 59.0102 283.99C59.8491 283.99 60.5682 284.829 60.5682 285.787C60.5682 286.746 59.8491 287.585 59.0102 287.585C58.1713 287.585 55.7743 287.225 53.617 286.746C51.3399 286.147 49.7819 285.068 49.9017 284.109C50.0216 282.911 51.22 282.671 53.8567 283.27ZM52.7781 291.66C54.0964 292.019 56.1338 292.379 57.2125 292.379C58.411 292.379 59.3697 293.098 59.3697 293.937C59.3697 294.896 57.572 295.255 53.9766 295.135C50.9804 294.896 48.4635 294.297 48.3437 293.817C48.2238 293.218 48.7032 292.379 49.3025 291.9C49.7819 291.42 51.4597 291.3 52.7781 291.66ZM52.6582 300.049C54.6957 300.529 56.9728 300.768 57.8117 300.768C58.6507 300.768 59.3697 301.368 59.3697 301.967C59.3697 302.686 56.9728 303.165 53.9766 303.165C49.662 303.165 48.5834 302.806 48.7032 301.248C48.9429 299.69 49.7819 299.45 52.6582 300.049ZM51.4597 308.439C52.7781 308.798 55.175 309.158 56.6132 309.158C58.1713 309.158 59.3697 309.757 59.3697 310.356C59.3697 311.075 56.9728 311.555 53.9766 311.555C49.662 311.555 48.5834 311.195 48.7032 309.637C48.8231 308.319 49.662 307.959 51.4597 308.439ZM613.31 315.15C613.789 315.15 614.268 319.345 614.268 324.498C614.268 329.532 613.669 338.281 612.95 343.914C612.351 349.547 610.913 358.176 609.954 363.09C608.875 368.003 605.999 378.55 603.362 386.46C600.845 394.37 596.171 406.235 592.935 412.827C589.699 419.418 584.186 429.366 580.711 434.999C577.235 440.632 571.123 449.5 566.928 454.774C562.853 460.047 555.423 468.436 550.629 473.47C545.715 478.504 539.003 484.856 535.768 487.492C529.775 492.526 529.775 492.526 531.813 495.522C533.011 497.2 533.49 498.878 533.011 499.237C532.532 499.597 530.015 497.56 522.944 489.53L526.659 494.683C528.696 497.44 530.135 500.316 529.775 500.915C529.416 501.634 524.382 505.23 518.629 509.185C512.876 513.02 505.446 517.574 502.21 519.372C498.854 521.05 495.498 522.488 494.66 522.488C493.821 522.488 493.221 522.128 493.221 521.649C493.221 521.17 492.742 519.971 492.263 519.132C491.663 518.054 489.266 518.653 482.435 521.769C477.521 523.926 469.371 527.282 464.458 528.96C459.544 530.758 450.316 533.514 444.083 535.192C437.851 536.75 427.305 538.907 420.713 539.866C413.043 541.184 401.058 541.784 387.755 541.784C374.212 541.904 362.467 541.184 354.796 539.866C348.205 538.907 337.418 536.63 330.827 534.952C324.235 533.274 313.688 530.039 307.456 527.642C301.224 525.364 295.711 523.087 295.232 522.728C294.752 522.248 294.752 521.29 295.232 520.451C295.831 519.372 299.426 520.331 308.655 523.806C315.606 526.443 326.632 529.919 333.224 531.477C339.815 533.155 351.441 535.312 358.991 536.271C366.541 537.229 379.245 538.068 387.155 538.068C395.065 538.068 406.331 537.469 412.324 536.87C418.196 536.151 425.747 535.072 429.102 534.353C432.338 533.634 438.57 532.316 442.885 531.237C447.199 530.278 453.072 528.6 456.068 527.642C459.064 526.683 466.255 523.926 472.248 521.529C478.12 519.252 484.233 516.496 485.791 515.417C488.068 513.859 488.427 512.9 487.708 509.904C486.989 506.548 486.989 506.428 488.907 508.106C490.824 509.664 490.944 509.664 490.225 508.106C489.746 506.788 491.903 504.87 498.255 501.035C503.049 498.159 510.24 493.365 514.195 490.488C518.15 487.612 521.865 485.335 522.584 485.335C523.183 485.335 524.741 486.174 525.82 487.133C527.738 488.811 528.457 488.571 532.412 485.095C534.929 483.058 539.603 478.863 542.839 475.867C545.955 472.871 552.666 465.56 557.7 459.568C562.733 453.695 570.404 443.148 574.958 436.197C579.512 429.246 585.505 418.819 588.381 412.827C591.257 406.954 595.332 397.246 597.49 391.254C599.527 385.381 602.523 375.314 604.081 369.082C605.639 362.85 607.797 351.824 608.875 344.513C609.834 337.322 610.553 328.094 610.433 324.019C610.313 320.064 610.673 316.349 611.272 315.989C611.751 315.51 612.71 315.15 613.31 315.15ZM53.617 316.588C56.3735 316.828 58.7705 317.667 59.0102 318.506C59.2499 319.465 57.6919 319.944 53.9766 319.944C49.9017 319.944 48.5834 319.465 48.5834 318.146C48.7032 316.708 49.7819 316.349 53.617 316.588ZM53.9766 324.738C57.9316 324.738 59.3697 325.217 59.3697 326.536C59.3697 327.854 57.9316 328.334 53.9766 328.334C50.0216 328.334 48.5834 327.854 48.5834 326.536C48.5834 325.217 50.0216 324.738 53.9766 324.738ZM53.9766 333.127C57.9316 333.127 59.3697 333.607 59.3697 334.925C59.3697 336.244 57.9316 336.723 53.9766 336.723C50.0216 336.723 48.5834 336.244 48.5834 334.925C48.5834 333.607 50.0216 333.127 53.9766 333.127ZM55.175 341.517C58.1713 341.517 60.5682 342.116 60.5682 342.715C60.5682 343.434 59.7293 344.154 58.7705 344.513C57.8117 344.873 55.2949 345.112 53.3773 345.112C50.9804 345.112 49.7819 344.513 49.7819 343.315C49.7819 341.996 51.22 341.517 55.175 341.517ZM60.3285 350.505C60.5682 351.225 60.0888 352.183 59.13 352.663C58.2911 353.142 56.014 353.382 54.2163 353.262C52.4185 353.022 50.8605 352.423 50.8605 351.704C50.8605 351.105 52.8979 350.266 55.4147 349.906C57.9316 349.547 60.0888 349.906 60.3285 350.505ZM59.6094 357.337C60.8079 357.217 61.7667 357.936 61.7667 358.895C61.7667 359.854 60.5682 360.932 59.0102 361.292C57.572 361.651 55.175 361.891 53.617 361.891C52.059 361.891 50.9804 361.172 50.9804 360.093C50.9804 359.015 52.2987 358.176 54.2163 357.936C56.014 357.696 58.5308 357.337 59.6094 357.337ZM177.421 364.288C178.499 364.288 179.458 365.846 179.937 368.243C180.297 370.4 181.376 374.835 182.454 378.071C183.533 381.426 185.331 386.939 186.529 390.415C188.087 394.61 189.405 396.647 190.844 396.767C192.402 396.767 194.679 400.243 198.394 408.272C201.39 414.624 206.903 424.572 210.619 430.444C214.454 436.197 218.049 441.231 218.768 441.59C219.367 441.95 221.165 441.59 222.603 440.871C225.12 439.553 225.839 440.152 231.352 446.504C234.588 450.339 241.779 457.89 257 472.751L247.652 483.537L240.101 476.466C235.907 472.631 229.555 466.159 225.959 462.084C222.244 458.129 217.33 452.377 215.053 449.38C212.656 446.384 207.742 439.433 204.027 433.8C200.312 428.167 194.319 417.381 190.724 409.83C187.128 402.28 182.214 390.295 179.817 383.224C177.54 376.153 175.623 368.962 175.623 367.284C175.623 365.487 176.342 364.288 177.421 364.288ZM60.8079 365.726C62.0064 365.606 62.9652 366.206 62.9652 367.045C62.9652 367.884 61.2873 368.962 59.13 369.442C56.9728 369.921 54.456 370.28 53.617 370.28C52.7781 370.28 52.1788 369.442 52.1788 368.483C52.1788 367.404 53.4972 366.565 55.4147 366.325C57.2125 366.086 59.7293 365.726 60.8079 365.726ZM714.941 370.28C716.859 370.28 719.375 370.52 720.334 370.88C721.293 371.239 722.132 372.318 722.132 373.277C722.132 374.595 721.293 374.955 718.776 374.355C716.978 373.996 714.581 373.397 713.383 373.157C712.304 372.917 711.346 372.198 711.346 371.479C711.346 370.88 712.904 370.28 714.941 370.28ZM61.4072 373.996C62.9652 373.996 64.1637 374.595 64.1637 375.434C64.1637 376.273 62.1263 377.232 59.7293 377.711C57.2125 378.19 54.6957 378.31 54.2163 378.071C53.7369 377.711 53.3773 376.992 53.3773 376.273C53.3773 375.674 54.5758 374.835 56.014 374.595C57.572 374.355 59.969 374.116 61.4072 373.996ZM713.982 378.67C716.14 378.67 718.776 379.149 719.735 379.749C720.694 380.348 721.053 381.426 720.574 382.145C719.975 383.104 718.297 383.104 714.941 382.265C712.304 381.666 710.147 380.587 710.147 379.868C710.147 379.269 711.825 378.67 713.982 378.67ZM65.3622 382.865C65.9614 383.584 65.8416 384.423 65.0026 384.902C64.1637 385.262 61.6469 385.861 59.4896 386.1C57.2125 386.34 55.175 385.981 54.9354 385.262C54.6957 384.662 56.7331 383.584 59.4896 382.865C62.8454 382.026 64.7629 382.026 65.3622 382.865ZM711.106 386.34C712.185 386.58 714.581 387.179 716.379 387.539C718.656 388.018 719.495 388.857 719.136 390.055C718.656 391.614 717.817 391.614 713.982 390.535C711.585 389.816 709.068 388.977 708.589 388.737C708.11 388.497 708.11 387.659 708.469 387.059C708.829 386.34 710.027 385.981 711.106 386.34ZM66.2011 389.576C67.0401 389.576 67.7591 390.295 67.7591 391.254C67.7591 392.213 66.5607 393.291 65.0026 393.651C63.5644 394.01 61.1675 394.25 59.6094 394.25C58.1713 394.25 56.8529 393.771 56.7331 393.052C56.6132 392.452 58.2911 391.374 60.5682 390.775C62.8454 390.175 65.3622 389.696 66.2011 389.576ZM711.106 394.849C713.503 395.209 716.02 396.168 716.739 396.767C717.338 397.366 717.698 398.085 717.338 398.565C716.979 398.924 714.581 398.804 712.065 398.205C709.428 397.726 707.151 396.527 706.911 395.569C706.672 394.25 707.51 394.13 711.106 394.849ZM67.9988 397.965C69.1973 397.965 70.1561 398.445 70.1561 399.044C70.1561 399.763 68.8378 400.842 67.1599 401.441C65.482 402.16 63.085 402.64 61.7667 402.64C60.3285 402.64 59.6094 402.04 59.969 401.201C60.3285 400.362 61.7667 399.404 63.3247 398.924C64.7629 398.445 66.9202 398.085 67.9988 397.965ZM758.686 400.123L762.88 400.842C765.158 401.321 767.555 402.16 768.274 402.759C768.993 403.479 768.513 407.194 766.596 413.785C765.158 419.179 762.161 428.767 760.244 434.999C758.206 441.231 754.012 452.856 750.896 460.766C747.78 468.676 742.147 481.38 738.312 488.93C734.476 496.481 729.563 505.949 727.166 509.904C724.888 513.859 718.537 523.687 703.555 546.338L699.001 543.342C696.125 541.544 694.806 539.986 695.406 539.027C696.005 538.188 700.679 530.997 705.952 523.087C711.226 515.057 718.896 502.473 722.971 494.923C727.046 487.372 733.158 474.669 736.634 466.759C739.989 458.849 745.622 443.748 749.098 433.201C752.573 422.654 756.169 410.909 757.008 407.074L758.686 400.123ZM710.027 402.999C712.544 403.598 714.701 404.917 714.821 405.875C714.941 406.714 714.582 407.434 714.102 407.434C713.623 407.434 711.106 406.834 708.709 405.995C706.192 405.156 704.035 404.198 703.915 403.838C703.915 403.359 704.155 402.759 704.514 402.4C704.994 402.04 707.391 402.28 710.027 402.999ZM71.4744 406.834C72.0737 407.553 71.834 408.392 70.9951 408.872C70.276 409.231 67.879 409.95 65.7217 410.31C62.9652 410.909 61.7667 410.669 61.7667 409.591C61.7667 408.752 63.6843 407.553 66.0813 406.834C69.0775 405.995 70.7554 405.995 71.4744 406.834ZM702.716 409.83C703.196 409.83 705.593 410.43 708.11 411.029C710.746 411.748 712.544 413.066 712.544 414.025C712.544 415.344 711.825 415.703 709.907 415.104C708.349 414.744 705.952 413.905 704.514 413.306C702.956 412.707 701.758 411.748 701.758 411.029C701.758 410.43 702.237 409.83 702.716 409.83ZM72.3134 413.785C73.2722 413.905 73.9913 414.624 73.9913 415.224C73.9913 415.943 71.9538 417.141 69.437 417.98C66.321 418.939 64.4034 419.059 63.5644 418.34C62.8454 417.541 63.8441 416.542 66.5607 415.344C68.9576 414.385 71.4744 413.666 72.3134 413.785ZM704.035 418.699C706.432 419.179 708.949 420.018 709.548 420.617C710.267 421.336 710.387 422.295 709.907 422.774C709.308 423.254 706.791 423.014 704.155 422.175C701.518 421.336 699.481 420.018 699.6 419.299C699.72 418.46 701.278 418.22 704.035 418.699ZM76.5081 421.456C77.1073 421.815 77.5867 422.534 77.4669 423.134C77.4669 423.733 74.9501 425.051 71.9538 426.01C67.04 427.688 66.6805 427.688 67.1599 425.89C67.5194 424.812 69.5569 423.254 71.5943 422.415C73.6317 421.695 75.9088 421.216 76.5081 421.456ZM698.162 425.411C698.881 425.411 701.278 426.25 703.555 427.209C705.952 428.287 707.75 429.605 707.75 430.205C707.75 430.924 707.391 431.403 706.911 431.403C706.432 431.403 703.915 430.804 701.518 429.965C699.001 429.126 696.964 427.808 696.964 426.969C696.964 426.13 697.563 425.411 698.162 425.411ZM78.3058 429.126C79.1447 429.126 79.744 429.605 79.744 430.205C79.744 430.924 77.9463 432.242 75.5493 433.201C73.2722 434.28 70.8752 434.999 70.1561 434.999C69.5569 434.999 68.8378 434.28 68.7179 433.441C68.5981 432.482 70.276 431.283 72.6729 430.564C74.9501 429.845 77.4669 429.246 78.3058 429.126ZM698.881 434.28C701.398 434.999 703.675 436.317 704.035 437.156C704.514 437.995 704.514 438.954 704.155 439.193C703.915 439.553 701.398 438.834 698.642 437.755C695.885 436.557 693.848 434.999 694.087 434.28C694.327 433.321 695.645 433.321 698.881 434.28ZM82.5005 437.036C83.0998 437.396 83.5791 437.995 83.5791 438.474C83.4593 438.834 81.4219 440.032 78.9051 440.991C76.3882 442.07 73.9913 442.909 73.5119 443.148C73.0325 443.268 72.5531 442.669 72.4332 441.71C72.3134 440.871 74.231 439.313 76.7478 438.354C79.2646 437.276 81.9013 436.796 82.5005 437.036ZM104.073 438.714C104.553 438.714 105.511 439.673 106.111 440.991C106.83 442.309 107.309 443.987 107.309 444.587C107.309 445.306 105.272 446.864 98.3205 450.459L96.8823 447.583C96.0434 445.905 95.2044 444.107 95.0846 443.388C94.9648 442.789 96.7625 441.47 99.0396 440.512C101.317 439.553 103.594 438.834 104.073 438.714ZM692.17 440.991C692.889 440.991 695.286 441.83 697.563 442.789C699.96 443.867 701.758 445.186 701.758 445.785C701.758 446.504 701.278 446.984 700.559 446.984C699.96 446.984 697.563 446.264 695.166 445.186C692.889 444.227 690.971 442.909 690.971 442.19C690.971 441.59 691.571 440.991 692.17 440.991ZM83.699 444.706C84.7776 444.706 85.7364 445.186 85.7364 445.785C85.7364 446.504 83.699 447.822 81.302 448.901C78.3058 450.1 76.3882 450.339 75.5493 449.62C74.8302 448.781 75.6691 447.822 77.9463 446.624C79.9837 445.545 82.5005 444.706 83.699 444.706ZM688.934 448.182C689.054 448.182 691.331 449.021 693.968 449.98C696.604 451.058 698.642 452.257 698.522 452.736C698.402 453.216 697.803 454.055 697.323 454.534C696.844 455.013 694.327 454.294 691.93 452.976C689.413 451.658 687.735 450.1 688.095 449.38C688.455 448.781 688.814 448.182 688.934 448.182ZM87.8937 451.897C88.7326 451.897 89.3319 452.377 89.3319 452.976C89.3319 453.695 87.1746 455.253 84.5379 456.571C81.6616 458.01 79.5043 458.489 79.1447 457.77C78.9051 457.171 78.6654 456.452 78.9051 456.212C79.0249 455.972 80.8226 454.893 82.7402 453.815C84.7776 452.736 87.0547 451.897 87.8937 451.897ZM110.305 453.096C111.024 452.976 112.223 454.414 113.062 456.332C113.901 458.129 114.5 459.687 114.26 459.807C114.141 459.807 112.223 460.766 110.066 461.845C107.908 462.923 105.871 463.762 105.511 463.762C105.272 463.762 104.193 462.324 103.234 460.526C101.676 457.29 101.676 457.171 105.392 455.133C107.429 454.055 109.706 453.096 110.305 453.096ZM213.495 452.976C214.813 452.976 214.933 453.455 213.735 455.013C212.416 456.811 212.536 456.931 214.334 456.212C215.652 455.732 217.09 456.212 218.169 457.53C219.607 459.208 219.727 459.927 218.529 461.245C217.21 462.564 217.57 462.684 219.967 461.965C222.723 461.126 222.843 461.245 221.165 463.043C219.487 464.961 219.248 464.961 217.33 462.923C215.652 461.245 215.532 460.526 216.731 459.088C217.929 457.65 217.809 457.53 215.772 458.249C214.214 458.729 213.016 458.369 212.057 456.931C211.218 455.732 210.858 454.414 211.218 453.935C211.457 453.455 212.536 452.976 213.495 452.976ZM685.698 455.373C685.938 455.373 688.095 456.332 690.492 457.53C692.769 458.729 694.687 460.287 694.687 461.126C694.567 461.965 693.968 462.564 693.129 462.564C692.29 462.564 689.893 461.485 687.735 460.167C685.578 458.849 684.14 457.29 684.5 456.571C684.859 455.972 685.339 455.373 685.698 455.373ZM91.0098 459.448C91.609 459.568 92.3281 460.167 92.5678 460.766C92.8075 461.485 91.0098 462.923 88.4929 464.002C85.9761 465.2 83.5791 465.8 83.0998 465.56C82.6204 465.201 82.0211 464.601 81.9013 464.002C81.7814 463.523 83.5791 462.204 85.8563 461.126C88.1334 460.047 90.4105 459.328 91.0098 459.448ZM661.009 460.167C661.489 460.167 661.728 460.766 661.489 461.365C661.249 462.084 661.728 462.324 662.567 462.084C663.406 461.725 664.844 461.965 665.803 462.564C667.002 463.163 667.361 464.362 666.762 465.56C665.923 467.238 665.444 467.238 662.208 465.56C659.811 464.362 658.852 463.163 659.331 461.965C659.691 461.006 660.53 460.167 661.009 460.167ZM686.297 465.081C688.934 466.399 691.091 467.957 691.091 468.676C691.091 469.275 690.492 469.755 689.773 469.755C689.174 469.755 686.897 468.916 684.739 467.837C682.582 466.759 680.664 465.68 680.545 465.44C680.305 465.2 680.545 464.481 680.904 463.762C681.264 463.163 683.421 463.642 686.297 465.081ZM95.6838 466.279C96.1632 466.279 96.5228 466.878 96.6426 467.717C96.6426 468.556 94.6052 470.114 92.0884 471.313C89.212 472.751 87.1746 473.11 86.3357 472.391C85.6166 471.552 86.8151 470.354 89.9311 468.796C92.5678 467.358 95.2044 466.279 95.6838 466.279ZM118.096 466.279C118.455 466.159 119.414 467.478 120.253 469.155C121.092 470.833 121.691 472.511 121.691 472.751C121.691 473.111 119.893 474.429 117.496 475.747C115.219 477.065 113.182 478.264 113.062 478.264C112.822 478.264 111.983 476.586 110.905 474.669C109.946 472.631 109.466 470.833 109.706 470.594C110.066 470.354 111.983 469.275 113.901 468.197C115.938 467.118 117.856 466.279 118.096 466.279ZM656.095 468.556C656.455 468.556 657.294 469.515 658.013 470.474C658.972 472.032 658.852 472.272 657.174 471.672C655.736 471.273 655.017 471.632 655.017 472.751C655.017 473.83 654.418 474.788 653.579 475.028C652.38 475.268 652.38 475.507 653.579 476.227C654.418 476.586 655.856 476.227 656.815 475.148C657.893 474.189 658.612 473.83 658.612 474.309C658.612 474.788 659.451 474.429 660.41 473.35C661.848 472.152 662.328 472.032 662.328 473.11C662.328 473.949 661.489 474.908 660.41 475.148C659.451 475.507 658.852 476.227 659.211 476.706C659.451 477.185 659.092 478.384 658.492 479.343C657.414 480.901 657.294 480.781 657.893 479.103C658.373 477.904 658.253 476.946 657.773 476.946C657.294 476.946 655.976 477.665 654.777 478.504C653.339 479.582 652.979 480.541 653.818 481.74C654.617 482.938 655.017 483.058 655.017 482.099C655.017 481.26 655.616 480.901 656.215 481.14C656.934 481.5 657.174 482.339 656.815 482.938C656.575 483.657 655.496 484.137 654.418 484.137C653.459 484.137 652.38 483.058 652.021 481.74C651.661 480.421 650.822 479.702 649.983 480.062C649.144 480.421 649.264 480.062 650.223 479.223C651.302 478.264 652.14 477.065 652.14 476.346C652.14 475.747 652.859 473.71 653.818 471.912C654.657 470.114 655.736 468.556 656.095 468.556ZM682.702 472.272C685.339 473.59 687.496 475.028 687.496 475.507C687.496 475.987 687.016 476.826 686.537 477.305C686.058 477.785 683.541 476.946 681.144 475.507C678.627 473.949 676.47 472.511 676.35 472.152C676.35 471.672 676.59 471.073 677.069 470.714C677.668 470.234 680.185 470.953 682.702 472.272ZM99.2793 473.47C99.7587 473.47 100.118 474.069 100.118 474.908C100.238 475.747 98.5602 477.305 96.5228 478.504C94.6052 479.702 92.4479 480.541 91.7288 480.541C91.1296 480.541 90.4105 479.822 90.2907 478.983C90.1708 478.144 91.9685 476.586 94.2457 475.507C96.5228 474.429 98.7999 473.47 99.2793 473.47ZM673.593 476.946C673.953 476.946 676.11 478.024 678.387 479.343C680.784 480.661 682.582 482.219 682.702 482.698C682.702 483.178 682.462 484.017 682.103 484.496C681.743 484.975 679.586 484.256 677.189 482.938C674.912 481.62 672.994 479.822 672.994 478.743C672.994 477.785 673.354 476.946 673.593 476.946ZM125.406 479.343C126.006 479.343 128.762 482.818 131.519 486.893C134.275 490.968 139.189 497.919 142.425 502.114C145.661 506.428 153.691 515.896 160.402 523.087C167.233 530.398 176.941 540.226 182.214 544.9C187.488 549.694 196.716 557.124 202.589 561.679C208.581 566.113 218.289 572.824 224.161 576.54C230.154 580.255 241.06 586.367 248.491 590.083C255.921 593.798 267.187 598.951 273.659 601.468C280.011 604.105 289.958 607.581 295.471 609.378C301.104 611.056 311.651 613.813 318.842 615.49C326.152 617.049 337.298 619.206 343.77 620.165C350.122 621.243 358.152 621.962 361.388 621.962C364.744 621.962 367.62 622.442 367.98 622.921C368.219 623.401 368.099 624.479 367.62 625.318C367.021 626.636 364.504 626.636 354.796 625.558C348.205 624.839 338.018 623.401 332.025 622.442C326.152 621.363 316.445 619.326 310.452 617.768C304.58 616.21 293.194 612.734 285.284 610.097C277.374 607.341 266.108 603.026 260.116 600.39C254.243 597.753 242.858 592 234.948 587.566C227.038 583.012 217.09 577.019 212.776 574.143C208.581 571.266 199.952 564.795 193.6 559.881C187.368 554.847 175.862 544.66 168.072 536.99C160.282 529.319 149.616 517.694 144.342 511.102C139.189 504.511 132.238 495.163 128.882 490.129C125.646 485.215 123.249 480.781 123.609 480.301C123.968 479.822 124.807 479.343 125.406 479.343ZM102.875 480.661C103.354 480.661 104.073 481.14 104.313 481.74C104.672 482.459 103.234 484.017 101.077 485.335C98.9198 486.653 96.5228 487.732 95.6838 487.732C94.8449 487.732 94.1258 487.253 94.1258 486.534C94.1258 485.934 95.9235 484.376 98.0808 483.058C100.238 481.859 102.395 480.781 102.875 480.661ZM674.432 486.773C677.069 488.211 679.226 489.769 679.226 490.129C679.106 490.489 678.627 491.208 678.148 491.687C677.668 492.166 675.391 491.327 672.994 490.009C670.717 488.571 668.68 487.133 668.56 487.013C668.32 486.773 668.56 486.054 668.919 485.335C669.399 484.616 671.436 485.095 674.432 486.773ZM107.669 487.732C108.148 487.732 108.508 488.451 108.508 489.29C108.627 490.129 106.95 491.687 104.912 492.885C102.995 494.084 100.837 494.923 100.118 494.923C99.519 494.923 98.9198 494.444 98.7999 493.724C98.6801 493.125 100.478 491.447 102.755 490.129C104.912 488.811 107.189 487.732 107.669 487.732ZM665.563 491.447C666.043 491.447 668.2 492.526 670.357 493.844C672.515 495.163 674.073 496.84 673.833 497.679C673.593 498.518 673.114 498.998 672.635 498.878C672.155 498.758 669.998 497.44 667.601 496.121C665.324 494.803 663.766 493.245 664.125 492.526C664.485 491.927 665.084 491.447 665.563 491.447ZM111.863 495.043C112.702 495.043 113.302 495.522 113.302 496.121C113.302 496.84 111.744 498.399 109.706 499.717C107.789 501.035 105.631 502.114 104.912 502.114C104.313 502.114 103.714 501.515 103.594 500.676C103.474 499.837 104.912 498.159 106.83 497.08C108.747 496.002 111.024 495.043 111.863 495.043ZM661.009 498.518C661.728 498.518 663.886 499.597 665.803 500.915C667.841 502.234 669.399 503.912 669.399 504.511C669.399 505.23 668.799 505.829 667.96 505.829C667.122 505.829 664.964 504.75 663.167 503.432C661.369 502.114 659.811 500.436 659.811 499.717C659.811 499.118 660.41 498.518 661.009 498.518ZM117.257 501.634C117.856 501.994 118.335 502.833 118.215 503.432C118.215 504.031 116.178 505.829 113.901 507.267C111.024 509.065 109.227 509.544 108.508 508.706C107.669 507.986 108.867 506.428 111.624 504.271C114.021 502.593 116.537 501.395 117.257 501.634ZM660.41 507.267C662.807 508.705 664.605 510.623 664.605 511.462C664.605 512.301 664.005 512.9 663.167 512.9C662.328 512.9 660.05 511.582 658.013 510.024C655.976 508.346 654.897 506.668 655.376 505.949C655.976 504.99 657.653 505.47 660.41 507.267ZM120.852 508.226C121.331 508.226 122.051 508.706 122.29 509.305C122.65 510.024 121.212 511.941 119.054 513.499C116.897 515.177 114.74 516.496 114.26 516.496C113.781 516.496 113.182 515.777 113.062 514.818C112.942 513.859 114.38 512.061 116.418 510.743C118.335 509.305 120.373 508.226 120.852 508.226ZM651.182 511.822C651.661 511.822 653.818 512.9 655.976 514.219C658.133 515.537 659.811 517.095 659.811 517.694C659.811 518.413 659.451 519.132 658.972 519.492C658.492 519.732 656.335 518.893 654.178 517.335C652.021 515.896 650.343 514.099 650.343 513.26C650.223 512.421 650.702 511.822 651.182 511.822ZM127.084 515.417C127.923 516.256 127.204 517.574 124.687 519.492C122.77 521.17 120.492 522.488 119.654 522.488C118.815 522.488 117.976 522.009 117.856 521.409C117.736 520.81 119.534 518.893 121.691 517.335C124.408 515.257 126.205 514.618 127.084 515.417ZM627.092 516.855C628.65 518.293 629.609 519.971 629.249 520.451C628.89 520.93 628.051 521.409 627.212 521.409C626.373 521.409 624.815 520.451 623.616 519.252C622.058 517.694 621.819 516.855 622.897 515.657C624.096 514.458 624.935 514.698 627.092 516.855ZM651.062 520.93C653.339 522.608 655.256 524.525 655.137 525.125C655.137 525.604 654.418 526.083 653.579 526.083C652.74 526.083 650.463 524.885 648.545 523.447C646.388 521.769 645.429 520.211 645.908 519.252C646.627 518.174 647.946 518.533 651.062 520.93ZM131.039 521.409C131.878 521.409 132.477 521.769 132.597 522.248C132.597 522.728 130.919 524.765 129.002 526.683C126.125 529.559 124.927 530.039 123.848 528.96C122.65 527.761 123.129 526.803 125.886 524.406C127.923 522.728 130.2 521.409 131.039 521.409ZM618.103 522.009C618.823 522.368 619.302 523.687 619.182 525.005C619.102 526.603 619.661 527.162 620.86 526.683C621.939 526.443 622.658 526.563 622.658 527.042C622.658 527.522 620.5 530.039 613.07 537.469L610.673 535.072C609.354 533.754 608.276 532.076 608.276 531.237C608.276 530.398 609.115 529.679 610.074 529.679C611.152 529.679 611.871 529.2 611.871 528.48C611.871 527.881 612.59 527.761 613.429 528.241C614.268 528.72 614.508 528.6 614.029 527.881C613.549 527.282 614.029 525.484 615.107 524.046C616.066 522.488 617.504 521.649 618.103 522.009ZM641.354 524.885C641.594 524.885 643.511 525.964 645.429 527.282C647.466 528.6 649.024 530.518 649.024 531.477C649.024 532.555 648.785 533.274 648.425 533.274C648.185 533.274 646.028 531.956 643.631 530.278C641.354 528.72 639.796 526.803 640.156 526.083C640.515 525.484 640.995 524.885 641.354 524.885ZM136.432 527.402C136.912 527.402 137.511 527.761 137.871 528.241C138.23 528.72 136.792 530.758 134.874 532.675C132.357 535.432 130.799 536.031 129.241 535.312C127.324 534.473 127.683 533.994 131.279 530.877C133.676 528.96 135.953 527.402 136.432 527.402ZM636.201 530.877C637.039 530.877 639.197 532.555 640.995 534.473C642.792 536.51 643.751 538.428 643.032 538.668C642.433 539.027 640.275 537.829 638.238 536.031C636.32 534.233 634.643 532.316 634.643 531.836C634.643 531.357 635.362 530.877 636.201 530.877ZM142.664 534.713C143.503 535.552 142.664 536.99 139.668 539.387C136.792 541.784 135.114 542.503 134.275 541.664C133.556 540.825 134.395 539.267 137.271 536.87C140.148 534.593 141.826 533.874 142.664 534.713ZM630.807 536.87C631.287 536.87 633.204 538.548 635.002 540.465C636.8 542.503 637.998 544.78 637.519 545.619C637.039 546.578 635.482 545.739 632.845 542.862C630.568 540.585 629.01 538.308 629.369 537.829C629.729 537.349 630.328 536.87 630.807 536.87ZM147.099 539.267C147.698 539.267 148.417 539.866 148.657 540.465C149.016 541.184 147.578 543.342 145.421 545.259C142.904 547.417 141.106 548.375 140.267 547.656C139.548 546.937 140.387 545.259 142.664 542.862C144.582 540.945 146.619 539.267 147.099 539.267ZM624.815 542.982C625.294 542.982 627.212 544.3 629.01 545.978C630.807 547.536 632.246 549.454 632.246 550.053C632.246 550.772 631.646 551.252 630.807 551.252C629.968 551.252 628.051 550.053 626.613 548.615C625.055 547.057 623.856 545.259 623.856 544.42C623.856 543.581 624.336 542.982 624.815 542.982ZM153.091 545.259C153.691 545.259 154.29 545.739 154.649 546.218C155.009 546.697 153.451 548.975 151.174 551.252C148.417 554.128 146.979 554.967 146.38 554.008C146.02 553.169 147.099 550.892 148.897 548.855C150.694 546.937 152.612 545.259 153.091 545.259ZM619.062 548.855C619.781 548.855 621.579 550.413 623.257 552.211C624.935 554.008 626.253 555.926 626.253 556.405C626.253 556.885 625.654 557.364 624.815 557.364C623.976 557.364 622.058 555.686 620.62 553.769C619.062 551.731 617.864 549.814 617.864 549.454C617.864 549.214 618.463 548.855 619.062 548.855ZM159.084 551.252C159.683 551.252 160.282 551.731 160.642 552.211C161.001 552.69 159.443 554.967 157.166 557.244C154.41 560.12 152.971 560.959 152.372 560.001C152.013 559.162 153.091 556.885 154.889 554.847C156.687 552.93 158.604 551.252 159.084 551.252ZM617.025 556.885C618.823 558.802 620.381 560.959 620.381 561.798C620.261 562.637 619.901 563.356 619.422 563.356C618.942 563.356 617.025 561.679 615.227 559.761C613.429 557.724 612.351 555.566 612.71 554.847C613.31 554.008 614.868 554.727 617.025 556.885ZM165.076 557.244C165.675 557.244 166.035 557.963 166.035 558.802C166.035 559.641 164.836 561.559 163.398 562.997C161.84 564.555 160.042 565.753 159.204 565.753C158.365 565.753 157.526 565.274 157.406 564.795C157.286 564.435 158.724 562.517 160.642 560.6C162.559 558.802 164.597 557.244 165.076 557.244ZM576.876 559.881C577.834 560.12 579.273 561.079 579.872 562.038C580.591 563.117 580.711 564.914 580.351 566.233C579.512 568.63 579.392 568.63 576.396 565.634C574.479 563.836 573.64 562.038 574.119 561.079C574.598 560.24 575.917 559.761 576.876 559.881ZM606.838 559.641C607.317 559.641 609.235 561.319 611.032 563.237C612.83 565.274 614.029 567.431 613.669 568.031C613.429 568.75 611.512 567.791 609.474 565.993C607.557 564.195 605.879 562.038 605.879 561.199C605.879 560.36 606.358 559.641 606.838 559.641ZM170.949 562.038C171.548 562.038 172.027 562.757 172.027 563.596C172.027 564.435 170.709 566.712 169.151 568.63C167.473 570.787 165.795 571.866 164.956 571.386C164.117 570.787 164.717 569.109 166.754 566.233C168.552 563.956 170.349 562.038 170.949 562.038ZM568.846 565.753C569.205 565.753 569.565 566.113 569.565 566.592C569.685 567.072 569.805 568.51 569.805 569.828C569.924 571.866 570.164 571.985 571.003 570.427C571.842 569.109 572.201 568.989 572.801 570.188C573.28 571.027 572.681 572.345 571.722 573.184C570.643 574.023 569.924 574.263 569.924 573.783C569.924 573.304 568.846 573.903 567.527 575.221C565.849 577.019 564.651 577.379 563.333 576.42C562.014 575.581 561.535 575.821 561.295 577.259C561.056 578.937 560.576 578.697 556.741 572.824L560.456 573.783C563.453 574.502 564.052 574.263 564.052 572.585C563.932 571.386 563.333 570.427 562.494 570.427C561.655 570.427 562.614 569.469 564.531 568.15C566.569 566.952 568.486 565.873 568.846 565.753ZM600.845 565.634C601.325 565.634 603.242 567.311 605.04 569.229C606.838 571.266 608.036 573.424 607.677 574.023C607.437 574.742 605.519 573.783 603.482 571.985C601.564 570.188 599.886 568.03 599.886 567.192C599.886 566.353 600.366 565.634 600.845 565.634ZM176.701 568.031C177.061 568.031 177.9 568.27 178.379 568.63C178.859 568.989 177.78 571.147 175.982 573.424C174.185 575.701 172.267 577.259 171.788 577.019C171.308 576.66 170.829 576.06 170.709 575.461C170.709 574.862 171.788 572.944 173.226 571.266C174.664 569.469 176.222 568.031 176.701 568.031ZM267.307 570.427C268.386 570.427 271.382 571.626 274.258 573.064C277.015 574.382 283.367 577.019 288.28 578.937C293.314 580.734 303.022 583.85 309.853 585.888C316.804 587.805 328.43 590.562 335.621 591.88C342.931 593.199 355.635 594.996 363.785 595.716C372.054 596.554 385.957 596.914 394.706 596.674C409.208 596.315 410.526 596.435 410.526 598.352C410.526 600.27 408.728 600.39 387.515 600.39C371.216 600.39 359.71 599.671 348.205 598.112C339.336 596.794 324.834 593.918 315.846 591.641C306.977 589.364 295.351 585.888 290.078 583.97C284.805 582.053 277.134 578.937 273.06 577.019C268.865 575.102 265.509 572.824 265.509 571.985C265.509 571.147 266.348 570.427 267.307 570.427ZM594.853 570.427C595.332 570.427 597.25 572.345 599.048 574.622C601.445 577.738 601.924 579.057 600.845 579.656C599.886 580.135 597.969 578.817 596.051 576.42C594.254 574.143 593.055 571.866 593.415 571.386C593.774 570.907 594.373 570.427 594.853 570.427ZM184.132 572.824C184.731 572.824 185.211 573.304 185.211 573.783C185.211 574.263 184.012 576.42 182.574 578.577C181.016 580.734 179.458 582.412 178.979 582.412C178.499 582.412 177.78 581.933 177.421 581.214C177.181 580.615 178.259 578.457 179.937 576.42C181.615 574.502 183.533 572.824 184.132 572.824ZM591.737 578.817C593.654 581.214 595.212 583.491 595.093 583.97C595.093 584.45 594.493 584.929 593.654 584.929C592.815 584.929 590.898 583.251 589.46 581.334C587.902 579.296 587.063 577.019 587.542 576.18C588.141 575.102 589.46 576.06 591.737 578.817ZM190.244 577.618C190.844 577.618 191.443 578.098 191.802 578.577C192.042 579.057 190.963 581.214 189.405 583.371C187.727 585.528 185.93 587.206 185.211 587.206C184.611 587.206 184.012 586.727 184.012 586.008C184.012 585.409 185.211 583.251 186.649 581.214C188.087 579.296 189.645 577.618 190.244 577.618ZM581.669 580.015C582.149 580.135 583.947 581.933 585.505 584.33C587.502 587.126 588.101 588.924 587.302 589.723C586.583 590.442 585.025 589.364 582.868 586.367C581.07 583.85 579.992 581.453 580.231 580.974C580.591 580.495 581.19 580.015 581.669 580.015ZM197.795 583.491C198.634 584.33 198.154 585.768 196.357 588.405C194.799 590.442 192.881 592 191.802 592C190.844 592 190.005 591.641 190.005 591.281C189.885 590.802 191.323 588.644 193.241 586.367C195.518 583.611 196.956 582.652 197.795 583.491ZM577.954 588.045C579.512 589.963 580.711 592.12 580.711 592.959C580.711 593.798 580.351 594.637 579.872 594.996C579.392 595.236 577.714 593.678 576.276 591.401C574.718 589.124 573.999 586.607 574.479 585.888C575.078 585.049 576.276 585.768 577.954 588.045ZM203.308 587.206C203.907 587.206 204.626 587.686 204.986 588.165C205.225 588.644 204.386 590.802 202.828 592.959C201.39 595.116 199.592 596.794 198.754 596.794C197.915 596.794 197.196 596.554 197.076 596.075C196.956 595.716 198.034 593.558 199.473 591.281C201.031 589.124 202.709 587.206 203.308 587.206ZM568.486 589.723C568.966 589.723 570.524 591.521 572.082 593.918C573.52 596.195 574.718 598.352 574.718 598.592C574.718 598.951 573.999 599.191 572.921 599.191C571.962 599.191 570.164 597.513 568.846 595.356C567.527 593.199 566.808 591.041 567.168 590.562C567.408 590.083 568.007 589.603 568.486 589.723ZM210.379 592C211.098 592 211.577 592.599 211.577 593.199C211.577 593.918 210.619 596.075 209.54 598.112C208.341 600.03 206.783 601.708 205.944 601.708C205.106 601.588 204.386 601.229 204.386 600.749C204.386 600.27 205.465 598.112 206.783 595.955C208.102 593.798 209.78 592 210.379 592ZM520.187 594.397C521.266 594.397 522.584 595.715 523.303 597.154C524.262 599.071 524.262 600.15 523.303 600.989C522.345 601.828 521.386 601.468 520.187 599.79C519.228 598.472 518.389 596.794 518.389 595.955C518.389 595.116 519.228 594.397 520.187 594.397ZM561.775 594.397C562.374 594.397 563.812 596.195 565.13 598.352C566.449 600.509 567.527 602.667 567.527 603.146C567.527 603.625 566.808 603.985 565.73 603.985C564.771 603.985 562.853 602.187 561.535 599.79C560.217 597.513 559.498 595.356 559.977 594.996C560.456 594.757 561.175 594.397 561.775 594.397ZM689.893 594.637L693.488 597.753C695.406 599.431 697.084 601.468 696.964 602.187C696.964 602.906 695.526 604.944 690.372 610.097L682.582 602.187L689.893 594.637ZM218.289 596.674C219.128 597.513 218.768 599.191 217.09 601.828C215.772 603.865 213.974 605.783 213.135 606.022C212.416 606.262 211.577 605.903 211.458 605.064C211.338 604.345 212.536 601.828 214.094 599.67C216.132 596.794 217.33 595.835 218.289 596.674ZM511.199 598.112C511.798 598.112 512.038 598.592 511.798 599.311C511.558 599.91 511.558 601.229 511.918 602.307C512.277 603.266 513.116 603.625 513.955 603.146C514.914 602.587 515.154 602.906 514.674 604.105C514.315 605.064 513.116 605.663 512.038 605.543C510.959 605.423 510.12 605.783 510.12 606.502C510.12 607.101 509.521 607.7 508.921 607.7C508.202 607.7 507.963 607.101 508.322 606.502C508.682 605.783 508.083 605.303 507.124 605.303C506.165 605.303 505.086 606.382 504.727 607.7C504.367 609.019 503.528 610.097 502.929 610.097C502.21 610.097 501.131 608.659 500.532 607.101C499.813 605.423 499.573 603.506 499.933 602.906C500.292 602.187 501.011 601.708 501.491 601.708C502.09 601.708 502.33 602.307 501.97 603.146C501.731 603.985 502.21 603.745 503.169 602.547C504.008 601.348 505.686 600.509 506.884 600.509C507.963 600.509 509.161 599.91 509.521 599.311C509.88 598.592 510.719 598.112 511.199 598.112ZM554.344 597.993C554.704 597.993 556.262 600.15 557.7 602.787C559.378 605.663 559.977 607.94 559.258 608.3C558.539 608.539 557.82 608.659 557.7 608.539C557.46 608.419 556.142 606.382 554.704 604.105C553.265 601.708 552.426 599.431 552.906 598.951C553.265 598.472 553.984 598.112 554.344 597.993ZM224.881 600.509C225.48 600.509 226.079 600.989 226.079 601.708C226.079 602.307 225 604.704 223.682 607.101C222.364 609.378 220.686 610.936 220.087 610.697C219.367 610.337 218.888 609.618 218.888 609.138C218.888 608.659 219.967 606.502 221.285 604.345C222.603 602.187 224.161 600.509 224.881 600.509ZM547.273 602.906C547.872 602.906 549.55 604.584 550.868 606.742C552.067 608.899 553.146 611.056 553.265 611.535C553.265 612.015 552.426 612.494 551.468 612.494C550.509 612.494 548.831 610.816 547.872 608.899C546.913 606.861 546.075 604.704 546.075 604.105C546.075 603.386 546.554 602.906 547.273 602.906ZM232.431 604.824C232.91 605.423 232.431 607.94 231.232 610.337C230.034 612.854 228.716 614.891 228.116 614.891C227.637 614.891 227.038 614.292 226.678 613.693C226.319 612.974 227.277 610.577 228.716 608.18C230.154 605.783 231.832 604.345 232.431 604.824ZM540.322 606.502C540.801 606.502 542.359 608.659 543.678 611.296C545.715 615.371 545.835 616.09 544.277 616.689C543.078 617.049 541.64 615.73 540.082 612.734C538.764 610.217 538.045 607.82 538.524 607.341C538.884 606.861 539.723 606.502 540.322 606.502ZM239.622 608.419C240.221 609.019 239.742 611.296 238.543 613.693C237.465 615.97 236.386 618.007 236.146 618.127C235.907 618.247 235.068 618.127 234.468 617.887C233.749 617.528 234.349 615.251 235.907 612.255C237.465 609.498 239.023 607.82 239.622 608.419ZM532.771 609.977C533.131 609.977 534.449 612.015 535.648 614.532C537.086 617.408 537.326 619.445 536.606 620.284C535.887 621.004 534.569 619.805 533.011 616.689C531.693 614.052 530.854 611.416 531.333 610.936C531.693 610.457 532.412 610.097 532.771 609.977ZM675.511 610.097C675.87 609.977 677.668 611.655 683.301 617.288L675.631 625.078L672.994 622.681C671.676 621.363 669.998 619.326 669.399 618.127C668.56 616.569 669.159 615.371 671.556 613.094C673.474 611.416 675.151 610.097 675.511 610.097ZM247.053 612.374C247.891 613.213 247.532 615.011 246.094 617.887C245.015 620.165 243.457 622.082 242.858 622.082C242.139 622.082 241.659 621.483 241.659 620.884C241.659 620.165 242.618 617.768 243.697 615.371C245.135 612.374 246.214 611.536 247.053 612.374ZM525.101 613.693C526.06 613.693 527.618 615.61 528.577 618.127C529.535 620.644 530.015 623.041 529.775 623.52C529.535 624 528.936 624.479 528.337 624.479C527.858 624.479 526.539 622.562 525.341 620.284C524.262 617.887 523.303 615.49 523.303 614.891C523.303 614.172 524.142 613.693 525.101 613.693ZM253.524 614.771C253.884 614.771 254.603 615.011 255.082 615.371C255.682 615.73 255.082 618.247 253.884 620.884C252.805 623.52 251.487 625.678 250.888 625.678C250.408 625.678 249.809 625.078 249.449 624.479C249.09 623.76 249.689 621.363 250.768 619.086C251.846 616.689 253.165 614.771 253.524 614.771ZM460.503 617.648C461.342 619.086 462.061 620.884 462.181 621.723C462.181 622.562 461.102 623.281 459.784 623.281C458.106 623.281 457.147 622.202 456.668 619.925C456.308 618.007 456.668 616.329 457.506 615.85C458.465 615.251 459.664 615.97 460.503 617.648ZM449.237 617.408C449.836 617.288 450.196 617.768 450.196 618.487C450.196 619.086 449.477 619.206 448.758 618.726C447.679 618.127 447.439 618.487 448.158 619.925C448.638 621.123 448.997 622.562 448.997 623.281C448.997 623.88 449.477 624.12 450.196 623.88C450.795 623.52 451.394 623.76 451.394 624.479C451.394 625.078 450.316 625.318 448.997 625.078C447.679 624.719 446.361 624.959 446.001 625.678C445.641 626.277 444.443 626.517 443.244 626.277C442.166 625.917 440.368 626.277 439.409 627.116C437.851 628.434 437.851 628.434 439.409 626.517C440.967 624.599 440.967 624.359 439.05 624.359C437.971 624.359 437.012 623.88 437.012 623.281C437.012 622.562 437.492 622.322 438.211 622.681C438.81 622.921 439.409 622.681 439.409 622.082C439.409 621.363 438.69 620.524 437.851 620.284C437.132 619.925 437.612 619.925 439.05 620.284C440.608 620.524 441.806 620.284 441.806 619.685C441.806 618.966 443.244 618.247 445.042 618.007C446.96 617.768 448.758 617.528 449.237 617.408ZM517.551 617.168C518.389 617.168 519.828 619.086 520.547 621.363C521.386 623.76 521.745 626.277 521.266 627.116C520.786 628.075 519.708 627.116 518.389 624.479C517.191 622.082 516.232 619.565 516.112 618.726C516.112 617.888 516.831 617.288 517.551 617.168ZM261.554 618.487C262.513 618.487 263.232 618.966 263.232 619.685C263.232 620.284 262.393 622.562 261.314 624.719C260.236 626.876 259.157 628.794 258.917 628.914C258.678 629.033 257.839 628.914 257.24 628.674C256.521 628.194 256.76 626.277 257.959 623.281C259.037 620.644 260.715 618.487 261.554 618.487ZM413.163 619.805C413.522 619.685 413.642 620.884 413.282 622.322C412.923 623.76 411.724 627.475 410.646 630.472C409.447 633.348 408.009 635.985 407.41 636.104C406.93 636.344 405.013 633.468 403.095 629.872C401.298 626.157 399.859 622.681 399.859 622.082C399.859 621.363 402.736 620.644 406.091 620.404C409.567 620.284 412.803 619.925 413.163 619.805ZM510.36 619.685C510.839 619.685 512.157 621.842 513.116 624.479C514.075 627.116 514.914 629.513 514.914 629.872C514.914 630.112 514.195 630.472 513.356 630.472C512.637 630.472 510.959 628.314 509.76 625.678C508.682 623.041 508.083 620.524 508.562 620.284C508.921 619.925 509.76 619.685 510.36 619.685ZM268.745 622.082C269.704 622.082 270.423 622.562 270.423 623.281C270.423 623.88 269.584 626.397 268.625 628.914C267.427 631.91 266.348 632.988 265.629 632.269C264.91 631.43 264.91 629.393 265.869 626.517C266.588 624 267.906 622.082 268.745 622.082ZM378.287 622.082C381.523 622.082 384.279 622.322 384.279 622.681C384.279 622.921 382.961 625.917 381.283 629.273C379.605 632.509 378.047 635.266 377.687 635.266C377.328 635.266 376.009 632.749 374.691 629.872C373.373 626.876 372.294 623.88 372.294 623.281C372.294 622.562 374.931 622.082 378.287 622.082ZM502.21 623.281C503.408 623.281 504.607 624.959 505.446 627.715C506.285 630.831 506.285 632.629 505.446 633.468C504.607 634.187 503.888 633.707 503.169 631.67C502.569 629.992 501.611 627.356 501.131 625.917C500.532 623.88 500.772 623.281 502.21 623.281ZM276.895 624.479C277.614 624.479 277.973 625.678 277.734 627.116C277.494 628.554 276.775 631.071 276.296 632.509C275.696 633.947 274.857 635.266 274.258 635.266C273.779 635.266 273.06 635.026 272.46 634.666C271.981 634.307 272.46 631.91 273.539 629.273C274.618 626.636 276.056 624.479 276.895 624.479ZM494.54 625.678C495.139 625.678 496.218 626.876 496.817 628.314C497.296 629.753 498.135 632.269 498.615 633.708C499.094 635.625 498.854 636.464 497.536 636.464C496.577 636.464 495.139 634.666 494.54 632.509C493.821 630.352 493.341 627.955 493.341 627.116C493.341 626.277 493.821 625.678 494.54 625.678ZM284.805 626.876C285.404 626.876 286.003 627.475 286.003 628.314C286.003 629.153 285.524 631.55 284.805 633.708C284.086 635.865 282.767 637.662 281.809 637.662C280.49 637.662 280.251 636.824 280.73 634.906C281.209 633.468 281.928 630.951 282.528 629.513C283.127 628.075 284.086 626.876 284.805 626.876ZM487.588 628.075C488.308 628.075 489.386 629.992 489.866 632.509C490.465 635.026 490.944 637.423 490.944 637.902C490.944 638.382 490.225 638.861 489.386 638.861C488.667 638.861 487.349 636.824 486.51 634.307C485.671 631.91 485.311 629.393 485.671 628.914C486.03 628.434 486.869 628.075 487.588 628.075ZM291.876 629.153C292.235 629.153 292.954 629.513 293.434 629.872C294.033 630.232 293.913 632.629 293.194 635.266C292.475 638.142 291.277 640.059 290.198 640.059C289.239 640.059 288.4 639.58 288.4 639.101C288.4 638.621 288.999 636.224 289.719 633.708C290.438 631.191 291.396 629.153 291.876 629.153ZM479.199 630.472C479.678 630.472 480.637 632.149 481.356 634.307C482.075 636.464 482.555 638.861 482.555 639.7C482.555 640.539 481.836 641.258 480.997 641.258C480.278 641.258 478.72 639.101 477.881 636.464C476.922 633.827 476.562 631.43 477.162 631.071C477.641 630.711 478.6 630.472 479.199 630.472ZM300.385 631.67C301.104 631.67 301.584 632.749 301.584 634.067C301.584 635.385 300.984 637.782 300.385 639.46C299.666 641.018 298.587 642.456 297.988 642.456C297.269 642.456 297.029 640.539 297.509 637.902C297.868 635.385 298.467 632.988 298.707 632.509C299.067 632.03 299.786 631.67 300.385 631.67ZM471.289 632.869C472.847 632.869 473.446 634.067 473.806 637.902C474.046 640.659 473.926 643.295 473.566 643.655C473.207 643.895 472.488 643.655 471.888 643.056C471.289 642.337 470.45 639.82 470.091 637.303C469.371 633.588 469.611 632.869 471.289 632.869ZM308.295 634.067C309.254 634.067 309.973 634.666 309.973 635.505C309.973 636.344 309.494 638.741 308.774 640.898C308.055 643.056 306.977 644.853 306.378 644.853C305.658 644.853 305.179 644.134 305.179 643.295C305.179 642.456 305.419 640.059 305.898 637.902C306.258 635.745 307.336 634.067 308.295 634.067ZM316.085 635.266C316.684 635.266 317.404 635.625 317.643 636.224C317.883 636.824 317.643 639.221 317.044 641.617C316.445 644.254 315.246 646.052 314.168 646.052C313.089 646.052 312.61 645.213 312.849 643.895C313.209 642.696 313.808 640.299 314.168 638.501C314.647 636.704 315.486 635.266 316.085 635.266ZM462.66 635.266C463.739 635.266 464.817 636.464 465.177 637.902C465.416 639.34 465.896 641.617 466.016 642.936C466.255 644.134 465.656 645.333 464.817 645.572C463.978 645.812 463.139 644.614 462.66 642.696C462.3 640.898 461.821 638.501 461.461 637.303C460.982 635.945 461.382 635.266 462.66 635.266ZM455.229 636.464C455.709 636.464 456.428 637.063 456.668 637.902C456.907 638.741 457.506 641.138 457.866 643.295C458.345 646.052 458.106 647.25 457.027 647.25C456.308 647.25 454.75 645.093 453.911 642.456C452.952 639.82 452.593 637.423 453.192 637.063C453.671 636.704 454.63 636.464 455.229 636.464ZM324.355 637.662C325.074 637.662 325.553 638.861 325.553 640.299C325.553 641.737 325.194 644.254 324.954 645.692C324.594 647.13 323.516 648.449 322.557 648.449C321.598 648.449 320.759 647.969 320.759 647.49C320.759 647.011 321.359 644.614 321.958 642.097C322.677 639.58 323.756 637.662 324.355 637.662ZM447.919 638.382C448.278 638.981 448.997 641.378 449.477 643.895C450.076 647.49 449.836 648.449 448.398 648.449C447.199 648.449 446.361 646.891 446.001 644.254C445.641 641.857 445.761 639.46 446.241 638.741C446.72 638.022 447.439 637.902 447.919 638.382ZM332.744 638.861C333.463 638.861 333.943 640.059 333.943 641.498C333.943 642.936 333.583 645.453 333.343 646.891C332.984 648.329 331.905 649.647 330.946 649.647C329.508 649.647 329.269 648.689 329.868 645.093C330.347 642.576 330.827 640.179 331.186 639.7C331.426 639.221 332.145 638.861 332.744 638.861ZM340.534 640.059C341.493 640.059 342.332 640.659 342.332 641.498C342.332 642.337 341.973 644.734 341.493 646.891C340.894 649.168 339.815 650.846 338.737 650.846C337.298 650.846 337.179 650.007 337.898 646.891C338.377 644.734 338.737 642.337 338.737 641.498C338.737 640.659 339.576 640.059 340.534 640.059ZM432.578 644.494C433.177 647.011 433.297 649.647 432.938 650.486C432.578 651.325 431.859 652.044 431.26 652.044C430.78 652.044 429.821 649.767 429.222 646.891C428.263 642.816 428.383 641.737 429.702 641.018C431.02 640.299 431.739 641.138 432.578 644.494ZM438.81 640.059C440.488 640.059 441.207 641.018 441.447 643.895C441.686 646.052 441.806 648.449 441.806 649.288C441.806 650.127 440.967 650.846 440.009 650.846C439.05 650.846 438.211 650.127 438.211 649.288C438.211 648.449 437.851 646.052 437.372 643.895C436.773 640.659 437.012 640.059 438.81 640.059ZM348.684 641.258C349.643 641.258 350.122 642.337 349.883 643.895C349.763 645.333 349.523 647.85 349.523 649.288C349.523 651.086 348.804 652.044 347.366 652.044C345.688 652.044 345.448 651.445 346.287 648.089C346.766 645.932 347.126 643.535 347.126 642.696C347.126 641.857 347.845 641.258 348.684 641.258ZM422.99 641.258C423.709 641.258 424.428 642.936 424.788 645.093C425.028 647.25 425.028 650.127 424.548 651.445C424.069 652.883 423.35 653.363 422.75 652.644C422.151 651.924 421.312 649.408 420.713 647.011C420.114 644.614 420.234 642.337 420.833 641.977C421.312 641.498 422.391 641.258 422.99 641.258ZM356.834 642.456C357.433 642.456 357.912 644.853 357.912 647.85C357.912 651.805 357.433 653.243 356.115 653.243C355.156 653.243 354.317 652.524 354.317 651.685C354.317 650.846 354.557 648.449 355.036 646.292C355.396 644.134 356.234 642.456 356.834 642.456ZM365.223 642.456C365.822 642.456 366.302 644.853 366.302 647.85C366.302 651.805 365.822 653.243 364.504 653.243C363.545 653.243 362.706 652.524 362.706 651.685C362.706 650.846 362.946 648.449 363.425 646.292C363.785 644.134 364.624 642.456 365.223 642.456ZM407.29 643.056C407.889 643.415 408.369 645.932 408.369 648.449C408.249 651.805 407.769 653.243 406.451 653.243C405.133 653.243 404.533 651.805 404.414 648.569C404.294 646.052 404.653 643.655 405.133 643.295C405.732 642.816 406.691 642.816 407.29 643.056ZM414.241 642.456C414.84 642.456 415.679 643.175 416.039 644.254C416.398 645.213 416.638 647.61 416.638 649.647C416.638 652.044 416.039 653.243 414.84 653.243C413.522 653.243 413.043 651.805 413.043 647.85C413.043 644.853 413.522 642.456 414.241 642.456ZM373.133 643.655C374.092 643.655 374.691 645.213 374.691 648.449C374.691 651.924 374.212 653.243 372.893 653.243C371.575 653.243 371.096 651.924 371.335 648.449C371.455 645.333 372.054 643.655 373.133 643.655ZM381.163 643.655C382.601 643.655 383.081 644.973 383.081 649.048C383.081 652.763 382.601 654.321 381.522 653.962C380.803 653.842 379.964 651.325 379.725 648.569C379.365 644.734 379.725 643.655 381.163 643.655ZM389.672 643.655C390.991 643.655 391.47 644.973 391.47 648.449C391.47 651.086 390.871 653.482 390.271 653.842C389.552 654.082 388.833 653.602 388.474 652.644C388.114 651.565 387.874 649.168 387.874 647.25C387.874 644.853 388.474 643.655 389.672 643.655ZM397.942 643.655C399.38 643.655 399.739 644.734 399.5 648.689C399.38 651.445 398.661 653.842 398.062 653.842C397.343 653.842 396.743 651.445 396.504 648.689C396.144 644.734 396.504 643.655 397.942 643.655Z" fill="#F4F4F4"/>
</svg>
