<svg width="721" height="654" viewBox="0 0 721 654" fill="none" xmlns="http://www.w3.org/2000/svg">
<path fill-rule="evenodd" clip-rule="evenodd" d="M316.864 0.0272827C318.661 0.0272827 319.141 0.866222 319.021 3.86243C318.901 6.01971 318.062 7.93728 316.983 8.29683C315.665 8.65637 315.425 8.29683 316.144 6.85865C316.624 5.66016 316.504 5.06092 315.785 5.42046C315.186 5.78001 314.586 4.70137 314.586 3.02349C314.586 0.866222 315.186 0.0272827 316.864 0.0272827ZM271.801 6.2594C272.639 6.61895 273.478 8.65637 273.718 10.9335C274.078 14.6488 273.838 14.8885 271.561 14.0496C270.123 13.5702 269.044 13.69 269.044 14.4091C269.044 15.1282 267.965 15.3679 266.647 15.0083C265.329 14.6488 264.25 14.8885 264.25 15.6076C264.25 16.3267 263.291 16.8061 262.213 16.8061C260.774 16.8061 260.535 16.4865 261.494 15.8473C262.332 15.3679 262.692 13.8099 262.452 12.2518C262.093 10.5739 261.374 9.97471 260.415 10.4541C259.376 11.0933 259.176 10.8935 259.816 9.85486C260.295 9.13577 261.254 8.65637 261.853 9.01592C262.572 9.37547 264.13 9.01592 265.568 8.17698C267.846 6.85865 267.965 6.9785 266.407 8.89607C265.089 10.6938 265.089 10.9335 267.007 10.8136C268.085 10.8136 269.284 9.73501 269.643 8.29683C270.003 6.85865 270.962 6.01971 271.801 6.2594ZM251.666 12.0121C252.625 12.0121 253.823 13.4503 254.183 15.248C254.542 17.1656 254.542 18.8435 254.183 19.203C253.823 19.5626 252.625 19.4427 251.666 18.8435C250.707 18.3641 249.868 16.6862 249.868 15.0083C249.868 13.0908 250.587 12.0121 251.666 12.0121ZM210.798 30.3489C211.876 32.1467 212.476 33.9444 212.116 34.4238C211.756 35.023 211.517 34.6635 211.517 33.8246C211.517 33.1055 210.558 32.3864 209.479 32.3864C208.281 32.2665 206.483 33.1055 205.524 34.1841C203.966 35.862 203.966 36.1017 206.124 36.1017C207.921 35.9818 207.682 36.4612 204.925 37.7796C203.007 38.8582 200.85 39.5773 200.131 39.5773C199.532 39.5773 199.772 38.978 200.73 38.3788C201.929 37.5798 202.049 37.1803 201.09 37.1803C200.251 37.1803 199.532 36.3414 199.532 35.2627C199.532 34.0643 199.053 33.8246 198.094 34.4238C197.135 35.063 196.895 34.7833 197.375 33.5849C197.734 32.6261 198.813 31.907 200.011 32.0268C201.09 32.2665 201.929 31.7871 201.929 31.1879C201.929 30.4688 203.007 29.7497 204.326 29.3902C205.644 29.0306 206.962 29.2703 207.322 29.9894C207.682 30.5886 208.521 31.1879 209.12 31.1879C209.839 31.1879 209.959 30.2291 209.599 29.0306C209.24 27.952 209.839 28.4314 210.798 30.2291V30.3489ZM189.824 37.3002C191.262 37.3002 192.581 38.1391 192.94 39.0979C193.3 40.0567 193.539 41.7346 193.539 42.6933C193.539 43.6521 192.701 44.4911 191.742 44.4911C190.783 44.4911 189.944 43.8918 189.944 43.2926C189.944 42.6933 190.663 42.4536 191.502 42.933C192.341 43.2926 192.461 43.1727 191.981 42.5735C191.382 41.9743 190.304 41.4949 189.584 41.4949C188.746 41.4949 188.026 40.5361 187.787 39.3376C187.427 37.8994 188.146 37.3002 189.824 37.3002ZM151.832 61.2699C152.671 61.2699 153.989 62.5882 154.828 64.2661C156.147 66.7829 156.147 67.3821 154.828 68.1012C153.87 68.5806 152.312 69.7791 151.353 70.8577C149.675 72.4158 149.196 72.4158 147.518 70.8577C145.72 69.2997 145.48 69.2997 145.6 71.0974C145.6 72.2959 146.199 73.2547 147.038 73.2547C147.997 73.2547 148.117 73.6942 147.398 74.573C146.679 75.2921 145.48 75.5318 144.761 75.1723C143.802 74.6929 143.563 73.4944 144.042 71.6967C144.761 69.5394 144.521 69.1799 142.844 69.8989C141.645 70.4982 140.806 70.3783 140.806 69.6593C140.806 69.06 141.645 68.4608 142.604 68.4608C143.563 68.4608 144.641 67.6218 145.001 66.663C145.36 65.7043 146.439 64.8653 147.398 64.8653C148.357 64.8653 149.435 64.0264 149.795 63.0676C150.034 62.1088 150.993 61.2699 151.832 61.2699ZM135.772 74.4532C137.45 74.4532 137.57 74.6929 136.012 75.5318C134.574 76.3708 134.694 76.7303 136.971 77.3296C138.409 77.6891 139.608 78.8876 139.608 79.8464C139.608 80.8052 138.769 81.6441 137.81 81.6441C136.851 81.6441 135.173 80.4456 134.214 78.8876C133.256 77.4494 132.776 75.8914 133.136 75.2921C133.495 74.8127 134.694 74.4532 135.772 74.4532ZM93.5858 88.5953C95.8629 90.393 97.6607 92.1908 97.6607 92.6702C97.6607 93.2694 96.9416 93.9885 96.2225 94.348C95.3835 94.8274 93.1064 93.5091 91.1889 91.7114C89.2713 89.674 88.1926 87.6365 88.5522 86.7976C89.1514 85.5991 90.5896 86.1983 93.5858 88.5953ZM84.2376 92.4305C84.717 92.4305 86.8743 93.9885 89.0316 95.7862C91.7481 97.9435 92.7069 99.4216 91.9079 100.221C91.1089 101.02 89.2713 100.301 86.3949 98.0634C83.9979 96.2656 82.3201 94.2282 82.6796 93.629C83.159 93.0297 83.7582 92.4305 84.2376 92.4305ZM80.0429 99.142C80.8819 99.6214 82.6796 101.06 84.2376 102.498C85.6758 103.936 86.8743 105.374 86.8743 105.854C86.8743 106.453 86.1552 106.812 85.4361 106.812C84.5972 106.692 82.3201 105.494 80.2826 103.936C78.0055 102.138 77.0467 100.58 77.646 99.7412C78.2452 99.0221 79.3238 98.7824 80.0429 99.142ZM74.1704 105.614C74.8895 105.614 77.1666 107.052 79.0841 108.73C81.4811 110.767 82.3201 112.205 81.4811 112.925C80.762 113.644 78.7246 112.925 75.8482 110.767C73.3314 108.85 71.6535 107.052 72.1329 106.453C72.4925 105.973 73.4513 105.614 74.1704 105.614ZM103.054 106.812C104.132 106.812 104.852 108.011 104.852 109.808C104.852 111.486 105.451 112.565 106.05 112.205C106.769 111.846 106.41 112.925 105.451 114.602C104.492 116.28 103.174 117.599 102.455 117.599C101.855 117.599 101.496 116.76 101.855 115.801C102.215 114.842 101.975 114.003 101.256 114.003C100.657 114.003 99.5782 115.202 99.0989 116.64C98.1401 119.277 98.0202 119.277 96.2225 114.602L95.3836 116.999C94.9042 118.318 94.1851 118.797 93.8255 118.198C93.3461 117.599 94.4248 115.561 95.9828 113.644C97.5408 111.846 98.8591 111.007 98.8591 111.606C98.8591 112.205 99.9378 112.805 101.256 112.805C102.934 112.805 103.653 111.966 103.653 110.048C103.653 108.011 103.413 107.771 102.455 109.209C101.855 110.168 101.136 110.647 100.777 110.048C100.417 109.569 100.297 108.61 100.657 108.011C101.136 107.412 102.215 106.812 103.054 106.812ZM68.2978 111.606C68.6573 111.606 70.5749 112.805 72.4925 114.243C74.5299 115.801 76.0879 117.719 76.0879 118.438C76.0879 119.277 75.8482 119.996 75.4887 119.996C75.1292 119.996 73.0917 118.797 71.0543 117.359C68.897 115.921 66.9795 114.602 66.8596 114.363C66.6199 114.123 66.7398 113.404 67.0993 112.805C67.5787 112.205 68.0581 111.606 68.2978 111.606ZM63.5038 118.797C63.8634 118.797 65.9008 119.996 68.1779 121.434C70.6948 123.112 72.0131 124.79 71.5337 125.629C70.9344 126.707 69.4963 126.348 66.2604 124.19C63.7435 122.512 61.9458 120.595 62.3054 119.996C62.7848 119.396 63.2641 118.797 63.5038 118.797ZM89.0316 122.393C89.511 122.393 91.1888 123.351 92.7469 124.55C94.3049 125.629 95.2637 127.187 94.7843 128.025C94.4248 128.864 93.5858 129.583 92.8667 129.583C92.2675 129.583 91.9079 128.984 92.2675 128.385C92.627 127.786 92.1476 127.546 91.4285 127.906C90.5896 128.265 89.1514 127.666 88.4323 126.707C87.5934 125.628 87.114 124.19 87.4735 123.591C87.9529 122.992 88.5522 122.393 89.0316 122.393ZM58.4702 125.988C59.1893 125.988 61.7061 127.306 63.8634 128.745C66.5001 130.502 67.4189 131.781 66.6199 132.58C65.8209 133.379 64.0232 132.859 61.2267 131.022C58.8298 129.584 56.9122 127.786 56.9122 127.187C56.9122 126.587 57.6313 125.988 58.4702 125.988ZM54.8748 132.7C55.7137 133.179 57.871 134.737 59.6687 136.055C61.9059 137.733 62.625 138.972 61.826 139.771C61.027 140.57 59.3091 140.01 56.6725 138.093C54.5152 136.415 52.5976 134.977 52.4778 134.737C52.2381 134.497 52.4778 133.778 52.8373 133.179C53.1969 132.46 54.1557 132.34 54.8748 132.7ZM49.122 139.171C49.4816 139.171 51.6388 140.25 53.916 141.568C56.1931 142.887 58.1107 144.565 58.1107 145.164C58.1107 145.763 57.7511 146.602 57.2717 146.842C56.6725 147.201 54.5152 146.362 52.4778 145.044C50.3205 143.845 48.5228 141.928 48.5228 140.969C48.5228 140.01 48.7625 139.171 49.122 139.171ZM72.2528 142.767C72.7322 142.767 74.8895 143.845 77.0467 145.164C80.762 147.441 80.762 147.681 79.0841 150.557C78.1254 152.235 76.5673 153.553 75.8482 153.553C75.0093 153.553 72.9719 152.714 71.294 151.516C69.6161 150.437 68.0581 149.359 67.6985 149.239C67.339 148.999 68.0581 147.441 69.2566 145.763C70.3352 144.085 71.7734 142.767 72.2528 142.767ZM49.6014 148.999C51.9984 150.437 54.0358 151.755 54.2755 151.995C54.3954 152.235 54.2755 152.834 53.916 153.553C53.5564 154.272 51.2793 153.673 48.5228 151.995C45.8861 150.557 43.609 148.999 43.4891 148.639C43.3693 148.28 43.7288 147.561 44.3281 147.201C44.8075 146.722 47.2044 147.561 49.6014 148.999ZM41.3319 154.752C42.051 154.752 44.2082 155.591 46.1258 156.549C48.1632 157.508 49.7213 159.186 49.7213 160.145C49.7213 161.583 48.8823 161.583 44.9273 159.546C42.2907 158.227 40.1334 156.669 40.1334 155.95C40.1334 155.231 40.7326 154.752 41.3319 154.752ZM36.8975 161.943C37.0173 161.943 39.2944 162.662 41.9311 163.74C44.8075 164.819 46.6052 166.257 46.3655 167.336C46.2457 168.295 45.8861 169.134 45.5266 169.134C45.167 169.134 42.7701 168.055 40.1334 166.737C37.4967 165.418 35.5791 163.86 35.9387 163.141C36.4181 162.422 36.7776 161.943 36.8975 161.943ZM33.5417 169.134C33.9013 169.134 36.0585 170.092 38.3357 171.171C40.7326 172.369 42.5304 174.047 42.5304 174.766C42.5304 175.605 42.2907 176.324 41.9311 176.324C41.5716 176.324 39.1746 175.246 36.5379 173.927C33.9013 172.609 31.9837 171.051 32.3432 170.332C32.8226 169.613 33.302 169.134 33.5417 169.134ZM33.9013 178.482C36.5379 179.44 38.6952 180.999 38.8151 181.957C38.8151 182.796 38.4555 183.515 37.7364 183.515C37.1372 183.515 34.7402 182.557 32.4631 181.358C30.186 180.279 28.5081 178.721 28.7478 178.002C29.1073 176.924 30.5455 177.163 33.9013 178.482ZM26.7104 184.714C27.1897 184.714 29.5867 185.433 32.1035 186.512C34.5005 187.47 36.5379 188.789 36.5379 189.508C36.5379 190.227 35.8188 190.706 35.0998 190.706C34.2608 190.706 31.744 190.227 29.7066 189.508C27.5493 188.909 25.7516 187.47 25.7516 186.512C25.7516 185.553 26.1111 184.714 26.7104 184.714ZM27.9088 193.822C30.4257 194.781 32.4631 195.5 32.7028 195.5C32.8226 195.5 32.9425 196.339 32.9425 197.298C32.9425 198.257 32.7028 199.096 32.3432 199.096C31.9837 199.096 29.5867 198.257 26.9501 197.298C24.3134 196.339 22.0363 195.021 21.9164 194.541C21.7966 193.942 22.1561 193.223 22.6355 192.744C23.1149 192.384 25.5119 192.744 27.9088 193.822ZM20.9576 200.294C21.6767 200.294 24.0737 201.133 26.3508 202.092C28.6279 203.051 30.5455 204.369 30.5455 205.088C30.5455 205.807 29.8264 206.287 29.1073 206.287C28.2684 206.287 25.7516 205.567 23.5943 204.729C21.437 204.009 19.7591 202.571 19.7591 201.732C19.7591 201.013 20.3584 200.294 20.9576 200.294ZM18.9202 208.684C19.7591 208.684 22.1561 209.163 24.3134 209.882C26.9501 210.721 27.9088 211.68 27.5493 212.878C27.0699 214.436 26.3508 214.436 21.5569 212.878C18.5607 211.919 16.4034 210.601 16.7629 209.882C17.2423 209.163 18.0813 208.684 18.9202 208.684ZM19.3996 217.313C21.9164 218.032 24.5531 218.751 25.1523 219.11C25.9513 219.51 25.9513 220.109 25.1523 220.908C24.4332 221.627 22.0363 221.387 18.8004 220.429C16.0438 219.59 13.6469 218.511 13.527 218.152C13.4072 217.792 13.7667 217.193 14.1263 216.833C14.6057 216.474 17.0026 216.713 19.3996 217.313ZM15.924 224.983C17.7217 225.462 20.1187 226.181 21.1973 226.541C22.3958 226.9 22.8752 227.859 22.3958 228.698C21.7966 229.897 20.5981 229.897 17.0026 228.698C14.6057 227.859 12.5682 226.541 12.5682 225.702C12.5682 224.743 13.6469 224.503 15.924 224.983ZM31.3844 230.616L36.4181 231.934C41.0922 233.133 41.4517 233.492 41.0922 236.848C40.7326 240.204 40.4929 240.443 35.9387 240.084C33.302 239.964 30.7852 239.365 30.4257 238.885C30.0661 238.406 30.0661 236.368 30.5455 234.331L31.3844 230.616ZM11.6094 232.653C12.4484 232.653 14.8454 233.133 17.0026 233.852C19.1599 234.571 20.9576 235.649 20.9576 236.249C20.9576 236.968 19.879 237.447 18.5607 237.447C17.2423 237.447 14.8454 236.968 13.1675 236.249C11.4896 235.649 10.1713 234.571 10.1713 233.852C10.1713 233.252 10.7705 232.653 11.6094 232.653ZM9.21247 241.043C10.0514 241.043 12.5682 241.402 14.7255 242.001C16.8828 242.481 18.5607 243.559 18.5607 244.398C18.5607 245.237 18.0813 245.837 17.6019 245.837C17.1225 245.837 14.7255 245.357 12.2087 244.638C9.81172 244.039 7.77429 242.96 7.77429 242.241C7.77429 241.642 8.37353 241.043 9.21247 241.043ZM11.8491 249.911C14.4858 250.271 17.0026 250.87 17.3622 251.23C17.7217 251.589 17.3622 252.428 16.7629 253.027C15.924 253.747 13.8866 253.747 11.0102 253.027C8.61323 252.428 6.69565 251.23 6.69565 250.511C6.85545 249.632 8.57328 249.432 11.8491 249.911ZM7.53459 257.102C8.61323 257.342 11.13 257.941 13.0476 258.301C14.9652 258.78 16.4034 259.739 16.2835 260.578C16.1637 261.657 14.6057 261.776 10.411 261.177C7.2949 260.698 4.65823 259.979 4.41853 259.619C4.29868 259.379 4.53838 258.421 4.89793 257.821C5.25747 257.102 6.45596 256.743 7.53459 257.102ZM8.13384 265.731C10.1713 266.091 12.5682 266.69 13.4072 266.93C14.2461 267.17 14.9652 268.009 14.9652 268.608C14.9652 269.327 13.4072 269.806 11.6094 269.806C9.81172 269.806 7.17505 269.567 5.61702 269.207C3.93914 268.847 3.22005 268.009 3.57959 266.93C4.05899 265.612 5.37732 265.372 8.13384 265.731ZM26.8302 266.211C28.5081 266.211 31.0249 266.57 32.3432 266.93C34.5005 267.529 34.6204 268.128 33.5417 274.36C32.9425 278.196 32.4631 296.532 32.4631 315.349C32.4631 345.67 32.7028 351.183 35.2196 364.487C36.6578 372.756 39.4143 385.46 41.3319 392.651C43.1296 399.962 46.6052 411.227 49.0022 417.819C51.3991 424.411 53.3167 430.044 53.3167 430.403C53.3167 430.763 51.2793 431.722 48.7625 432.56C46.3655 433.519 43.9685 433.759 43.4891 433.16C42.8899 432.68 40.6128 426.808 38.2158 420.216C35.9387 413.624 32.9425 404.156 31.6241 399.243C30.3058 394.329 27.9088 383.782 26.3508 375.872C24.7928 367.962 22.9951 356.097 22.276 349.505C21.6767 342.914 20.7179 332.367 20.3584 326.135C19.879 319.903 20.1187 306.72 20.8378 296.772C21.5569 286.945 22.5157 276.038 22.8752 272.563C23.5943 266.69 23.834 266.211 26.8302 266.211ZM5.85671 273.881C7.2949 274.241 9.57202 274.6 11.0102 274.6C12.6881 274.6 13.7667 275.319 13.7667 276.398C13.7667 277.357 12.8079 278.196 11.6094 278.196C10.5308 278.196 7.77429 277.956 5.61702 277.596C2.62081 277.117 1.90171 276.518 2.6208 275.08C3.1002 273.881 4.29868 273.522 5.85671 273.881ZM5.85671 282.27C7.89414 282.75 10.1713 282.99 11.0102 282.99C11.8491 282.99 12.5682 283.829 12.5682 284.787C12.5682 285.746 11.8491 286.585 11.0102 286.585C10.1713 286.585 7.77429 286.225 5.61702 285.746C3.3399 285.147 1.78187 284.068 1.90171 283.109C2.02156 281.911 3.22005 281.671 5.85671 282.27ZM4.77808 290.66C6.09641 291.019 8.13384 291.379 9.21247 291.379C10.411 291.379 11.3697 292.098 11.3697 292.937C11.3697 293.896 9.57202 294.255 5.97656 294.135C2.98035 293.896 0.463532 293.297 0.343683 292.817C0.223835 292.218 0.703229 291.379 1.30247 290.9C1.78187 290.42 3.45974 290.3 4.77808 290.66ZM4.65823 299.049C6.69565 299.529 8.97278 299.768 9.81172 299.768C10.6507 299.768 11.3697 300.368 11.3697 300.967C11.3697 301.686 8.97278 302.165 5.97656 302.165C1.66202 302.165 0.58338 301.806 0.703229 300.248C0.942926 298.69 1.78187 298.45 4.65823 299.049ZM3.45974 307.439C4.77808 307.798 7.17505 308.158 8.61323 308.158C10.1713 308.158 11.3697 308.757 11.3697 309.356C11.3697 310.075 8.97278 310.555 5.97656 310.555C1.66202 310.555 0.58338 310.195 0.703229 308.637C0.823077 307.319 1.66202 306.959 3.45974 307.439ZM565.31 314.15C565.789 314.15 566.268 318.345 566.268 323.498C566.268 328.532 565.669 337.281 564.95 342.914C564.351 348.547 562.913 357.176 561.954 362.09C560.875 367.003 557.999 377.55 555.362 385.46C552.845 393.37 548.171 405.235 544.935 411.827C541.699 418.418 536.186 428.366 532.711 433.999C529.235 439.632 523.123 448.5 518.928 453.774C514.853 459.047 507.423 467.436 502.629 472.47C497.715 477.504 491.003 483.856 487.768 486.492C481.775 491.526 481.775 491.526 483.813 494.522C485.011 496.2 485.49 497.878 485.011 498.237C484.532 498.597 482.015 496.56 474.944 488.53L478.659 493.683C480.696 496.44 482.135 499.316 481.775 499.915C481.416 500.634 476.382 504.23 470.629 508.185C464.876 512.02 457.446 516.574 454.21 518.372C450.854 520.05 447.498 521.488 446.66 521.488C445.821 521.488 445.221 521.128 445.221 520.649C445.221 520.17 444.742 518.971 444.263 518.132C443.663 517.054 441.266 517.653 434.435 520.769C429.521 522.926 421.371 526.282 416.458 527.96C411.544 529.758 402.316 532.514 396.083 534.192C389.851 535.75 379.305 537.907 372.713 538.866C365.043 540.184 353.058 540.784 339.755 540.784C326.212 540.904 314.467 540.184 306.796 538.866C300.205 537.907 289.418 535.63 282.827 533.952C276.235 532.274 265.688 529.039 259.456 526.642C253.224 524.364 247.711 522.087 247.232 521.728C246.752 521.248 246.752 520.29 247.232 519.451C247.831 518.372 251.426 519.331 260.655 522.806C267.606 525.443 278.632 528.919 285.224 530.477C291.815 532.155 303.441 534.312 310.991 535.271C318.541 536.229 331.245 537.068 339.155 537.068C347.065 537.068 358.331 536.469 364.324 535.87C370.196 535.151 377.747 534.072 381.102 533.353C384.338 532.634 390.57 531.316 394.885 530.237C399.199 529.278 405.072 527.6 408.068 526.642C411.064 525.683 418.255 522.926 424.248 520.529C430.12 518.252 436.233 515.496 437.791 514.417C440.068 512.859 440.427 511.9 439.708 508.904C438.989 505.548 438.989 505.428 440.907 507.106C442.824 508.664 442.944 508.664 442.225 507.106C441.746 505.788 443.903 503.87 450.255 500.035C455.049 497.159 462.24 492.365 466.195 489.488C470.15 486.612 473.865 484.335 474.584 484.335C475.183 484.335 476.741 485.174 477.82 486.133C479.738 487.811 480.457 487.571 484.412 484.095C486.929 482.058 491.603 477.863 494.839 474.867C497.955 471.871 504.666 464.56 509.7 458.568C514.733 452.695 522.404 442.148 526.958 435.197C531.512 428.246 537.505 417.819 540.381 411.827C543.257 405.954 547.332 396.246 549.49 390.254C551.527 384.381 554.523 374.314 556.081 368.082C557.639 361.85 559.797 350.824 560.875 343.513C561.834 336.322 562.553 327.094 562.433 323.019C562.313 319.064 562.673 315.349 563.272 314.989C563.751 314.51 564.71 314.15 565.31 314.15ZM5.61702 315.588C8.37353 315.828 10.7705 316.667 11.0102 317.506C11.2499 318.465 9.69187 318.944 5.97656 318.944C1.90171 318.944 0.58338 318.465 0.58338 317.146C0.703229 315.708 1.78187 315.349 5.61702 315.588ZM5.97656 323.738C9.93156 323.738 11.3697 324.217 11.3697 325.536C11.3697 326.854 9.93156 327.334 5.97656 327.334C2.02156 327.334 0.58338 326.854 0.58338 325.536C0.58338 324.217 2.02156 323.738 5.97656 323.738ZM5.97656 332.127C9.93156 332.127 11.3697 332.607 11.3697 333.925C11.3697 335.244 9.93156 335.723 5.97656 335.723C2.02156 335.723 0.58338 335.244 0.58338 333.925C0.58338 332.607 2.02156 332.127 5.97656 332.127ZM7.17505 340.517C10.1713 340.517 12.5682 341.116 12.5682 341.715C12.5682 342.434 11.7293 343.154 10.7705 343.513C9.81172 343.873 7.2949 344.112 5.37732 344.112C2.98035 344.112 1.78187 343.513 1.78187 342.315C1.78187 340.996 3.22005 340.517 7.17505 340.517ZM12.3285 349.505C12.5682 350.225 12.0888 351.183 11.13 351.663C10.2911 352.142 8.01399 352.382 6.21626 352.262C4.41853 352.022 2.8605 351.423 2.8605 350.704C2.8605 350.105 4.89793 349.266 7.41474 348.906C9.93156 348.547 12.0888 348.906 12.3285 349.505ZM11.6094 356.337C12.8079 356.217 13.7667 356.936 13.7667 357.895C13.7667 358.854 12.5682 359.932 11.0102 360.292C9.57202 360.651 7.17505 360.891 5.61702 360.891C4.05899 360.891 2.98035 360.172 2.98035 359.093C2.98035 358.015 4.29868 357.176 6.21626 356.936C8.01399 356.696 10.5308 356.337 11.6094 356.337ZM129.421 363.288C130.499 363.288 131.458 364.846 131.937 367.243C132.297 369.4 133.376 373.835 134.454 377.071C135.533 380.426 137.331 385.939 138.529 389.415C140.087 393.61 141.405 395.647 142.844 395.767C144.402 395.767 146.679 399.243 150.394 407.272C153.39 413.624 158.903 423.572 162.619 429.444C166.454 435.197 170.049 440.231 170.768 440.59C171.367 440.95 173.165 440.59 174.603 439.871C177.12 438.553 177.839 439.152 183.352 445.504C186.588 449.339 193.779 456.89 209 471.751L199.652 482.537L192.101 475.466C187.907 471.631 181.555 465.159 177.959 461.084C174.244 457.129 169.33 451.377 167.053 448.38C164.656 445.384 159.742 438.433 156.027 432.8C152.312 427.167 146.319 416.381 142.724 408.83C139.128 401.28 134.214 389.295 131.817 382.224C129.54 375.153 127.623 367.962 127.623 366.284C127.623 364.487 128.342 363.288 129.421 363.288ZM12.8079 364.726C14.0064 364.606 14.9652 365.206 14.9652 366.045C14.9652 366.884 13.2873 367.962 11.13 368.442C8.97277 368.921 6.45596 369.28 5.61702 369.28C4.77808 369.28 4.17884 368.442 4.17884 367.483C4.17884 366.404 5.49717 365.565 7.41474 365.325C9.21247 365.086 11.7293 364.726 12.8079 364.726ZM666.941 369.28C668.859 369.28 671.375 369.52 672.334 369.88C673.293 370.239 674.132 371.318 674.132 372.277C674.132 373.595 673.293 373.955 670.776 373.355C668.978 372.996 666.581 372.397 665.383 372.157C664.304 371.917 663.346 371.198 663.346 370.479C663.346 369.88 664.904 369.28 666.941 369.28ZM13.4072 372.996C14.9652 372.996 16.1637 373.595 16.1637 374.434C16.1637 375.273 14.1263 376.232 11.7293 376.711C9.21247 377.19 6.69565 377.31 6.21626 377.071C5.73687 376.711 5.37732 375.992 5.37732 375.273C5.37732 374.674 6.57581 373.835 8.01399 373.595C9.57202 373.355 11.969 373.116 13.4072 372.996ZM665.982 377.67C668.14 377.67 670.776 378.149 671.735 378.749C672.694 379.348 673.053 380.426 672.574 381.145C671.975 382.104 670.297 382.104 666.941 381.265C664.304 380.666 662.147 379.587 662.147 378.868C662.147 378.269 663.825 377.67 665.982 377.67ZM17.3622 381.865C17.9614 382.584 17.8416 383.423 17.0026 383.902C16.1637 384.262 13.6469 384.861 11.4896 385.1C9.21247 385.34 7.17505 384.981 6.93535 384.262C6.69565 383.662 8.73308 382.584 11.4896 381.865C14.8454 381.026 16.7629 381.026 17.3622 381.865ZM663.106 385.34C664.185 385.58 666.581 386.179 668.379 386.539C670.656 387.018 671.495 387.857 671.136 389.055C670.656 390.614 669.817 390.614 665.982 389.535C663.585 388.816 661.068 387.977 660.589 387.737C660.11 387.497 660.11 386.659 660.469 386.059C660.829 385.34 662.027 384.981 663.106 385.34ZM18.2011 388.576C19.0401 388.576 19.7591 389.295 19.7591 390.254C19.7591 391.213 18.5607 392.291 17.0026 392.651C15.5644 393.01 13.1675 393.25 11.6094 393.25C10.1713 393.25 8.85293 392.771 8.73308 392.052C8.61323 391.452 10.2911 390.374 12.5682 389.775C14.8454 389.175 17.3622 388.696 18.2011 388.576ZM663.106 393.849C665.503 394.209 668.02 395.168 668.739 395.767C669.338 396.366 669.698 397.085 669.338 397.565C668.979 397.924 666.581 397.804 664.065 397.205C661.428 396.726 659.151 395.527 658.911 394.569C658.672 393.25 659.51 393.13 663.106 393.849ZM19.9988 396.965C21.1973 396.965 22.1561 397.445 22.1561 398.044C22.1561 398.763 20.8378 399.842 19.1599 400.441C17.482 401.16 15.085 401.64 13.7667 401.64C12.3285 401.64 11.6094 401.04 11.969 400.201C12.3285 399.362 13.7667 398.404 15.3247 397.924C16.7629 397.445 18.9202 397.085 19.9988 396.965ZM710.686 399.123L714.88 399.842C717.158 400.321 719.555 401.16 720.274 401.759C720.993 402.479 720.513 406.194 718.596 412.785C717.158 418.179 714.161 427.767 712.244 433.999C710.206 440.231 706.012 451.856 702.896 459.766C699.78 467.676 694.147 480.38 690.312 487.93C686.476 495.481 681.563 504.949 679.166 508.904C676.888 512.859 670.537 522.687 655.555 545.338L651.001 542.342C648.125 540.544 646.806 538.986 647.406 538.027C648.005 537.188 652.679 529.997 657.952 522.087C663.226 514.057 670.896 501.473 674.971 493.923C679.046 486.372 685.158 473.669 688.634 465.759C691.989 457.849 697.622 442.748 701.098 432.201C704.573 421.654 708.169 409.909 709.008 406.074L710.686 399.123ZM662.027 401.999C664.544 402.598 666.701 403.917 666.821 404.875C666.941 405.714 666.582 406.434 666.102 406.434C665.623 406.434 663.106 405.834 660.709 404.995C658.192 404.156 656.035 403.198 655.915 402.838C655.915 402.359 656.155 401.759 656.514 401.4C656.994 401.04 659.391 401.28 662.027 401.999ZM23.4744 405.834C24.0737 406.553 23.834 407.392 22.9951 407.872C22.276 408.231 19.879 408.95 17.7217 409.31C14.9652 409.909 13.7667 409.669 13.7667 408.591C13.7667 407.752 15.6843 406.553 18.0813 405.834C21.0775 404.995 22.7554 404.995 23.4744 405.834ZM654.716 408.83C655.196 408.83 657.593 409.43 660.11 410.029C662.746 410.748 664.544 412.066 664.544 413.025C664.544 414.344 663.825 414.703 661.907 414.104C660.349 413.744 657.952 412.905 656.514 412.306C654.956 411.707 653.758 410.748 653.758 410.029C653.758 409.43 654.237 408.83 654.716 408.83ZM24.3134 412.785C25.2722 412.905 25.9913 413.624 25.9913 414.224C25.9913 414.943 23.9538 416.141 21.437 416.98C18.321 417.939 16.4034 418.059 15.5644 417.34C14.8454 416.541 15.8441 415.542 18.5607 414.344C20.9576 413.385 23.4744 412.666 24.3134 412.785ZM656.035 417.699C658.432 418.179 660.949 419.018 661.548 419.617C662.267 420.336 662.387 421.295 661.907 421.774C661.308 422.254 658.791 422.014 656.155 421.175C653.518 420.336 651.481 419.018 651.6 418.299C651.72 417.46 653.278 417.22 656.035 417.699ZM28.5081 420.456C29.1073 420.815 29.5867 421.534 29.4669 422.134C29.4669 422.733 26.9501 424.051 23.9538 425.01C19.04 426.688 18.6805 426.688 19.1599 424.89C19.5194 423.812 21.5569 422.254 23.5943 421.415C25.6317 420.695 27.9088 420.216 28.5081 420.456ZM650.162 424.411C650.881 424.411 653.278 425.25 655.555 426.209C657.952 427.287 659.75 428.605 659.75 429.205C659.75 429.924 659.391 430.403 658.911 430.403C658.432 430.403 655.915 429.804 653.518 428.965C651.001 428.126 648.964 426.808 648.964 425.969C648.964 425.13 649.563 424.411 650.162 424.411ZM30.3058 428.126C31.1447 428.126 31.744 428.605 31.744 429.205C31.744 429.924 29.9463 431.242 27.5493 432.201C25.2722 433.28 22.8752 433.999 22.1561 433.999C21.5569 433.999 20.8378 433.28 20.7179 432.441C20.5981 431.482 22.276 430.283 24.6729 429.564C26.9501 428.845 29.4669 428.246 30.3058 428.126ZM650.881 433.28C653.398 433.999 655.675 435.317 656.035 436.156C656.514 436.995 656.514 437.954 656.155 438.193C655.915 438.553 653.398 437.834 650.642 436.755C647.885 435.557 645.848 433.999 646.087 433.28C646.327 432.321 647.645 432.321 650.881 433.28ZM34.5005 436.036C35.0998 436.396 35.5791 436.995 35.5791 437.474C35.4593 437.834 33.4219 439.032 30.9051 439.991C28.3882 441.07 25.9913 441.909 25.5119 442.148C25.0325 442.268 24.5531 441.669 24.4332 440.71C24.3134 439.871 26.231 438.313 28.7478 437.354C31.2646 436.276 33.9013 435.796 34.5005 436.036ZM56.0732 437.714C56.5526 437.714 57.5114 438.673 58.1107 439.991C58.8298 441.309 59.3091 442.987 59.3091 443.587C59.3091 444.306 57.2717 445.864 50.3205 449.459L48.8823 446.583C48.0434 444.905 47.2044 443.107 47.0846 442.388C46.9648 441.789 48.7625 440.47 51.0396 439.512C53.3167 438.553 55.5938 437.834 56.0732 437.714ZM644.17 439.991C644.889 439.991 647.286 440.83 649.563 441.789C651.96 442.867 653.758 444.186 653.758 444.785C653.758 445.504 653.278 445.984 652.559 445.984C651.96 445.984 649.563 445.264 647.166 444.186C644.889 443.227 642.971 441.909 642.971 441.19C642.971 440.59 643.571 439.991 644.17 439.991ZM35.699 443.706C36.7776 443.706 37.7364 444.186 37.7364 444.785C37.7364 445.504 35.699 446.822 33.302 447.901C30.3058 449.1 28.3882 449.339 27.5493 448.62C26.8302 447.781 27.6691 446.822 29.9463 445.624C31.9837 444.545 34.5005 443.706 35.699 443.706ZM640.934 447.182C641.054 447.182 643.331 448.021 645.968 448.98C648.604 450.058 650.642 451.257 650.522 451.736C650.402 452.216 649.803 453.055 649.323 453.534C648.844 454.013 646.327 453.294 643.93 451.976C641.413 450.658 639.735 449.1 640.095 448.38C640.455 447.781 640.814 447.182 640.934 447.182ZM39.8937 450.897C40.7326 450.897 41.3319 451.377 41.3319 451.976C41.3319 452.695 39.1746 454.253 36.5379 455.571C33.6616 457.01 31.5043 457.489 31.1447 456.77C30.9051 456.171 30.6654 455.452 30.9051 455.212C31.0249 454.972 32.8226 453.893 34.7402 452.815C36.7776 451.736 39.0547 450.897 39.8937 450.897ZM62.3054 452.096C63.0245 451.976 64.2229 453.414 65.0619 455.332C65.9008 457.129 66.5001 458.687 66.2604 458.807C66.1405 458.807 64.2229 459.766 62.0657 460.845C59.9084 461.923 57.871 462.762 57.5114 462.762C57.2717 462.762 56.1931 461.324 55.2343 459.526C53.6763 456.29 53.6763 456.171 57.3916 454.133C59.429 453.055 61.7061 452.096 62.3054 452.096ZM165.495 451.976C166.813 451.976 166.933 452.455 165.735 454.013C164.416 455.811 164.536 455.931 166.334 455.212C167.652 454.732 169.09 455.212 170.169 456.53C171.607 458.208 171.727 458.927 170.529 460.245C169.21 461.564 169.57 461.684 171.967 460.965C174.723 460.126 174.843 460.245 173.165 462.043C171.487 463.961 171.248 463.961 169.33 461.923C167.652 460.245 167.532 459.526 168.731 458.088C169.929 456.65 169.809 456.53 167.772 457.249C166.214 457.729 165.016 457.369 164.057 455.931C163.218 454.732 162.858 453.414 163.218 452.935C163.457 452.455 164.536 451.976 165.495 451.976ZM637.698 454.373C637.938 454.373 640.095 455.332 642.492 456.53C644.769 457.729 646.687 459.287 646.687 460.126C646.567 460.965 645.968 461.564 645.129 461.564C644.29 461.564 641.893 460.485 639.735 459.167C637.578 457.849 636.14 456.29 636.5 455.571C636.859 454.972 637.339 454.373 637.698 454.373ZM43.0098 458.448C43.609 458.568 44.3281 459.167 44.5678 459.766C44.8075 460.485 43.0098 461.923 40.4929 463.002C37.9761 464.2 35.5791 464.8 35.0998 464.56C34.6204 464.201 34.0211 463.601 33.9013 463.002C33.7814 462.523 35.5791 461.204 37.8563 460.126C40.1334 459.047 42.4105 458.328 43.0098 458.448ZM613.009 459.167C613.489 459.167 613.728 459.766 613.489 460.365C613.249 461.084 613.728 461.324 614.567 461.084C615.406 460.725 616.844 460.965 617.803 461.564C619.002 462.163 619.361 463.362 618.762 464.56C617.923 466.238 617.444 466.238 614.208 464.56C611.811 463.362 610.852 462.163 611.331 460.965C611.691 460.006 612.53 459.167 613.009 459.167ZM638.297 464.081C640.934 465.399 643.091 466.957 643.091 467.676C643.091 468.275 642.492 468.755 641.773 468.755C641.174 468.755 638.897 467.916 636.739 466.837C634.582 465.759 632.664 464.68 632.545 464.44C632.305 464.2 632.545 463.481 632.904 462.762C633.264 462.163 635.421 462.642 638.297 464.081ZM47.6838 465.279C48.1632 465.279 48.5228 465.878 48.6426 466.717C48.6426 467.556 46.6052 469.114 44.0884 470.313C41.212 471.751 39.1746 472.11 38.3357 471.391C37.6166 470.552 38.8151 469.354 41.9311 467.796C44.5678 466.358 47.2044 465.279 47.6838 465.279ZM70.0955 465.279C70.4551 465.159 71.4138 466.478 72.2528 468.155C73.0917 469.833 73.691 471.511 73.691 471.751C73.691 472.111 71.8932 473.429 69.4963 474.747C67.2191 476.065 65.1817 477.264 65.0619 477.264C64.8222 477.264 63.9832 475.586 62.9046 473.669C61.9458 471.631 61.4664 469.833 61.7061 469.594C62.0657 469.354 63.9832 468.275 65.9008 467.197C67.9382 466.118 69.8558 465.279 70.0955 465.279ZM608.095 467.556C608.455 467.556 609.294 468.515 610.013 469.474C610.972 471.032 610.852 471.272 609.174 470.672C607.736 470.273 607.017 470.632 607.017 471.751C607.017 472.83 606.418 473.788 605.579 474.028C604.38 474.268 604.38 474.507 605.579 475.227C606.418 475.586 607.856 475.227 608.815 474.148C609.893 473.189 610.612 472.83 610.612 473.309C610.612 473.788 611.451 473.429 612.41 472.35C613.848 471.152 614.328 471.032 614.328 472.11C614.328 472.949 613.489 473.908 612.41 474.148C611.451 474.507 610.852 475.227 611.211 475.706C611.451 476.185 611.092 477.384 610.492 478.343C609.414 479.901 609.294 479.781 609.893 478.103C610.373 476.904 610.253 475.946 609.773 475.946C609.294 475.946 607.976 476.665 606.777 477.504C605.339 478.582 604.979 479.541 605.818 480.74C606.617 481.938 607.017 482.058 607.017 481.099C607.017 480.26 607.616 479.901 608.215 480.14C608.934 480.5 609.174 481.339 608.815 481.938C608.575 482.657 607.496 483.137 606.418 483.137C605.459 483.137 604.38 482.058 604.021 480.74C603.661 479.421 602.822 478.702 601.983 479.062C601.144 479.421 601.264 479.062 602.223 478.223C603.302 477.264 604.14 476.065 604.14 475.346C604.14 474.747 604.859 472.71 605.818 470.912C606.657 469.114 607.736 467.556 608.095 467.556ZM634.702 471.272C637.339 472.59 639.496 474.028 639.496 474.507C639.496 474.987 639.016 475.826 638.537 476.305C638.058 476.785 635.541 475.946 633.144 474.507C630.627 472.949 628.47 471.511 628.35 471.152C628.35 470.672 628.59 470.073 629.069 469.714C629.668 469.234 632.185 469.953 634.702 471.272ZM51.2793 472.47C51.7587 472.47 52.1182 473.069 52.1182 473.908C52.2381 474.747 50.5602 476.305 48.5228 477.504C46.6052 478.702 44.4479 479.541 43.7288 479.541C43.1296 479.541 42.4105 478.822 42.2907 477.983C42.1708 477.144 43.9685 475.586 46.2457 474.507C48.5228 473.429 50.7999 472.47 51.2793 472.47ZM625.593 475.946C625.953 475.946 628.11 477.024 630.387 478.343C632.784 479.661 634.582 481.219 634.702 481.698C634.702 482.178 634.462 483.017 634.103 483.496C633.743 483.975 631.586 483.256 629.189 481.938C626.912 480.62 624.994 478.822 624.994 477.743C624.994 476.785 625.354 475.946 625.593 475.946ZM77.4063 478.343C78.0055 478.343 80.762 481.818 83.5185 485.893C86.2751 489.968 91.1889 496.919 94.4248 501.114C97.6607 505.428 105.691 514.896 112.402 522.087C119.233 529.398 128.941 539.226 134.214 543.9C139.488 548.694 148.716 556.124 154.589 560.679C160.581 565.113 170.289 571.824 176.161 575.54C182.154 579.255 193.06 585.367 200.491 589.083C207.921 592.798 219.187 597.951 225.659 600.468C232.011 603.105 241.958 606.581 247.471 608.378C253.104 610.056 263.651 612.813 270.842 614.49C278.152 616.049 289.298 618.206 295.77 619.165C302.122 620.243 310.152 620.962 313.388 620.962C316.744 620.962 319.62 621.442 319.98 621.921C320.219 622.401 320.099 623.479 319.62 624.318C319.021 625.636 316.504 625.636 306.796 624.558C300.205 623.839 290.018 622.401 284.025 621.442C278.152 620.363 268.445 618.326 262.452 616.768C256.58 615.21 245.194 611.734 237.284 609.097C229.374 606.341 218.108 602.026 212.116 599.39C206.243 596.753 194.858 591 186.948 586.566C179.038 582.012 169.09 576.019 164.776 573.143C160.581 570.266 151.952 563.795 145.6 558.881C139.368 553.847 127.862 543.66 120.072 535.99C112.282 528.319 101.616 516.694 96.3423 510.102C91.1888 503.511 84.2376 494.163 80.8819 489.129C77.646 484.215 75.249 479.781 75.6085 479.301C75.9681 478.822 76.807 478.343 77.4063 478.343ZM54.8748 479.661C55.3541 479.661 56.0732 480.14 56.3129 480.74C56.6725 481.459 55.2343 483.017 53.077 484.335C50.9198 485.653 48.5228 486.732 47.6838 486.732C46.8449 486.732 46.1258 486.253 46.1258 485.534C46.1258 484.934 47.9235 483.376 50.0808 482.058C52.2381 480.859 54.3954 479.781 54.8748 479.661ZM626.432 485.773C629.069 487.211 631.226 488.769 631.226 489.129C631.106 489.489 630.627 490.208 630.148 490.687C629.668 491.166 627.391 490.327 624.994 489.009C622.717 487.571 620.68 486.133 620.56 486.013C620.32 485.773 620.56 485.054 620.919 484.335C621.399 483.616 623.436 484.095 626.432 485.773ZM59.6687 486.732C60.1481 486.732 60.5076 487.451 60.5076 488.29C60.6275 489.129 58.9496 490.687 56.9122 491.885C54.9946 493.084 52.8373 493.923 52.1182 493.923C51.519 493.923 50.9198 493.444 50.7999 492.724C50.6801 492.125 52.4778 490.447 54.7549 489.129C56.9122 487.811 59.1893 486.732 59.6687 486.732ZM617.563 490.447C618.043 490.447 620.2 491.526 622.357 492.844C624.515 494.163 626.073 495.84 625.833 496.679C625.593 497.518 625.114 497.998 624.635 497.878C624.155 497.758 621.998 496.44 619.601 495.121C617.324 493.803 615.766 492.245 616.125 491.526C616.485 490.927 617.084 490.447 617.563 490.447ZM63.8634 494.043C64.7023 494.043 65.3016 494.522 65.3016 495.121C65.3016 495.84 63.7435 497.399 61.7061 498.717C59.7885 500.035 57.6313 501.114 56.9122 501.114C56.3129 501.114 55.7137 500.515 55.5938 499.676C55.474 498.837 56.9122 497.159 58.8298 496.08C60.7473 495.002 63.0244 494.043 63.8634 494.043ZM613.009 497.518C613.728 497.518 615.886 498.597 617.803 499.915C619.841 501.234 621.399 502.912 621.399 503.511C621.399 504.23 620.799 504.829 619.96 504.829C619.122 504.829 616.964 503.75 615.167 502.432C613.369 501.114 611.811 499.436 611.811 498.717C611.811 498.118 612.41 497.518 613.009 497.518ZM69.2566 500.634C69.8558 500.994 70.3352 501.833 70.2154 502.432C70.2154 503.031 68.1779 504.829 65.9008 506.267C63.0245 508.065 61.2267 508.544 60.5076 507.706C59.6687 506.986 60.8672 505.428 63.6237 503.271C66.0207 501.593 68.5375 500.395 69.2566 500.634ZM612.41 506.267C614.807 507.705 616.605 509.623 616.605 510.462C616.605 511.301 616.005 511.9 615.167 511.9C614.328 511.9 612.05 510.582 610.013 509.024C607.976 507.346 606.897 505.668 607.376 504.949C607.976 503.99 609.653 504.47 612.41 506.267ZM72.852 507.226C73.3314 507.226 74.0505 507.706 74.2902 508.305C74.6498 509.024 73.2116 510.941 71.0543 512.499C68.897 514.177 66.7398 515.496 66.2604 515.496C65.781 515.496 65.1817 514.777 65.0619 513.818C64.942 512.859 66.3802 511.061 68.4176 509.743C70.3352 508.305 72.3726 507.226 72.852 507.226ZM603.182 510.822C603.661 510.822 605.818 511.9 607.976 513.219C610.133 514.537 611.811 516.095 611.811 516.694C611.811 517.413 611.451 518.132 610.972 518.492C610.492 518.732 608.335 517.893 606.178 516.335C604.021 514.896 602.343 513.099 602.343 512.26C602.223 511.421 602.702 510.822 603.182 510.822ZM79.0841 514.417C79.9231 515.256 79.204 516.574 76.6872 518.492C74.7696 520.17 72.4925 521.488 71.6535 521.488C70.8146 521.488 69.9757 521.009 69.8558 520.409C69.736 519.81 71.5337 517.893 73.691 516.335C76.4075 514.257 78.2053 513.618 79.0841 514.417ZM579.092 515.855C580.65 517.293 581.609 518.971 581.249 519.451C580.89 519.93 580.051 520.409 579.212 520.409C578.373 520.409 576.815 519.451 575.616 518.252C574.058 516.694 573.819 515.855 574.897 514.657C576.096 513.458 576.935 513.698 579.092 515.855ZM603.062 519.93C605.339 521.608 607.256 523.525 607.137 524.125C607.137 524.604 606.418 525.083 605.579 525.083C604.74 525.083 602.463 523.885 600.545 522.447C598.388 520.769 597.429 519.211 597.908 518.252C598.627 517.174 599.946 517.533 603.062 519.93ZM83.0391 520.409C83.8781 520.409 84.4773 520.769 84.5972 521.248C84.5972 521.728 82.9193 523.765 81.0017 525.683C78.1254 528.559 76.9269 529.039 75.8482 527.96C74.6498 526.761 75.1291 525.803 77.8857 523.406C79.9231 521.728 82.2002 520.409 83.0391 520.409ZM570.103 521.009C570.823 521.368 571.302 522.687 571.182 524.005C571.102 525.603 571.661 526.162 572.86 525.683C573.939 525.443 574.658 525.563 574.658 526.042C574.658 526.522 572.5 529.039 565.07 536.469L562.673 534.072C561.354 532.754 560.276 531.076 560.276 530.237C560.276 529.398 561.115 528.679 562.074 528.679C563.152 528.679 563.871 528.2 563.871 527.48C563.871 526.881 564.59 526.761 565.429 527.241C566.268 527.72 566.508 527.6 566.029 526.881C565.549 526.282 566.029 524.484 567.107 523.046C568.066 521.488 569.504 520.649 570.103 521.009ZM593.354 523.885C593.594 523.885 595.511 524.964 597.429 526.282C599.466 527.6 601.024 529.518 601.024 530.477C601.024 531.555 600.785 532.274 600.425 532.274C600.185 532.274 598.028 530.956 595.631 529.278C593.354 527.72 591.796 525.803 592.156 525.083C592.515 524.484 592.995 523.885 593.354 523.885ZM88.4323 526.402C88.9117 526.402 89.511 526.761 89.8705 527.241C90.2301 527.72 88.7919 529.758 86.8743 531.675C84.3575 534.432 82.7995 535.031 81.2414 534.312C79.3238 533.473 79.6834 532.994 83.2788 529.877C85.6758 527.96 87.9529 526.402 88.4323 526.402ZM588.201 529.877C589.039 529.877 591.197 531.555 592.995 533.473C594.792 535.51 595.751 537.428 595.032 537.668C594.433 538.027 592.275 536.829 590.238 535.031C588.32 533.233 586.643 531.316 586.643 530.836C586.643 530.357 587.362 529.877 588.201 529.877ZM94.6645 533.713C95.5034 534.552 94.6645 535.99 91.6682 538.387C88.7919 540.784 87.114 541.503 86.2751 540.664C85.556 539.825 86.3949 538.267 89.2713 535.87C92.1476 533.593 93.8255 532.874 94.6645 533.713ZM582.807 535.87C583.287 535.87 585.204 537.548 587.002 539.465C588.8 541.503 589.998 543.78 589.519 544.619C589.039 545.578 587.482 544.739 584.845 541.862C582.568 539.585 581.01 537.308 581.369 536.829C581.729 536.349 582.328 535.87 582.807 535.87ZM99.0989 538.267C99.6981 538.267 100.417 538.866 100.657 539.465C101.016 540.184 99.5782 542.342 97.421 544.259C94.9042 546.417 93.1064 547.375 92.2675 546.656C91.5484 545.937 92.3873 544.259 94.6645 541.862C96.582 539.945 98.6195 538.267 99.0989 538.267ZM576.815 541.982C577.294 541.982 579.212 543.3 581.01 544.978C582.807 546.536 584.246 548.454 584.246 549.053C584.246 549.772 583.646 550.252 582.807 550.252C581.968 550.252 580.051 549.053 578.613 547.615C577.055 546.057 575.856 544.259 575.856 543.42C575.856 542.581 576.336 541.982 576.815 541.982ZM105.091 544.259C105.691 544.259 106.29 544.739 106.649 545.218C107.009 545.697 105.451 547.975 103.174 550.252C100.417 553.128 98.979 553.967 98.3798 553.008C98.0202 552.169 99.0989 549.892 100.897 547.855C102.694 545.937 104.612 544.259 105.091 544.259ZM571.062 547.855C571.781 547.855 573.579 549.413 575.257 551.211C576.935 553.008 578.253 554.926 578.253 555.405C578.253 555.885 577.654 556.364 576.815 556.364C575.976 556.364 574.058 554.686 572.62 552.769C571.062 550.731 569.864 548.814 569.864 548.454C569.864 548.214 570.463 547.855 571.062 547.855ZM111.084 550.252C111.683 550.252 112.282 550.731 112.642 551.211C113.001 551.69 111.443 553.967 109.166 556.244C106.41 559.12 104.971 559.959 104.372 559.001C104.013 558.162 105.091 555.885 106.889 553.847C108.687 551.93 110.604 550.252 111.084 550.252ZM569.025 555.885C570.823 557.802 572.381 559.959 572.381 560.798C572.261 561.637 571.901 562.356 571.422 562.356C570.942 562.356 569.025 560.679 567.227 558.761C565.429 556.724 564.351 554.566 564.71 553.847C565.31 553.008 566.868 553.727 569.025 555.885ZM117.076 556.244C117.675 556.244 118.035 556.963 118.035 557.802C118.035 558.641 116.836 560.559 115.398 561.997C113.84 563.555 112.042 564.753 111.204 564.753C110.365 564.753 109.526 564.274 109.406 563.795C109.286 563.435 110.724 561.517 112.642 559.6C114.559 557.802 116.597 556.244 117.076 556.244ZM528.876 558.881C529.834 559.12 531.273 560.079 531.872 561.038C532.591 562.117 532.711 563.914 532.351 565.233C531.512 567.63 531.392 567.63 528.396 564.634C526.479 562.836 525.64 561.038 526.119 560.079C526.598 559.24 527.917 558.761 528.876 558.881ZM558.838 558.641C559.317 558.641 561.235 560.319 563.032 562.237C564.83 564.274 566.029 566.431 565.669 567.031C565.429 567.75 563.512 566.791 561.474 564.993C559.557 563.195 557.879 561.038 557.879 560.199C557.879 559.36 558.358 558.641 558.838 558.641ZM122.949 561.038C123.548 561.038 124.027 561.757 124.027 562.596C124.027 563.435 122.709 565.712 121.151 567.63C119.473 569.787 117.795 570.866 116.956 570.386C116.117 569.787 116.717 568.109 118.754 565.233C120.552 562.956 122.349 561.038 122.949 561.038ZM520.846 564.753C521.205 564.753 521.565 565.113 521.565 565.592C521.685 566.072 521.805 567.51 521.805 568.828C521.924 570.866 522.164 570.985 523.003 569.427C523.842 568.109 524.201 567.989 524.801 569.188C525.28 570.027 524.681 571.345 523.722 572.184C522.643 573.023 521.924 573.263 521.924 572.783C521.924 572.304 520.846 572.903 519.527 574.221C517.849 576.019 516.651 576.379 515.333 575.42C514.014 574.581 513.535 574.821 513.295 576.259C513.056 577.937 512.576 577.697 508.741 571.824L512.456 572.783C515.453 573.502 516.052 573.263 516.052 571.585C515.932 570.386 515.333 569.427 514.494 569.427C513.655 569.427 514.614 568.469 516.531 567.15C518.569 565.952 520.486 564.873 520.846 564.753ZM552.845 564.634C553.325 564.634 555.242 566.311 557.04 568.229C558.838 570.266 560.036 572.424 559.677 573.023C559.437 573.742 557.519 572.783 555.482 570.985C553.564 569.188 551.886 567.03 551.886 566.192C551.886 565.353 552.366 564.634 552.845 564.634ZM128.701 567.031C129.061 567.031 129.9 567.27 130.379 567.63C130.859 567.989 129.78 570.147 127.982 572.424C126.185 574.701 124.267 576.259 123.788 576.019C123.308 575.66 122.829 575.06 122.709 574.461C122.709 573.862 123.788 571.944 125.226 570.266C126.664 568.469 128.222 567.031 128.701 567.031ZM219.307 569.427C220.386 569.427 223.382 570.626 226.258 572.064C229.015 573.382 235.367 576.019 240.28 577.937C245.314 579.734 255.022 582.85 261.853 584.888C268.804 586.805 280.43 589.562 287.621 590.88C294.931 592.199 307.635 593.996 315.785 594.716C324.054 595.554 337.957 595.914 346.706 595.674C361.208 595.315 362.526 595.435 362.526 597.352C362.526 599.27 360.728 599.39 339.515 599.39C323.216 599.39 311.71 598.671 300.205 597.112C291.336 595.794 276.834 592.918 267.846 590.641C258.977 588.364 247.351 584.888 242.078 582.97C236.805 581.053 229.134 577.937 225.06 576.019C220.865 574.102 217.509 571.824 217.509 570.985C217.509 570.147 218.348 569.427 219.307 569.427ZM546.853 569.427C547.332 569.427 549.25 571.345 551.048 573.622C553.445 576.738 553.924 578.057 552.845 578.656C551.886 579.135 549.969 577.817 548.051 575.42C546.254 573.143 545.055 570.866 545.415 570.386C545.774 569.907 546.373 569.427 546.853 569.427ZM136.132 571.824C136.731 571.824 137.211 572.304 137.211 572.783C137.211 573.263 136.012 575.42 134.574 577.577C133.016 579.734 131.458 581.412 130.979 581.412C130.499 581.412 129.78 580.933 129.421 580.214C129.181 579.615 130.259 577.457 131.937 575.42C133.615 573.502 135.533 571.824 136.132 571.824ZM543.737 577.817C545.654 580.214 547.212 582.491 547.093 582.97C547.093 583.45 546.493 583.929 545.654 583.929C544.815 583.929 542.898 582.251 541.46 580.334C539.902 578.296 539.063 576.019 539.542 575.18C540.141 574.102 541.46 575.06 543.737 577.817ZM142.244 576.618C142.844 576.618 143.443 577.098 143.802 577.577C144.042 578.057 142.963 580.214 141.405 582.371C139.727 584.528 137.93 586.206 137.211 586.206C136.611 586.206 136.012 585.727 136.012 585.008C136.012 584.409 137.211 582.251 138.649 580.214C140.087 578.296 141.645 576.618 142.244 576.618ZM533.669 579.015C534.149 579.135 535.947 580.933 537.505 583.33C539.502 586.126 540.101 587.924 539.302 588.723C538.583 589.442 537.025 588.364 534.868 585.367C533.07 582.85 531.992 580.453 532.231 579.974C532.591 579.495 533.19 579.015 533.669 579.015ZM149.795 582.491C150.634 583.33 150.154 584.768 148.357 587.405C146.799 589.442 144.881 591 143.802 591C142.844 591 142.005 590.641 142.005 590.281C141.885 589.802 143.323 587.644 145.241 585.367C147.518 582.611 148.956 581.652 149.795 582.491ZM529.954 587.045C531.512 588.963 532.711 591.12 532.711 591.959C532.711 592.798 532.351 593.637 531.872 593.996C531.392 594.236 529.714 592.678 528.276 590.401C526.718 588.124 525.999 585.607 526.479 584.888C527.078 584.049 528.276 584.768 529.954 587.045ZM155.308 586.206C155.907 586.206 156.626 586.686 156.986 587.165C157.225 587.644 156.386 589.802 154.828 591.959C153.39 594.116 151.592 595.794 150.754 595.794C149.915 595.794 149.196 595.554 149.076 595.075C148.956 594.716 150.034 592.558 151.473 590.281C153.031 588.124 154.709 586.206 155.308 586.206ZM520.486 588.723C520.966 588.723 522.524 590.521 524.082 592.918C525.52 595.195 526.718 597.352 526.718 597.592C526.718 597.951 525.999 598.191 524.921 598.191C523.962 598.191 522.164 596.513 520.846 594.356C519.527 592.199 518.808 590.041 519.168 589.562C519.408 589.083 520.007 588.603 520.486 588.723ZM162.379 591C163.098 591 163.577 591.599 163.577 592.199C163.577 592.918 162.619 595.075 161.54 597.112C160.341 599.03 158.783 600.708 157.944 600.708C157.106 600.588 156.386 600.229 156.386 599.749C156.386 599.27 157.465 597.112 158.783 594.955C160.102 592.798 161.78 591 162.379 591ZM472.187 593.397C473.266 593.397 474.584 594.715 475.303 596.154C476.262 598.071 476.262 599.15 475.303 599.989C474.345 600.828 473.386 600.468 472.187 598.79C471.228 597.472 470.389 595.794 470.389 594.955C470.389 594.116 471.228 593.397 472.187 593.397ZM513.775 593.397C514.374 593.397 515.812 595.195 517.13 597.352C518.449 599.509 519.527 601.667 519.527 602.146C519.527 602.625 518.808 602.985 517.73 602.985C516.771 602.985 514.853 601.187 513.535 598.79C512.217 596.513 511.498 594.356 511.977 593.996C512.456 593.757 513.175 593.397 513.775 593.397ZM641.893 593.637L645.488 596.753C647.406 598.431 649.084 600.468 648.964 601.187C648.964 601.906 647.526 603.944 642.372 609.097L634.582 601.187L641.893 593.637ZM170.289 595.674C171.128 596.513 170.768 598.191 169.09 600.828C167.772 602.865 165.974 604.783 165.135 605.022C164.416 605.262 163.577 604.903 163.458 604.064C163.338 603.345 164.536 600.828 166.094 598.67C168.132 595.794 169.33 594.835 170.289 595.674ZM463.199 597.112C463.798 597.112 464.038 597.592 463.798 598.311C463.558 598.91 463.558 600.229 463.918 601.307C464.277 602.266 465.116 602.625 465.955 602.146C466.914 601.587 467.154 601.906 466.674 603.105C466.315 604.064 465.116 604.663 464.038 604.543C462.959 604.423 462.12 604.783 462.12 605.502C462.12 606.101 461.521 606.7 460.921 606.7C460.202 606.7 459.963 606.101 460.322 605.502C460.682 604.783 460.083 604.303 459.124 604.303C458.165 604.303 457.086 605.382 456.727 606.7C456.367 608.019 455.528 609.097 454.929 609.097C454.21 609.097 453.131 607.659 452.532 606.101C451.813 604.423 451.573 602.506 451.933 601.906C452.292 601.187 453.011 600.708 453.491 600.708C454.09 600.708 454.33 601.307 453.97 602.146C453.731 602.985 454.21 602.745 455.169 601.547C456.008 600.348 457.686 599.509 458.884 599.509C459.963 599.509 461.161 598.91 461.521 598.311C461.88 597.592 462.719 597.112 463.199 597.112ZM506.344 596.993C506.704 596.993 508.262 599.15 509.7 601.787C511.378 604.663 511.977 606.94 511.258 607.3C510.539 607.539 509.82 607.659 509.7 607.539C509.46 607.419 508.142 605.382 506.704 603.105C505.265 600.708 504.426 598.431 504.906 597.951C505.265 597.472 505.984 597.112 506.344 596.993ZM176.881 599.509C177.48 599.509 178.079 599.989 178.079 600.708C178.079 601.307 177 603.704 175.682 606.101C174.364 608.378 172.686 609.936 172.087 609.697C171.367 609.337 170.888 608.618 170.888 608.138C170.888 607.659 171.967 605.502 173.285 603.345C174.603 601.187 176.161 599.509 176.881 599.509ZM499.273 601.906C499.872 601.906 501.55 603.584 502.868 605.742C504.067 607.899 505.146 610.056 505.265 610.535C505.265 611.015 504.426 611.494 503.468 611.494C502.509 611.494 500.831 609.816 499.872 607.899C498.913 605.861 498.075 603.704 498.075 603.105C498.075 602.386 498.554 601.906 499.273 601.906ZM184.431 603.824C184.91 604.423 184.431 606.94 183.232 609.337C182.034 611.854 180.716 613.891 180.116 613.891C179.637 613.891 179.038 613.292 178.678 612.693C178.319 611.974 179.277 609.577 180.716 607.18C182.154 604.783 183.832 603.345 184.431 603.824ZM492.322 605.502C492.801 605.502 494.359 607.659 495.678 610.296C497.715 614.371 497.835 615.09 496.277 615.689C495.078 616.049 493.64 614.73 492.082 611.734C490.764 609.217 490.045 606.82 490.524 606.341C490.884 605.861 491.723 605.502 492.322 605.502ZM191.622 607.419C192.221 608.019 191.742 610.296 190.543 612.693C189.465 614.97 188.386 617.007 188.146 617.127C187.907 617.247 187.068 617.127 186.468 616.887C185.749 616.528 186.349 614.251 187.907 611.255C189.465 608.498 191.023 606.82 191.622 607.419ZM484.771 608.977C485.131 608.977 486.449 611.015 487.648 613.532C489.086 616.408 489.326 618.445 488.606 619.284C487.887 620.004 486.569 618.805 485.011 615.689C483.693 613.052 482.854 610.416 483.333 609.936C483.693 609.457 484.412 609.097 484.771 608.977ZM627.511 609.097C627.87 608.977 629.668 610.655 635.301 616.288L627.631 624.078L624.994 621.681C623.676 620.363 621.998 618.326 621.399 617.127C620.56 615.569 621.159 614.371 623.556 612.094C625.474 610.416 627.151 609.097 627.511 609.097ZM199.053 611.374C199.891 612.213 199.532 614.011 198.094 616.887C197.015 619.165 195.457 621.082 194.858 621.082C194.139 621.082 193.659 620.483 193.659 619.884C193.659 619.165 194.618 616.768 195.697 614.371C197.135 611.374 198.214 610.536 199.053 611.374ZM477.101 612.693C478.06 612.693 479.618 614.61 480.577 617.127C481.535 619.644 482.015 622.041 481.775 622.52C481.535 623 480.936 623.479 480.337 623.479C479.858 623.479 478.539 621.562 477.341 619.284C476.262 616.887 475.303 614.49 475.303 613.891C475.303 613.172 476.142 612.693 477.101 612.693ZM205.524 613.771C205.884 613.771 206.603 614.011 207.082 614.371C207.682 614.73 207.082 617.247 205.884 619.884C204.805 622.52 203.487 624.678 202.888 624.678C202.408 624.678 201.809 624.078 201.449 623.479C201.09 622.76 201.689 620.363 202.768 618.086C203.846 615.689 205.165 613.771 205.524 613.771ZM412.503 616.648C413.342 618.086 414.061 619.884 414.181 620.723C414.181 621.562 413.102 622.281 411.784 622.281C410.106 622.281 409.147 621.202 408.668 618.925C408.308 617.007 408.668 615.329 409.506 614.85C410.465 614.251 411.664 614.97 412.503 616.648ZM401.237 616.408C401.836 616.288 402.196 616.768 402.196 617.487C402.196 618.086 401.477 618.206 400.758 617.726C399.679 617.127 399.439 617.487 400.158 618.925C400.638 620.123 400.997 621.562 400.997 622.281C400.997 622.88 401.477 623.12 402.196 622.88C402.795 622.52 403.394 622.76 403.394 623.479C403.394 624.078 402.316 624.318 400.997 624.078C399.679 623.719 398.361 623.959 398.001 624.678C397.641 625.277 396.443 625.517 395.244 625.277C394.166 624.917 392.368 625.277 391.409 626.116C389.851 627.434 389.851 627.434 391.409 625.517C392.967 623.599 392.967 623.359 391.05 623.359C389.971 623.359 389.012 622.88 389.012 622.281C389.012 621.562 389.492 621.322 390.211 621.681C390.81 621.921 391.409 621.681 391.409 621.082C391.409 620.363 390.69 619.524 389.851 619.284C389.132 618.925 389.612 618.925 391.05 619.284C392.608 619.524 393.806 619.284 393.806 618.685C393.806 617.966 395.244 617.247 397.042 617.007C398.96 616.768 400.758 616.528 401.237 616.408ZM469.551 616.168C470.389 616.168 471.828 618.086 472.547 620.363C473.386 622.76 473.745 625.277 473.266 626.116C472.786 627.075 471.708 626.116 470.389 623.479C469.191 621.082 468.232 618.565 468.112 617.726C468.112 616.888 468.831 616.288 469.551 616.168ZM213.554 617.487C214.513 617.487 215.232 617.966 215.232 618.685C215.232 619.284 214.393 621.562 213.314 623.719C212.236 625.876 211.157 627.794 210.917 627.914C210.678 628.033 209.839 627.914 209.24 627.674C208.521 627.194 208.76 625.277 209.959 622.281C211.037 619.644 212.715 617.487 213.554 617.487ZM365.163 618.805C365.522 618.685 365.642 619.884 365.282 621.322C364.923 622.76 363.724 626.475 362.646 629.472C361.447 632.348 360.009 634.985 359.41 635.104C358.93 635.344 357.013 632.468 355.095 628.872C353.298 625.157 351.859 621.681 351.859 621.082C351.859 620.363 354.736 619.644 358.091 619.404C361.567 619.284 364.803 618.925 365.163 618.805ZM462.36 618.685C462.839 618.685 464.157 620.842 465.116 623.479C466.075 626.116 466.914 628.513 466.914 628.872C466.914 629.112 466.195 629.472 465.356 629.472C464.637 629.472 462.959 627.314 461.76 624.678C460.682 622.041 460.083 619.524 460.562 619.284C460.921 618.925 461.76 618.685 462.36 618.685ZM220.745 621.082C221.704 621.082 222.423 621.562 222.423 622.281C222.423 622.88 221.584 625.397 220.625 627.914C219.427 630.91 218.348 631.988 217.629 631.269C216.91 630.43 216.91 628.393 217.869 625.517C218.588 623 219.906 621.082 220.745 621.082ZM330.287 621.082C333.523 621.082 336.279 621.322 336.279 621.681C336.279 621.921 334.961 624.917 333.283 628.273C331.605 631.509 330.047 634.266 329.687 634.266C329.328 634.266 328.009 631.749 326.691 628.872C325.373 625.876 324.294 622.88 324.294 622.281C324.294 621.562 326.931 621.082 330.287 621.082ZM454.21 622.281C455.408 622.281 456.607 623.959 457.446 626.715C458.285 629.831 458.285 631.629 457.446 632.468C456.607 633.187 455.888 632.707 455.169 630.67C454.569 628.992 453.611 626.356 453.131 624.917C452.532 622.88 452.772 622.281 454.21 622.281ZM228.895 623.479C229.614 623.479 229.973 624.678 229.734 626.116C229.494 627.554 228.775 630.071 228.296 631.509C227.696 632.947 226.857 634.266 226.258 634.266C225.779 634.266 225.06 634.026 224.46 633.666C223.981 633.307 224.46 630.91 225.539 628.273C226.618 625.636 228.056 623.479 228.895 623.479ZM446.54 624.678C447.139 624.678 448.218 625.876 448.817 627.314C449.296 628.753 450.135 631.269 450.615 632.708C451.094 634.625 450.854 635.464 449.536 635.464C448.577 635.464 447.139 633.666 446.54 631.509C445.821 629.352 445.341 626.955 445.341 626.116C445.341 625.277 445.821 624.678 446.54 624.678ZM236.805 625.876C237.404 625.876 238.003 626.475 238.003 627.314C238.003 628.153 237.524 630.55 236.805 632.708C236.086 634.865 234.767 636.662 233.809 636.662C232.49 636.662 232.251 635.824 232.73 633.906C233.209 632.468 233.928 629.951 234.528 628.513C235.127 627.075 236.086 625.876 236.805 625.876ZM439.588 627.075C440.308 627.075 441.386 628.992 441.866 631.509C442.465 634.026 442.944 636.423 442.944 636.902C442.944 637.382 442.225 637.861 441.386 637.861C440.667 637.861 439.349 635.824 438.51 633.307C437.671 630.91 437.311 628.393 437.671 627.914C438.03 627.434 438.869 627.075 439.588 627.075ZM243.876 628.153C244.235 628.153 244.954 628.513 245.434 628.872C246.033 629.232 245.913 631.629 245.194 634.266C244.475 637.142 243.277 639.059 242.198 639.059C241.239 639.059 240.4 638.58 240.4 638.101C240.4 637.621 240.999 635.224 241.719 632.708C242.438 630.191 243.396 628.153 243.876 628.153ZM431.199 629.472C431.678 629.472 432.637 631.149 433.356 633.307C434.075 635.464 434.555 637.861 434.555 638.7C434.555 639.539 433.836 640.258 432.997 640.258C432.278 640.258 430.72 638.101 429.881 635.464C428.922 632.827 428.562 630.43 429.162 630.071C429.641 629.711 430.6 629.472 431.199 629.472ZM252.385 630.67C253.104 630.67 253.584 631.749 253.584 633.067C253.584 634.385 252.984 636.782 252.385 638.46C251.666 640.018 250.587 641.456 249.988 641.456C249.269 641.456 249.029 639.539 249.509 636.902C249.868 634.385 250.467 631.988 250.707 631.509C251.067 631.03 251.786 630.67 252.385 630.67ZM423.289 631.869C424.847 631.869 425.446 633.067 425.806 636.902C426.046 639.659 425.926 642.295 425.566 642.655C425.207 642.895 424.488 642.655 423.888 642.056C423.289 641.337 422.45 638.82 422.091 636.303C421.371 632.588 421.611 631.869 423.289 631.869ZM260.295 633.067C261.254 633.067 261.973 633.666 261.973 634.505C261.973 635.344 261.494 637.741 260.774 639.898C260.055 642.056 258.977 643.853 258.378 643.853C257.658 643.853 257.179 643.134 257.179 642.295C257.179 641.456 257.419 639.059 257.898 636.902C258.258 634.745 259.336 633.067 260.295 633.067ZM268.085 634.266C268.684 634.266 269.404 634.625 269.643 635.224C269.883 635.824 269.643 638.221 269.044 640.617C268.445 643.254 267.246 645.052 266.168 645.052C265.089 645.052 264.61 644.213 264.849 642.895C265.209 641.696 265.808 639.299 266.168 637.501C266.647 635.704 267.486 634.266 268.085 634.266ZM414.66 634.266C415.739 634.266 416.817 635.464 417.177 636.902C417.416 638.34 417.896 640.617 418.016 641.936C418.255 643.134 417.656 644.333 416.817 644.572C415.978 644.812 415.139 643.614 414.66 641.696C414.3 639.898 413.821 637.501 413.461 636.303C412.982 634.945 413.382 634.266 414.66 634.266ZM407.229 635.464C407.709 635.464 408.428 636.063 408.668 636.902C408.907 637.741 409.506 640.138 409.866 642.295C410.345 645.052 410.106 646.25 409.027 646.25C408.308 646.25 406.75 644.093 405.911 641.456C404.952 638.82 404.593 636.423 405.192 636.063C405.671 635.704 406.63 635.464 407.229 635.464ZM276.355 636.662C277.074 636.662 277.553 637.861 277.553 639.299C277.553 640.737 277.194 643.254 276.954 644.692C276.594 646.13 275.516 647.449 274.557 647.449C273.598 647.449 272.759 646.969 272.759 646.49C272.759 646.011 273.359 643.614 273.958 641.097C274.677 638.58 275.756 636.662 276.355 636.662ZM399.919 637.382C400.278 637.981 400.997 640.378 401.477 642.895C402.076 646.49 401.836 647.449 400.398 647.449C399.199 647.449 398.361 645.891 398.001 643.254C397.641 640.857 397.761 638.46 398.241 637.741C398.72 637.022 399.439 636.902 399.919 637.382ZM284.744 637.861C285.463 637.861 285.943 639.059 285.943 640.498C285.943 641.936 285.583 644.453 285.343 645.891C284.984 647.329 283.905 648.647 282.946 648.647C281.508 648.647 281.269 647.689 281.868 644.093C282.347 641.576 282.827 639.179 283.186 638.7C283.426 638.221 284.145 637.861 284.744 637.861ZM292.534 639.059C293.493 639.059 294.332 639.659 294.332 640.498C294.332 641.337 293.973 643.734 293.493 645.891C292.894 648.168 291.815 649.846 290.737 649.846C289.298 649.846 289.179 649.007 289.898 645.891C290.377 643.734 290.737 641.337 290.737 640.498C290.737 639.659 291.576 639.059 292.534 639.059ZM384.578 643.494C385.177 646.011 385.297 648.647 384.938 649.486C384.578 650.325 383.859 651.044 383.26 651.044C382.78 651.044 381.821 648.767 381.222 645.891C380.263 641.816 380.383 640.737 381.702 640.018C383.02 639.299 383.739 640.138 384.578 643.494ZM390.81 639.059C392.488 639.059 393.207 640.018 393.447 642.895C393.686 645.052 393.806 647.449 393.806 648.288C393.806 649.127 392.967 649.846 392.009 649.846C391.05 649.846 390.211 649.127 390.211 648.288C390.211 647.449 389.851 645.052 389.372 642.895C388.773 639.659 389.012 639.059 390.81 639.059ZM300.684 640.258C301.643 640.258 302.122 641.337 301.883 642.895C301.763 644.333 301.523 646.85 301.523 648.288C301.523 650.086 300.804 651.044 299.366 651.044C297.688 651.044 297.448 650.445 298.287 647.089C298.766 644.932 299.126 642.535 299.126 641.696C299.126 640.857 299.845 640.258 300.684 640.258ZM374.99 640.258C375.709 640.258 376.428 641.936 376.788 644.093C377.028 646.25 377.028 649.127 376.548 650.445C376.069 651.883 375.35 652.363 374.75 651.644C374.151 650.924 373.312 648.408 372.713 646.011C372.114 643.614 372.234 641.337 372.833 640.977C373.312 640.498 374.391 640.258 374.99 640.258ZM308.834 641.456C309.433 641.456 309.912 643.853 309.912 646.85C309.912 650.805 309.433 652.243 308.115 652.243C307.156 652.243 306.317 651.524 306.317 650.685C306.317 649.846 306.557 647.449 307.036 645.292C307.396 643.134 308.234 641.456 308.834 641.456ZM317.223 641.456C317.822 641.456 318.302 643.853 318.302 646.85C318.302 650.805 317.822 652.243 316.504 652.243C315.545 652.243 314.706 651.524 314.706 650.685C314.706 649.846 314.946 647.449 315.425 645.292C315.785 643.134 316.624 641.456 317.223 641.456ZM359.29 642.056C359.889 642.415 360.369 644.932 360.369 647.449C360.249 650.805 359.769 652.243 358.451 652.243C357.133 652.243 356.533 650.805 356.414 647.569C356.294 645.052 356.653 642.655 357.133 642.295C357.732 641.816 358.691 641.816 359.29 642.056ZM366.241 641.456C366.84 641.456 367.679 642.175 368.039 643.254C368.398 644.213 368.638 646.61 368.638 648.647C368.638 651.044 368.039 652.243 366.84 652.243C365.522 652.243 365.043 650.805 365.043 646.85C365.043 643.853 365.522 641.456 366.241 641.456ZM325.133 642.655C326.092 642.655 326.691 644.213 326.691 647.449C326.691 650.924 326.212 652.243 324.893 652.243C323.575 652.243 323.096 650.924 323.335 647.449C323.455 644.333 324.054 642.655 325.133 642.655ZM333.163 642.655C334.601 642.655 335.081 643.973 335.081 648.048C335.081 651.763 334.601 653.321 333.522 652.962C332.803 652.842 331.964 650.325 331.725 647.569C331.365 643.734 331.725 642.655 333.163 642.655ZM341.672 642.655C342.991 642.655 343.47 643.973 343.47 647.449C343.47 650.086 342.871 652.482 342.271 652.842C341.552 653.082 340.833 652.602 340.474 651.644C340.114 650.565 339.874 648.168 339.874 646.25C339.874 643.853 340.474 642.655 341.672 642.655ZM349.942 642.655C351.38 642.655 351.739 643.734 351.5 647.689C351.38 650.445 350.661 652.842 350.062 652.842C349.343 652.842 348.743 650.445 348.504 647.689C348.144 643.734 348.504 642.655 349.942 642.655Z" fill="#F4F4F4"/>
</svg>
