<svg width="414" height="466" viewBox="0 0 414 466" fill="none" xmlns="http://www.w3.org/2000/svg">
<path d="M192.901 55.9992C198.98 54.5963 208.8 53.0765 214.529 52.6088C220.257 52.1412 226.921 51.6736 229.142 51.6736C231.364 51.5566 238.261 52.0243 244.341 52.6088C250.42 53.3103 260.474 54.947 266.553 56.233C272.633 57.6359 281.05 60.091 285.259 61.6108C289.468 63.2476 298.937 67.5732 306.303 71.4312C313.668 75.1723 323.956 81.7192 329.1 85.811C334.244 89.9028 342.895 97.8527 348.273 103.581C353.768 109.31 360.899 118.195 364.289 123.339C367.563 128.483 371.889 135.848 373.759 139.706C375.747 143.564 379.137 151.514 381.475 157.243C383.696 162.971 386.736 173.493 388.139 180.624C389.776 188.691 390.477 195.355 390.009 198.511C389.542 201.434 389.776 203.422 390.477 203.422C391.179 203.422 391.646 207.864 391.646 214.528C391.646 220.607 391.295 225.401 390.828 225.167C390.243 224.933 390.126 226.336 390.36 228.44C390.594 230.428 389.659 237.325 388.256 243.755C386.853 250.185 384.632 259.187 383.229 263.63C381.826 268.072 378.435 276.256 375.63 281.751C372.824 287.246 369.2 294.026 367.563 296.949C365.926 299.872 362.419 305.133 359.73 308.64C357.041 312.147 349.559 320.331 343.129 326.761C336.699 333.191 329.684 339.738 327.697 341.141C325.593 342.544 323.839 343.479 323.839 343.128C323.839 342.777 321.851 343.83 319.513 345.466C317.058 347.103 313.902 349.441 312.499 350.727C310.979 352.013 309.108 353.065 308.407 353.065C307.589 353.065 305.601 354.118 303.964 355.404C302.328 356.806 299.756 358.092 298.119 358.443C296.482 358.794 293.91 359.729 292.273 360.664C290.637 361.483 284.324 363.821 278.244 365.808C272.165 367.796 265.618 369.433 263.631 369.316C261.643 369.316 260.942 368.965 261.877 368.614C262.812 368.264 264.917 366.861 266.553 365.575C268.775 363.821 268.892 363.47 267.138 364.172C265.852 364.756 262.578 365.224 259.89 365.224C257.318 365.341 254.629 365.692 254.161 366.276C253.693 366.744 252.174 367.094 250.888 367.094C249.485 367.094 246.913 367.913 244.925 368.848C242.47 370.134 238.028 370.719 230.662 370.602C223.765 370.602 220.024 370.134 220.374 369.433C220.725 368.731 219.79 368.264 218.387 368.38C216.867 368.497 214.646 368.497 213.36 368.38C211.489 368.264 211.606 367.913 214.529 366.393C217.335 364.99 221.426 364.639 234.403 364.873C244.458 365.107 253.693 364.522 258.37 363.587C262.578 362.769 266.787 361.366 267.722 360.431C268.658 359.612 270.294 358.911 271.23 359.145C272.165 359.262 274.386 359.028 276.257 358.56C278.01 358.092 280.583 356.69 282.102 355.404C283.505 354.118 284.09 353.065 283.505 353.065C282.804 353.065 281.752 353.533 281.167 354.118C280.466 354.702 273.685 356.923 265.969 358.911C254.629 361.834 250.42 362.418 243.756 361.95C238.3 361.561 236.936 361.678 239.664 362.301C242.236 362.886 237.56 363.12 227.155 363.12C218.153 363.003 210.905 362.652 211.138 362.184C211.372 361.6 210.203 360.898 208.333 360.548C206.579 360.197 204.241 360.197 203.072 360.548C202.02 360.898 200.85 360.781 200.5 360.08C200.149 359.378 198.746 359.145 197.343 359.495C195.823 359.729 193.134 359.028 187.64 355.404L195.239 356.222C199.448 356.806 211.84 357.04 222.712 357.04C240.716 356.923 243.873 356.573 256.032 353.416C264.449 351.195 274.503 347.454 282.921 343.479C290.286 339.855 300.574 333.892 305.718 330.034C310.862 326.176 318.929 319.162 323.605 314.368C328.281 309.575 334.711 302.093 337.751 297.534C340.908 293.091 345.35 285.609 347.571 281.166C349.793 276.724 353.183 268.54 355.171 263.045C357.041 257.551 359.379 249.133 360.198 244.34C361.016 239.547 361.717 228.44 361.717 219.789C361.601 211.138 361.016 200.616 360.198 196.407C359.379 192.198 357.509 185.651 355.872 181.793C354.352 177.935 352.832 173.493 352.482 171.856C352.131 170.219 351.079 167.764 350.143 166.361C349.208 164.842 348.156 163.673 347.805 163.673C347.455 163.673 347.455 164.842 347.688 166.361C347.922 167.764 348.857 170.453 349.91 172.441C350.845 174.428 352.014 177.234 352.248 178.871C352.599 180.507 353.768 185.768 354.82 190.562C355.872 195.355 357.041 205.409 357.392 212.774C357.859 222.712 357.509 229.492 355.989 238.494C354.82 245.275 352.715 254.16 351.313 258.369C349.793 262.578 347.338 268.891 345.701 272.398C344.064 275.905 340.206 282.803 337.05 287.596C333.893 292.39 328.398 299.404 324.891 303.262C321.384 307.003 315.538 312.381 311.914 315.187C308.173 317.993 304.9 320.097 304.549 319.746C304.198 319.396 308.056 314.953 312.966 309.692C317.993 304.548 324.307 297.3 327.112 293.676C329.918 289.934 334.478 282.218 337.283 276.49C340.089 270.761 343.83 260.941 345.467 254.862C347.221 248.782 349.091 238.962 349.793 233.233C350.377 227.505 350.611 218.503 350.26 213.359C349.91 208.215 348.156 198.745 346.519 192.315C344.883 185.885 341.726 176.883 339.622 172.441C337.4 167.998 333.542 160.867 330.737 156.658C328.048 152.449 321.618 144.85 316.357 139.706C311.213 134.445 304.315 128.483 301.042 126.262C297.885 124.04 291.221 120.299 286.428 117.961C281.635 115.506 272.399 112.116 265.969 110.245C255.33 107.322 252.641 106.972 234.988 107.088C217.335 107.088 214.88 107.322 205.176 110.362C199.448 112.116 190.446 115.623 185.302 118.195C180.158 120.65 171.974 126.028 167.298 130.003C162.504 134.095 155.49 141.109 151.632 145.552C147.891 149.994 143.682 155.84 142.279 158.412C140.759 160.984 137.953 167.18 135.849 172.207C133.862 177.117 131.173 185.301 130.12 190.211C128.834 196.173 128.133 203.772 128.25 212.19C128.367 221.893 129.185 227.856 131.406 236.507C133.043 242.703 136.083 251.121 138.07 255.095C140.175 259.187 143.916 265.617 146.488 269.475C149.177 273.333 155.957 281.283 161.686 287.012C167.414 292.74 174.078 300.456 176.533 303.964C178.872 307.471 182.028 312.615 183.431 315.304C184.717 318.11 186.704 323.721 187.64 327.93C189.276 334.944 189.276 335.88 187.406 339.855C185.769 343.362 183.665 345.116 178.287 347.804C172.208 350.844 169.636 351.312 159.582 351.779C148.943 352.13 146.838 351.896 136.2 348.506C129.302 346.285 122.288 343.128 119.014 340.673C115.858 338.452 109.895 332.606 105.686 327.696C101.361 322.669 95.3984 314.953 92.3588 310.394C89.3191 305.834 84.292 297.183 81.2524 291.104C78.2128 285.024 74.4717 276.256 72.9519 271.814C71.5489 267.371 69.2108 259.421 67.9248 254.277C66.6388 249.133 65.002 238.845 64.4175 231.48C63.5991 222.361 63.5991 213.359 64.4175 203.422C65.002 195.355 66.6388 184.599 67.9248 179.455C69.2108 174.311 71.7828 165.894 73.5364 160.75C75.4069 155.606 78.7973 147.422 81.2524 142.629C83.7075 137.836 88.6177 129.418 92.2419 123.923C95.866 118.429 104.517 108.258 111.649 101.009C119.716 92.9425 128.718 85.2265 135.615 80.667C141.694 76.5752 151.515 71.0805 157.243 68.3916C162.972 65.7027 170.922 62.4292 174.78 61.0263C178.638 59.6234 186.821 57.4021 192.901 55.9992Z" fill="#0B0B0B"/>
<path d="M233.234 372.823L242.002 371.303C246.796 370.485 251.823 369.666 252.992 369.55C254.862 369.433 255.096 369.666 253.81 370.836C252.992 371.771 248.549 372.472 233.234 372.823Z" fill="#0B0B0B"/>
</svg>
