<svg width="70" height="70" viewBox="0 0 70 70" fill="none" xmlns="http://www.w3.org/2000/svg">
<rect width="70" height="70" rx="35" fill="black" fill-opacity="0.8"/>
<path fill-rule="evenodd" clip-rule="evenodd" d="M35 48.2041C42.034 48.2041 47.7363 42.5018 47.7363 35.4678C47.7363 28.4337 42.034 22.7314 35 22.7314C27.9659 22.7314 22.2637 28.4337 22.2637 35.4678C22.2637 42.5018 27.9659 48.2041 35 48.2041ZM35 43.9586C39.6893 43.9586 43.4909 40.1571 43.4909 35.4678C43.4909 30.7784 39.6893 26.9769 35 26.9769C30.3106 26.9769 26.5091 30.7784 26.5091 35.4678C26.5091 40.1571 30.3106 43.9586 35 43.9586Z" fill="#FBFBFB"/>
<path d="M48.0397 20.9121C46.8673 20.9121 45.917 21.8625 45.917 23.0348C45.917 24.2072 46.8673 25.1575 48.0397 25.1575C49.2121 25.1575 50.1624 24.2072 50.1624 23.0348C50.1624 21.8625 49.2121 20.9121 48.0397 20.9121Z" fill="#FBFBFB"/>
<path fill-rule="evenodd" clip-rule="evenodd" d="M13.3413 19.3755C11.9531 22.1 11.9531 25.6665 11.9531 32.7995V38.7431C11.9531 45.8761 11.9531 49.4427 13.3413 52.167C14.5624 54.5635 16.5108 56.512 18.9073 57.733C21.6317 59.1212 25.1982 59.1212 32.3312 59.1212H38.2748C45.4078 59.1212 48.9744 59.1212 51.6987 57.733C54.0953 56.512 56.0437 54.5635 57.2647 52.167C58.653 49.4427 58.653 45.8761 58.653 38.7431V32.7995C58.653 25.6665 58.653 22.1 57.2647 19.3755C56.0437 16.979 54.0953 15.0306 51.6987 13.8096C48.9744 12.4214 45.4078 12.4214 38.2748 12.4214H32.3312C25.1982 12.4214 21.6317 12.4214 18.9073 13.8096C16.5108 15.0306 14.5624 16.979 13.3413 19.3755ZM38.2748 16.6668H32.3312C28.6947 16.6668 26.2226 16.6701 24.3118 16.8262C22.4505 16.9783 21.4987 17.2539 20.8347 17.5923C19.237 18.4063 17.9381 19.7053 17.124 21.3029C16.7857 21.9669 16.5101 22.9187 16.358 24.78C16.2019 26.6908 16.1986 29.1629 16.1986 32.7995V38.7431C16.1986 42.3798 16.2019 44.8517 16.358 46.7625C16.5101 48.6239 16.7857 49.5758 17.124 50.2398C17.9381 51.8373 19.237 53.1362 20.8347 53.9503C21.4987 54.2886 22.4505 54.5644 24.3118 54.7164C26.2226 54.8724 28.6947 54.8758 32.3312 54.8758H38.2748C41.9115 54.8758 44.3834 54.8724 46.2943 54.7164C48.1557 54.5644 49.1075 54.2886 49.7715 53.9503C51.3691 53.1362 52.6679 51.8373 53.482 50.2398C53.8204 49.5758 54.0961 48.6239 54.2481 46.7625C54.4041 44.8517 54.4075 42.3798 54.4075 38.7431V32.7995C54.4075 29.1629 54.4041 26.6908 54.2481 24.78C54.0961 22.9187 53.8204 21.9669 53.482 21.3029C52.6679 19.7053 51.3691 18.4063 49.7715 17.5923C49.1075 17.2539 48.1557 16.9783 46.2943 16.8262C44.3834 16.6701 41.9115 16.6668 38.2748 16.6668Z" fill="#FBFBFB"/>
</svg>
