<svg width="26" height="27" viewBox="0 0 26 27" fill="none" xmlns="http://www.w3.org/2000/svg">
<path d="M15.167 2.19775C15.167 2.19775 17.5503 2.41442 20.5837 5.44775C23.617 8.48109 23.8337 10.8644 23.8337 10.8644" stroke="#F4F4F4" stroke-width="1.125" stroke-linecap="round"/>
<path d="M15.3906 6.02802C15.3906 6.02802 16.4631 6.33444 18.0718 7.9431C19.6804 9.55177 19.9869 10.6242 19.9869 10.6242" stroke="#F4F4F4" stroke-width="1.125" stroke-linecap="round"/>
<path d="M4.34011 8.62523C4.26174 10.6924 4.7849 14.2029 8.30635 17.7244C9.15591 18.5739 10.0048 19.2489 10.833 19.7831M5.99897 5.37971C7.508 3.87068 9.91561 4.07344 10.8737 5.79023L11.5768 7.05007C12.2113 8.18701 11.9566 9.67848 10.9573 10.6778C10.9573 10.6778 9.74521 11.8901 11.9429 14.0878C14.1399 16.2848 15.3529 15.0735 15.3529 15.0735C16.3523 14.0741 17.8437 13.8194 18.9807 14.4539L20.2405 15.157C21.9573 16.1151 22.16 18.5227 20.651 20.0318C19.7443 20.9385 18.6334 21.6441 17.4055 21.6906C16.5237 21.724 15.379 21.648 14.083 21.2764" stroke="#F4F4F4" stroke-width="1.125" stroke-linecap="round"/>
</svg>
