<svg width="77" height="77" viewBox="0 0 77 77" fill="none" xmlns="http://www.w3.org/2000/svg">
<rect width="76.0621" height="76.0621" fill="#0B0B0B"/>
<path fill-rule="evenodd" clip-rule="evenodd" d="M75.1674 38.0311C75.1674 58.5409 58.5409 75.1674 38.0311 75.1674C17.5212 75.1674 0.894696 58.5409 0.894696 38.0311C0.894696 17.5212 17.5212 0.894696 38.0311 0.894696C58.5409 0.894696 75.1674 17.5212 75.1674 38.0311ZM76.0621 38.0311C76.0621 59.035 59.035 76.0621 38.0311 76.0621C17.0271 76.0621 0 59.035 0 38.0311C0 17.0271 17.0271 0 38.0311 0C59.035 0 76.0621 17.0271 76.0621 38.0311ZM65.5452 38.0311C65.5452 53.2268 53.2267 65.5453 38.0311 65.5453C22.8354 65.5453 10.5169 53.2268 10.5169 38.0311C10.5169 22.8355 22.8354 10.517 38.0311 10.517C53.2267 10.517 65.5452 22.8355 65.5452 38.0311ZM67.7819 38.0311C67.7819 54.4621 54.462 67.782 38.0311 67.782C21.6001 67.782 8.28016 54.4621 8.28016 38.0311C8.28016 21.6002 21.6001 8.28025 38.0311 8.28025C54.462 8.28025 67.7819 21.6002 67.7819 38.0311ZM38.0311 61.7563C51.1341 61.7563 61.7562 51.1342 61.7562 38.0312C61.7562 24.9281 51.1341 14.306 38.0311 14.306C24.928 14.306 14.3059 24.9281 14.3059 38.0312C14.3059 51.1342 24.928 61.7563 38.0311 61.7563ZM38.0311 63.5457C52.1223 63.5457 63.5456 52.1224 63.5456 38.0312C63.5456 23.9399 52.1223 12.5166 38.0311 12.5166C23.9398 12.5166 12.5165 23.9399 12.5165 38.0312C12.5165 52.1224 23.9398 63.5457 38.0311 63.5457ZM57.2962 38.0311C57.2962 48.671 48.6709 57.2962 38.0311 57.2962C27.3913 57.2962 18.766 48.671 18.766 38.0311C18.766 27.3913 27.3913 18.7661 38.0311 18.7661C48.6709 18.7661 57.2962 27.3913 57.2962 38.0311ZM59.3092 38.0311C59.3092 49.7827 49.7827 59.3093 38.0311 59.3093C26.2795 59.3093 16.7529 49.7827 16.7529 38.0311C16.7529 26.2796 26.2795 16.753 38.0311 16.753C49.7827 16.753 59.3092 26.2796 59.3092 38.0311ZM38.031 52.8362C46.2076 52.8362 52.8361 46.2077 52.8361 38.0312C52.8361 29.8546 46.2076 23.2261 38.031 23.2261C29.8544 23.2261 23.226 29.8546 23.226 38.0312C23.226 46.2077 29.8544 52.8362 38.031 52.8362ZM38.031 55.0729C47.443 55.0729 55.0728 47.4431 55.0728 38.0312C55.0728 28.6192 47.443 20.9894 38.031 20.9894C28.6191 20.9894 20.9893 28.6192 20.9893 38.0312C20.9893 47.4431 28.6191 55.0729 38.031 55.0729ZM49.2396 38.0312C49.2396 44.2215 44.2214 49.2397 38.0311 49.2397C31.8407 49.2397 26.8225 44.2215 26.8225 38.0312C26.8225 31.8408 31.8407 26.8226 38.0311 26.8226C44.2214 26.8226 49.2396 31.8408 49.2396 38.0312ZM51.029 38.0312C51.029 45.2097 45.2096 51.0291 38.0311 51.0291C30.8525 51.0291 25.0331 45.2097 25.0331 38.0312C25.0331 30.8526 30.8525 25.0332 38.0311 25.0332C45.2096 25.0332 51.029 30.8526 51.029 38.0312ZM38.0311 45.1647C41.9709 45.1647 45.1647 41.9709 45.1647 38.0311C45.1647 34.0913 41.9709 30.8974 38.0311 30.8974C34.0913 30.8974 30.8974 34.0913 30.8974 38.0311C30.8974 41.9709 34.0913 45.1647 38.0311 45.1647ZM38.0311 47.1778C43.0827 47.1778 47.1778 43.0827 47.1778 38.0311C47.1778 32.9795 43.0827 28.8844 38.0311 28.8844C32.9795 28.8844 28.8844 32.9795 28.8844 38.0311C28.8844 43.0827 32.9795 47.1778 38.0311 47.1778ZM41.506 38.0311C41.506 39.9503 39.9502 41.5061 38.031 41.5061C36.1119 41.5061 34.5561 39.9503 34.5561 38.0311C34.5561 36.112 36.1119 34.5562 38.031 34.5562C39.9502 34.5562 41.506 36.112 41.506 38.0311ZM43.5191 38.0311C43.5191 41.0621 41.062 43.5192 38.031 43.5192C35.0001 43.5192 32.543 41.0621 32.543 38.0311C32.543 35.0002 35.0001 32.5431 38.031 32.5431C41.062 32.5431 43.5191 35.0002 43.5191 38.0311Z" fill="#F4F4F4"/>
<path d="M38.0619 42.7218C37.1108 42.7218 36.181 42.4463 35.3902 41.9302C34.5994 41.4141 33.983 40.6805 33.619 39.8222C33.255 38.9639 33.1598 38.0194 33.3453 37.1083C33.5309 36.1971 33.9889 35.3602 34.6615 34.7032C35.334 34.0463 36.1909 33.599 37.1237 33.4177C38.0566 33.2365 39.0235 33.3295 39.9022 33.685C40.781 34.0406 41.532 34.6426 42.0605 35.415C42.5889 36.1875 42.8709 37.0956 42.8709 38.0246L38.0619 38.0246L38.0619 42.7218Z" stroke="#0B0B0B" stroke-width="3.081"/>
<path d="M38.062 45.8532C36.8428 45.8532 35.6399 45.5764 34.5466 45.0442C33.4534 44.512 32.4991 43.7388 31.7578 42.7844C31.0165 41.83 30.5081 40.7202 30.2719 39.5409C30.0358 38.3616 30.0783 37.1445 30.3961 35.9839C30.7139 34.8234 31.2986 33.7507 32.1047 32.8488C32.9108 31.9469 33.9167 31.2402 35.0445 30.7834C36.1722 30.3266 37.3916 30.1319 38.6079 30.2146C39.8243 30.2972 41.005 30.6549 42.0586 31.2599L38.062 38.0246L38.062 45.8532Z" stroke="#0B0B0B" stroke-width="3.081"/>
<path d="M38.0623 49.8794C34.8885 49.8794 31.8448 48.6304 29.6006 46.4072C27.3565 44.184 26.0957 41.1687 26.0957 38.0246C26.0957 34.8806 27.3565 31.8653 29.6006 29.6421C31.8448 27.4189 34.8885 26.1699 38.0623 26.1699L38.0623 38.0246L38.0623 49.8794Z" stroke="#0B0B0B" stroke-width="3.081"/>
<path d="M38.062 53.9055C34.5916 53.9055 31.2154 52.7846 28.4429 50.7118C25.6704 48.6391 23.6521 45.727 22.6927 42.4152C21.7332 39.1034 21.8847 35.5715 23.1241 32.3527C24.3636 29.1339 26.6239 26.4027 29.5637 24.5715L38.062 38.0247L38.062 53.9055Z" stroke="#0B0B0B" stroke-width="3.081"/>
<path d="M38.0623 58.1553C34.2972 58.1553 30.6068 57.111 27.4057 55.1399C24.2046 53.1687 21.6197 50.3488 19.9416 46.997C18.2635 43.6452 17.5587 39.8944 17.9063 36.1661C18.2539 32.4378 19.6402 28.8798 21.9094 25.892L38.0623 38.0246L38.0623 58.1553Z" stroke="#0B0B0B" stroke-width="3.081"/>
<path d="M38.0621 62.4051C34.1372 62.4051 30.2697 61.4661 26.7855 59.6673C23.3013 57.8684 20.3024 55.2624 18.0415 52.0686C15.7806 48.8749 14.3239 45.1871 13.794 41.3158C13.2642 37.4445 13.6767 33.5032 14.997 29.8238L38.0621 38.0246L38.0621 62.4051Z" stroke="#0B0B0B" stroke-width="2.46041"/>
<path d="M38.0624 66.4313C34.1248 66.4313 30.2299 65.619 26.6229 64.0458C23.016 62.4725 19.7752 60.1722 17.1048 57.2899C14.4343 54.4076 12.392 51.0057 11.1065 47.2984C9.82101 43.5912 9.32018 39.6589 9.63557 35.7494L38.0624 38.0246L38.0624 66.4313Z" stroke="#0B0B0B" stroke-width="3.081"/>
<path d="M38.0621 70.2337C30.5734 70.2337 23.317 67.6422 17.5329 62.9021C11.7488 58.1619 7.79588 51.5672 6.34965 44.2449L38.0621 38.0246L38.0621 70.2337Z" stroke="#0B0B0B" stroke-width="3.081"/>
</svg>
