<svg width="70" height="70" viewBox="0 0 70 70" fill="none" xmlns="http://www.w3.org/2000/svg">
<rect width="70" height="70" rx="35" fill="black" fill-opacity="0.8"/>
<path fill-rule="evenodd" clip-rule="evenodd" d="M64.1576 35.0002C64.1576 51.1083 51.0991 64.1668 34.9909 64.1668C18.8826 64.1668 5.82422 51.1083 5.82422 35.0002C5.82422 18.8918 18.8826 5.8335 34.9909 5.8335C51.0991 5.8335 64.1576 18.8918 64.1576 35.0002ZM36.036 27.3656C33.1992 28.5456 27.5294 30.9877 19.0267 34.6922C17.646 35.2414 16.9227 35.7786 16.8569 36.3036C16.7456 37.1915 17.8572 37.5409 19.3709 38.0169C19.5767 38.0816 19.7901 38.1487 20.0088 38.2196C21.498 38.7037 23.5012 39.2702 24.5426 39.2926C25.4872 39.313 26.5416 38.9237 27.7056 38.1242C35.6498 32.7616 39.7509 30.0512 40.0082 29.9925C40.1899 29.9514 40.4416 29.8995 40.6122 30.0512C40.7828 30.2028 40.7659 30.4898 40.7478 30.5668C40.6379 31.0364 36.2745 35.0929 34.0165 37.192C33.3127 37.8465 32.8133 38.3106 32.7112 38.4167C32.4826 38.6542 32.2495 38.8787 32.0255 39.0946C30.6422 40.4284 29.6044 41.4285 32.083 43.0618C33.2739 43.8467 34.227 44.4957 35.1779 45.1432C36.2162 45.8505 37.2519 46.5557 38.5921 47.4342C38.9334 47.6579 39.2595 47.8904 39.5771 48.1167C40.7855 48.9783 41.871 49.7524 43.2124 49.6287C43.9917 49.5572 44.7967 48.8243 45.2057 46.6385C46.172 41.4731 48.0713 30.281 48.5102 25.6692C48.5487 25.2651 48.5003 24.748 48.4612 24.521C48.4225 24.294 48.3414 23.9706 48.0462 23.7311C47.6968 23.4476 47.1572 23.3878 46.916 23.3918C45.819 23.4114 44.1358 23.9966 36.036 27.3656Z" stroke="white" stroke-width="3" stroke-linejoin="round"/>
</svg>
